<svg width="675" height="56" viewBox="0 0 675 56" fill="none" xmlns="http://www.w3.org/2000/svg">
<path d="M287.881 51H277.335L293.403 4.45454H306.085L322.131 51H311.585L299.926 15.0909H299.562L287.881 51ZM287.222 32.7045H312.131V40.3864H287.222V32.7045ZM366.614 20.75H356.659C356.477 19.4621 356.106 18.3182 355.545 17.3182C354.985 16.303 354.265 15.4394 353.386 14.7273C352.508 14.0151 351.492 13.4697 350.341 13.0909C349.205 12.7121 347.97 12.5227 346.636 12.5227C344.227 12.5227 342.129 13.1212 340.341 14.3182C338.553 15.5 337.167 17.2273 336.182 19.5C335.197 21.7576 334.705 24.5 334.705 27.7273C334.705 31.0455 335.197 33.8333 336.182 36.0909C337.182 38.3485 338.576 40.053 340.364 41.2045C342.152 42.3561 344.22 42.9318 346.568 42.9318C347.886 42.9318 349.106 42.7576 350.227 42.4091C351.364 42.0606 352.371 41.553 353.25 40.8864C354.129 40.2045 354.856 39.3788 355.432 38.4091C356.023 37.4394 356.432 36.3333 356.659 35.0909L366.614 35.1364C366.356 37.2727 365.712 39.3333 364.682 41.3182C363.667 43.2879 362.295 45.053 360.568 46.6136C358.856 48.1591 356.811 49.3864 354.432 50.2955C352.068 51.1894 349.394 51.6364 346.409 51.6364C342.258 51.6364 338.545 50.697 335.273 48.8182C332.015 46.9394 329.439 44.2197 327.545 40.6591C325.667 37.0985 324.727 32.7879 324.727 27.7273C324.727 22.6515 325.682 18.3333 327.591 14.7727C329.5 11.2121 332.091 8.5 335.364 6.63636C338.636 4.75757 342.318 3.81818 346.409 3.81818C349.106 3.81818 351.606 4.19697 353.909 4.95454C356.227 5.71212 358.28 6.81818 360.068 8.27272C361.856 9.71212 363.311 11.4773 364.432 13.5682C365.568 15.6591 366.295 18.053 366.614 20.75ZM380.818 51H370.273L386.341 4.45454H399.023L415.068 51H404.523L392.864 15.0909H392.5L380.818 51ZM380.159 32.7045H405.068V40.3864H380.159V32.7045ZM437.17 51H420.67V4.45454H437.307C441.989 4.45454 446.019 5.38636 449.398 7.25C452.777 9.09848 455.375 11.7576 457.193 15.2273C459.027 18.697 459.943 22.8485 459.943 27.6818C459.943 32.5303 459.027 36.697 457.193 40.1818C455.375 43.6667 452.761 46.3409 449.352 48.2045C445.958 50.0682 441.898 51 437.17 51ZM430.511 42.5682H436.761C439.67 42.5682 442.117 42.053 444.102 41.0227C446.102 39.9773 447.602 38.3636 448.602 36.1818C449.617 33.9848 450.125 31.1515 450.125 27.6818C450.125 24.2424 449.617 21.4318 448.602 19.25C447.602 17.0682 446.11 15.4621 444.125 14.4318C442.14 13.4015 439.693 12.8864 436.784 12.8864H430.511V42.5682ZM467.233 51V4.45454H498.597V12.5682H477.074V23.6591H496.983V31.7727H477.074V42.8864H498.688V51H467.233ZM506.42 4.45454H518.557L531.375 35.7273H531.92L544.739 4.45454H556.875V51H547.33V20.7045H546.943L534.898 50.7727H528.398L516.352 20.5909H515.966V51H506.42V4.45454ZM562.256 4.45454H573.278L583.892 24.5H584.347L594.96 4.45454H605.983L589.006 34.5455V51H579.233V34.5455L562.256 4.45454Z" fill="white"/>
<path d="M0 28H675" stroke="white" stroke-width="1.6"/>
</svg>
