<svg width="788" height="242" viewBox="0 0 788 242" fill="none" xmlns="http://www.w3.org/2000/svg">
<path d="M18.9688 65L18.0073 65.2751L18.2148 66H18.9688V65ZM0.65625 0.999998V-1.90735e-06H-0.670014L-0.305167 1.27509L0.65625 0.999998ZM15.4375 0.999998L16.4103 0.768254L16.2273 -1.90735e-06H15.4375V0.999998ZM26.0313 45.4688L25.0585 45.7005L25.2415 46.4688H26.0313V45.4688ZM26.5625 45.4688V46.4688H27.3336L27.5297 45.7229L26.5625 45.4688ZM38.25 0.999998V-1.90735e-06H37.4789L37.2828 0.745806L38.25 0.999998ZM50.9062 0.999998L51.8737 0.746941L51.6783 -1.90735e-06H50.9062V0.999998ZM62.5625 45.5625L61.5951 45.8156L61.7904 46.5625H62.5625V45.5625ZM63.125 45.5625V46.5625H63.9151L64.0979 45.7938L63.125 45.5625ZM73.7188 0.999998V-1.90735e-06H72.9286L72.7459 0.768716L73.7188 0.999998ZM88.5 0.999998L89.4614 1.27509L89.8263 -1.90735e-06H88.5V0.999998ZM70.1875 65V66H70.9415L71.1489 65.2751L70.1875 65ZM57 65L56.0399 65.2796L56.2497 66H57V65ZM44.8125 23.1562L45.7726 22.8766L45.5628 22.1562H44.8125V23.1562ZM44.3125 23.1562V22.1562H43.5617L43.3522 22.8773L44.3125 23.1562ZM32.1563 65V66H32.9071L33.1166 65.279L32.1563 65ZM19.9302 64.7249L1.61767 0.724905L-0.305167 1.27509L18.0073 65.2751L19.9302 64.7249ZM0.65625 2H15.4375V-1.90735e-06H0.65625V2ZM14.4647 1.23174L25.0585 45.7005L27.004 45.237L16.4103 0.768254L14.4647 1.23174ZM26.0313 46.4688H26.5625V44.4688H26.0313V46.4688ZM27.5297 45.7229L39.2172 1.25419L37.2828 0.745806L25.5953 45.2146L27.5297 45.7229ZM38.25 2H50.9062V-1.90735e-06H38.25V2ZM49.9388 1.25306L61.5951 45.8156L63.53 45.3094L51.8737 0.746941L49.9388 1.25306ZM62.5625 46.5625H63.125V44.5625H62.5625V46.5625ZM64.0979 45.7938L74.6916 1.23128L72.7459 0.768716L62.1521 45.3312L64.0979 45.7938ZM73.7188 2H88.5V-1.90735e-06H73.7188V2ZM87.5386 0.724905L69.2261 64.7249L71.1489 65.2751L89.4614 1.27509L87.5386 0.724905ZM70.1875 64H57V66H70.1875V64ZM57.9601 64.7204L45.7726 22.8766L43.8524 23.4359L56.0399 65.2796L57.9601 64.7204ZM44.8125 22.1562H44.3125V24.1562H44.8125V22.1562ZM43.3522 22.8773L31.196 64.721L33.1166 65.279L45.2728 23.4352L43.3522 22.8773ZM32.1563 64H18.9688V66H32.1563V64ZM95.7422 65H94.7422V66H95.7422V65ZM95.7422 0.999998V-1.90735e-06H94.7422V0.999998H95.7422ZM138.867 0.999998H139.867V-1.90735e-06H138.867V0.999998ZM138.867 12.1562V13.1562H139.867V12.1562H138.867ZM109.273 12.1562V11.1562H108.273V12.1562H109.273ZM109.273 27.4062H108.273V28.4062H109.273V27.4062ZM136.648 27.4062H137.648V26.4062H136.648V27.4062ZM136.648 38.5625V39.5625H137.648V38.5625H136.648ZM109.273 38.5625V37.5625H108.273V38.5625H109.273ZM109.273 53.8438H108.273V54.8438H109.273V53.8438ZM138.992 53.8438H139.992V52.8438H138.992V53.8438ZM138.992 65V66H139.992V65H138.992ZM96.7422 65V0.999998H94.7422V65H96.7422ZM95.7422 2H138.867V-1.90735e-06H95.7422V2ZM137.867 0.999998V12.1562H139.867V0.999998H137.867ZM138.867 11.1562H109.273V13.1562H138.867V11.1562ZM108.273 12.1562V27.4062H110.273V12.1562H108.273ZM109.273 28.4062H136.648V26.4062H109.273V28.4062ZM135.648 27.4062V38.5625H137.648V27.4062H135.648ZM136.648 37.5625H109.273V39.5625H136.648V37.5625ZM108.273 38.5625V53.8438H110.273V38.5625H108.273ZM109.273 54.8438H138.992V52.8438H109.273V54.8438ZM137.992 53.8438V65H139.992V53.8438H137.992ZM138.992 64H95.7422V66H138.992V64ZM181.023 65V66H181.75L181.974 65.3094L181.023 65ZM166.523 65L165.578 64.6737L165.12 66H166.523V65ZM188.617 0.999998V-1.90735e-06H187.904L187.672 0.67368L188.617 0.999998ZM206.055 0.999998L207 0.674092L206.768 -1.90735e-06H206.055V0.999998ZM228.117 65V66H229.52L229.063 64.6741L228.117 65ZM213.617 65L212.666 65.3088L212.89 66H213.617V65ZM197.586 15.625L198.537 15.3162L198.313 14.625H197.586V15.625ZM197.086 15.625V14.625H196.36L196.135 15.3156L197.086 15.625ZM180.117 39.8438V38.8438H179.117V39.8438H180.117ZM214.367 39.8438H215.367V38.8438H214.367V39.8438ZM214.367 50.4062V51.4062H215.367V50.4062H214.367ZM180.117 50.4062H179.117V51.4062H180.117V50.4062ZM181.023 64H166.523V66H181.023V64ZM167.469 65.3263L189.562 1.32632L187.672 0.67368L165.578 64.6737L167.469 65.3263ZM188.617 2H206.055V-1.90735e-06H188.617V2ZM205.109 1.3259L227.172 65.3259L229.063 64.6741L207 0.674092L205.109 1.3259ZM228.117 64H213.617V66H228.117V64ZM214.568 64.6912L198.537 15.3162L196.635 15.9338L212.666 65.3088L214.568 64.6912ZM197.586 14.625H197.086V16.625H197.586V14.625ZM196.135 15.3156L180.072 64.6906L181.974 65.3094L198.037 15.9344L196.135 15.3156ZM180.117 40.8438H214.367V38.8438H180.117V40.8438ZM213.367 39.8438V50.4062H215.367V39.8438H213.367ZM214.367 49.4062H180.117V51.4062H214.367V49.4062ZM181.117 50.4062V39.8438H179.117V50.4062H181.117ZM235.82 65H234.82V66H235.82V65ZM235.82 0.999998V-1.90735e-06H234.82V0.999998H235.82ZM249.352 0.999998H250.352V-1.90735e-06H249.352V0.999998ZM249.352 53.8438H248.352V54.8438H249.352V53.8438ZM276.789 53.8438H277.789V52.8438H276.789V53.8438ZM276.789 65V66H277.789V65H276.789ZM236.82 65V0.999998H234.82V65H236.82ZM235.82 2H249.352V-1.90735e-06H235.82V2ZM248.352 0.999998V53.8438H250.352V0.999998H248.352ZM249.352 54.8438H276.789V52.8438H249.352V54.8438ZM275.789 53.8438V65H277.789V53.8438H275.789ZM276.789 64H235.82V66H276.789V64ZM296.547 65L295.585 65.2751L295.793 66H296.547V65ZM278.234 0.999998V-1.90735e-06H276.908L277.273 1.27509L278.234 0.999998ZM293.016 0.999998L293.988 0.768254L293.805 -1.90735e-06H293.016V0.999998ZM303.609 45.4688L302.637 45.7005L302.82 46.4688H303.609V45.4688ZM304.141 45.4688V46.4688H304.912L305.108 45.7229L304.141 45.4688ZM315.828 0.999998V-1.90735e-06H315.057L314.861 0.745806L315.828 0.999998ZM328.484 0.999998L329.452 0.746941L329.256 -1.90735e-06H328.484V0.999998ZM340.141 45.5625L339.173 45.8156L339.369 46.5625H340.141V45.5625ZM340.703 45.5625V46.5625H341.493L341.676 45.7938L340.703 45.5625ZM351.297 0.999998V-1.90735e-06H350.507L350.324 0.768716L351.297 0.999998ZM366.078 0.999998L367.04 1.27509L367.404 -1.90735e-06H366.078V0.999998ZM347.766 65V66H348.52L348.727 65.2751L347.766 65ZM334.578 65L333.618 65.2796L333.828 66H334.578V65ZM322.391 23.1562L323.351 22.8766L323.141 22.1562H322.391V23.1562ZM321.891 23.1562V22.1562H321.14L320.93 22.8773L321.891 23.1562ZM309.734 65V66H310.485L310.695 65.279L309.734 65ZM297.508 64.7249L279.196 0.724905L277.273 1.27509L295.585 65.2751L297.508 64.7249ZM278.234 2H293.016V-1.90735e-06H278.234V2ZM292.043 1.23174L302.637 45.7005L304.582 45.237L293.988 0.768254L292.043 1.23174ZM303.609 46.4688H304.141V44.4688H303.609V46.4688ZM305.108 45.7229L316.795 1.25419L314.861 0.745806L303.173 45.2146L305.108 45.7229ZM315.828 2H328.484V-1.90735e-06H315.828V2ZM327.517 1.25306L339.173 45.8156L341.108 45.3094L329.452 0.746941L327.517 1.25306ZM340.141 46.5625H340.703V44.5625H340.141V46.5625ZM341.676 45.7938L352.27 1.23128L350.324 0.768716L339.73 45.3312L341.676 45.7938ZM351.297 2H366.078V-1.90735e-06H351.297V2ZM365.117 0.724905L346.804 64.7249L348.727 65.2751L367.04 1.27509L365.117 0.724905ZM347.766 64H334.578V66H347.766V64ZM335.538 64.7204L323.351 22.8766L321.431 23.4359L333.618 65.2796L335.538 64.7204ZM322.391 22.1562H321.891V24.1562H322.391V22.1562ZM320.93 22.8773L308.774 64.721L310.695 65.279L322.851 23.4352L320.93 22.8773ZM309.734 64H296.547V66H309.734V64ZM377.906 65V66H378.633L378.857 65.3094L377.906 65ZM363.406 65L362.461 64.6737L362.003 66H363.406V65ZM385.5 0.999998V-1.90735e-06H384.787L384.555 0.67368L385.5 0.999998ZM402.938 0.999998L403.883 0.674092L403.651 -1.90735e-06H402.938V0.999998ZM425 65V66H426.402L425.945 64.6741L425 65ZM410.5 65L409.549 65.3088L409.773 66H410.5V65ZM394.469 15.625L395.42 15.3162L395.195 14.625H394.469V15.625ZM393.969 15.625V14.625H393.242L393.018 15.3156L393.969 15.625ZM377 39.8438V38.8438H376V39.8438H377ZM411.25 39.8438H412.25V38.8438H411.25V39.8438ZM411.25 50.4062V51.4062H412.25V50.4062H411.25ZM377 50.4062H376V51.4062H377V50.4062ZM377.906 64H363.406V66H377.906V64ZM364.352 65.3263L386.445 1.32632L384.555 0.67368L362.461 64.6737L364.352 65.3263ZM385.5 2H402.938V-1.90735e-06H385.5V2ZM401.992 1.3259L424.055 65.3259L425.945 64.6741L403.883 0.674092L401.992 1.3259ZM425 64H410.5V66H425V64ZM411.451 64.6912L395.42 15.3162L393.518 15.9338L409.549 65.3088L411.451 64.6912ZM394.469 14.625H393.969V16.625H394.469V14.625ZM393.018 15.3156L376.955 64.6906L378.857 65.3094L394.92 15.9344L393.018 15.3156ZM377 40.8438H411.25V38.8438H377V40.8438ZM410.25 39.8438V50.4062H412.25V39.8438H410.25ZM411.25 49.4062H377V51.4062H411.25V49.4062ZM378 50.4062V39.8438H376V50.4062H378ZM422.422 0.999998V-1.90735e-06H420.71L421.551 1.49138L422.422 0.999998ZM437.578 0.999998L438.462 0.532064L438.18 -1.90735e-06H437.578V0.999998ZM452.172 28.5625L451.288 29.0304L451.57 29.5625H452.172V28.5625ZM452.797 28.5625V29.5625H453.399L453.681 29.0304L452.797 28.5625ZM467.391 0.999998V-1.90735e-06H466.789L466.507 0.532064L467.391 0.999998ZM482.547 0.999998L483.418 1.49138L484.259 -1.90735e-06H482.547V0.999998ZM459.203 42.375L458.332 41.8836L458.203 42.1124V42.375H459.203ZM459.203 65V66H460.203V65H459.203ZM445.766 65H444.766V66H445.766V65ZM445.766 42.375H446.766V42.1124L446.637 41.8836L445.766 42.375ZM422.422 2H437.578V-1.90735e-06H422.422V2ZM436.694 1.46793L451.288 29.0304L453.056 28.0946L438.462 0.532064L436.694 1.46793ZM452.172 29.5625H452.797V27.5625H452.172V29.5625ZM453.681 29.0304L468.274 1.46793L466.507 0.532064L451.913 28.0946L453.681 29.0304ZM467.391 2H482.547V-1.90735e-06H467.391V2ZM481.676 0.508613L458.332 41.8836L460.074 42.8664L483.418 1.49138L481.676 0.508613ZM458.203 42.375V65H460.203V42.375H458.203ZM459.203 64H445.766V66H459.203V64ZM446.766 65V42.375H444.766V65H446.766ZM446.637 41.8836L423.293 0.508613L421.551 1.49138L444.895 42.8664L446.637 41.8836ZM524.656 19.4062L523.661 19.5049L523.751 20.4062H524.656V19.4062ZM508.125 12.375L508.494 13.3044L508.505 13.2999L508.125 12.375ZM504.625 14.9062L503.825 14.3062L503.818 14.3162L504.625 14.9062ZM503.438 18.5938L504.437 18.6301L504.438 18.6119V18.5938H503.438ZM504.156 21.5938L503.302 22.1144L503.307 22.1219L503.312 22.1293L504.156 21.5938ZM506.375 23.8125L505.82 24.6446L505.827 24.6489L505.833 24.6531L506.375 23.8125ZM509.625 25.4062L509.276 26.3432L509.283 26.3458L509.29 26.3484L509.625 25.4062ZM513.562 26.5312L513.795 25.5587L513.788 25.557L513.781 25.5554L513.562 26.5312ZM519.312 27.9062L519.08 28.8788L519.087 28.8805L519.094 28.8821L519.312 27.9062ZM527 30.4062L526.592 31.3194L527 30.4062ZM533.062 34.25L533.727 33.5031L533.062 34.25ZM537.031 39.625L536.121 40.0388L536.124 40.0464L537.031 39.625ZM538.5 46.7188L539.5 46.7241L539.5 46.7109L538.5 46.7188ZM535.5 56.9062L534.676 56.3392L534.675 56.3405L535.5 56.9062ZM527 63.5625L527.39 64.4833L527.393 64.4822L527 63.5625ZM500.156 63.5312L499.773 64.4548L499.774 64.4555L500.156 63.5312ZM491.219 56.5L490.392 57.0623L490.396 57.0686L491.219 56.5ZM487.875 44.9062V43.9062H486.852L486.875 44.9289L487.875 44.9062ZM500.969 44.9062L501.966 44.8384L501.903 43.9062H500.969V44.9062ZM502.812 50.2812L502.014 50.8831L502.019 50.8896L502.024 50.896L502.812 50.2812ZM507.219 53.5L506.849 54.4293L506.862 54.4342L507.219 53.5ZM519.469 53.5625L519.105 52.6309L519.101 52.6324L519.469 53.5625ZM523.438 50.7812L524.222 51.4009L523.438 50.7812ZM523.562 43.0625L522.801 43.7107L522.809 43.7199L523.562 43.0625ZM519.875 40.5625L519.481 41.4817L519.485 41.4835L519.875 40.5625ZM513.969 38.6875L513.725 39.6574L513.734 39.6596L513.969 38.6875ZM507 36.9375L507.244 35.9676L507.236 35.9658L507 36.9375ZM494.219 30.7812L493.553 31.527L494.219 30.7812ZM489.562 19.5L490.563 19.5044L490.562 19.4946L489.562 19.5ZM492.656 9.34375L491.847 8.75592L491.844 8.75975L492.656 9.34375ZM501.312 2.5625L500.907 1.64826L501.312 2.5625ZM526.25 2.5625L525.833 3.4714L525.835 3.47232L526.25 2.5625ZM534.562 9.34375L533.737 9.90801L534.562 9.34375ZM537.625 19.4062V20.4062H538.642L538.625 19.3899L537.625 19.4062ZM525.651 19.3076C525.376 16.5289 524.173 14.3036 522.03 12.726L520.845 14.3365C522.494 15.5506 523.437 17.2419 523.661 19.5049L525.651 19.3076ZM522.03 12.726C519.908 11.1635 517.103 10.4375 513.719 10.4375V12.4375C516.835 12.4375 519.175 13.1073 520.845 14.3365L522.03 12.726ZM513.719 10.4375C511.422 10.4375 509.42 10.7617 507.745 11.4501L508.505 13.2999C509.872 12.7383 511.599 12.4375 513.719 12.4375V10.4375ZM507.756 11.4456C506.1 12.1036 504.769 13.0475 503.825 14.3062L505.425 15.5062C506.106 14.5983 507.109 13.8547 508.494 13.3044L507.756 11.4456ZM503.818 14.3162C502.897 15.5753 502.438 17.0123 502.438 18.5938H504.438C504.438 17.4252 504.769 16.4038 505.432 15.4963L503.818 14.3162ZM502.438 18.5574C502.39 19.8697 502.665 21.0693 503.302 22.1144L505.01 21.0731C504.606 20.4098 504.401 19.6094 504.437 18.6301L502.438 18.5574ZM503.312 22.1293C503.936 23.1143 504.78 23.9509 505.82 24.6446L506.93 22.9804C506.095 22.4241 505.459 21.7816 505.001 21.0582L503.312 22.1293ZM505.833 24.6531C506.841 25.3023 507.991 25.864 509.276 26.3432L509.974 24.4693C508.801 24.0318 507.784 23.531 506.917 22.9719L505.833 24.6531ZM509.29 26.3484C510.561 26.8007 511.912 27.1866 513.344 27.5071L513.781 25.5554C512.421 25.2509 511.148 24.8868 509.96 24.4641L509.29 26.3484ZM513.33 27.5038L519.08 28.8788L519.545 26.9337L513.795 25.5587L513.33 27.5038ZM519.094 28.8821C521.828 29.4942 524.327 30.3079 526.592 31.3194L527.408 29.4931C525.007 28.4213 522.38 27.5683 519.531 26.9304L519.094 28.8821ZM526.592 31.3194C528.843 32.324 530.774 33.5518 532.398 34.9969L533.727 33.5031C531.934 31.9065 529.824 30.5718 527.408 29.4931L526.592 31.3194ZM532.398 34.9969C534.003 36.4259 535.242 38.1045 536.121 40.0388L537.942 39.2112C536.946 37.0205 535.539 35.1157 533.727 33.5031L532.398 34.9969ZM536.124 40.0464C537.013 41.9588 537.48 44.1784 537.5 46.7266L539.5 46.7109C539.478 43.9258 538.966 41.4162 537.938 39.2036L536.124 40.0464ZM537.5 46.7134C537.48 50.4549 536.528 53.6493 534.676 56.3392L536.324 57.4733C538.43 54.4132 539.478 50.816 539.5 46.7241L537.5 46.7134ZM534.675 56.3405C532.841 59.0137 530.17 61.1215 526.607 62.6428L527.393 64.4822C531.246 62.8368 534.242 60.5072 536.325 57.472L534.675 56.3405ZM526.61 62.6417C523.077 64.1388 518.769 64.9062 513.656 64.9062V66.9062C518.96 66.9062 523.548 66.1112 527.39 64.4833L526.61 62.6417ZM513.656 64.9062C508.589 64.9062 504.224 64.1297 500.538 62.607L499.774 64.4555C503.755 66.0995 508.39 66.9062 513.656 66.9062V64.9062ZM500.54 62.6077C496.887 61.0909 494.068 58.8628 492.041 55.9314L490.396 57.0686C492.661 60.3456 495.8 62.805 499.773 64.4548L500.54 62.6077ZM492.046 55.9377C490.051 53.004 488.975 49.3374 488.875 44.8836L486.875 44.9289C486.983 49.6834 488.137 53.746 490.392 57.0623L492.046 55.9377ZM487.875 45.9062H500.969V43.9062H487.875V45.9062ZM499.971 44.9741C500.127 47.2752 500.793 49.2627 502.014 50.8831L503.611 49.6794C502.666 48.4248 502.102 46.829 501.966 44.8384L499.971 44.9741ZM502.024 50.896C503.248 52.4664 504.867 53.641 506.849 54.4292L507.588 52.5708C505.903 51.9007 504.586 50.9294 503.601 49.6665L502.024 50.896ZM506.862 54.4342C508.848 55.1929 511.066 55.5625 513.5 55.5625V53.5625C511.268 53.5625 509.298 53.2237 507.576 52.5658L506.862 54.4342ZM513.5 55.5625C515.886 55.5625 518.005 55.2158 519.836 54.4926L519.101 52.6324C517.557 53.2425 515.698 53.5625 513.5 53.5625V55.5625ZM519.832 54.4941C521.671 53.7765 523.153 52.7549 524.222 51.4009L522.653 50.1616C521.847 51.1826 520.683 52.0152 519.105 52.6309L519.832 54.4941ZM524.222 51.4009C525.302 50.0333 525.844 48.4494 525.844 46.6875H523.844C523.844 48.0089 523.448 49.1542 522.653 50.1616L524.222 51.4009ZM525.844 46.6875C525.844 45.0359 525.346 43.5862 524.316 42.4051L522.809 43.7199C523.487 44.4971 523.844 45.4641 523.844 46.6875H525.844ZM524.324 42.4144C523.359 41.2808 521.983 40.3684 520.265 39.6415L519.485 41.4835C521.017 42.1316 522.099 42.8859 522.801 43.7106L524.324 42.4144ZM520.269 39.6434C518.598 38.9273 516.572 38.2865 514.203 37.7153L513.734 39.6596C516.032 40.2135 517.944 40.8227 519.481 41.4816L520.269 39.6434ZM514.212 37.7176L507.244 35.9676L506.756 37.9074L513.725 39.6574L514.212 37.7176ZM507.236 35.9658C501.95 34.68 497.854 32.6879 494.885 30.0355L493.553 31.527C496.833 34.458 501.258 36.57 506.764 37.9092L507.236 35.9658ZM494.885 30.0355C492.002 27.4603 490.543 23.9882 490.562 19.5044L488.562 19.4956C488.541 24.4701 490.185 28.5189 493.553 31.527L494.885 30.0355ZM490.562 19.4946C490.543 15.8118 491.519 12.637 493.468 9.92775L491.844 8.75975C489.627 11.8422 488.541 15.4382 488.562 19.5054L490.562 19.4946ZM493.465 9.93158C495.454 7.19477 498.192 5.03917 501.718 3.47674L500.907 1.64826C497.099 3.33583 494.067 5.70106 491.847 8.75593L493.465 9.93158ZM501.718 3.47674C505.238 1.91679 509.263 1.125 513.812 1.125V-0.875002C509.029 -0.875002 504.721 -0.04179 500.907 1.64826L501.718 3.47674ZM513.812 1.125C518.449 1.125 522.448 1.91808 525.833 3.47139L526.667 1.6536C522.969 -0.0430889 518.676 -0.875002 513.812 -0.875002V1.125ZM525.835 3.47232C529.252 5.03073 531.872 7.17963 533.737 9.90801L535.388 8.77949C533.294 5.7162 530.373 3.34427 526.665 1.65268L525.835 3.47232ZM533.737 9.90801C535.596 12.6281 536.566 15.7881 536.625 19.4226L538.625 19.3899C538.559 15.3994 537.487 11.851 535.388 8.77949L533.737 9.90801ZM537.625 18.4062H524.656V20.4062H537.625V18.4062ZM602.688 19.4062L601.692 19.5049L601.782 20.4062H602.688V19.4062ZM586.156 12.375L586.525 13.3044L586.536 13.2999L586.156 12.375ZM582.656 14.9062L581.856 14.3062L581.849 14.3162L582.656 14.9062ZM581.469 18.5938L582.468 18.6301L582.469 18.6119V18.5938H581.469ZM582.188 21.5938L581.334 22.1144L581.338 22.1219L581.343 22.1293L582.188 21.5938ZM584.406 23.8125L583.852 24.6446L583.858 24.6489L583.865 24.6531L584.406 23.8125ZM587.656 25.4062L587.307 26.3432L587.314 26.3458L587.321 26.3484L587.656 25.4062ZM591.594 26.5312L591.826 25.5587L591.819 25.557L591.812 25.5554L591.594 26.5312ZM597.344 27.9062L597.111 28.8788L597.118 28.8805L597.125 28.8821L597.344 27.9062ZM605.031 30.4062L604.624 31.3194L605.031 30.4062ZM611.094 34.25L611.759 33.5031L611.094 34.25ZM615.062 39.625L614.152 40.0388L614.156 40.0464L615.062 39.625ZM616.531 46.7188L617.531 46.7241L617.531 46.7109L616.531 46.7188ZM613.531 56.9062L612.708 56.3392L612.707 56.3405L613.531 56.9062ZM605.031 63.5625L605.421 64.4833L605.424 64.4822L605.031 63.5625ZM578.188 63.5312L577.804 64.4548L577.806 64.4555L578.188 63.5312ZM569.25 56.5L568.423 57.0623L568.427 57.0686L569.25 56.5ZM565.906 44.9062V43.9062H564.883L564.906 44.9289L565.906 44.9062ZM579 44.9062L579.998 44.8384L579.934 43.9062H579V44.9062ZM580.844 50.2812L580.045 50.8831L580.05 50.8896L580.055 50.896L580.844 50.2812ZM585.25 53.5L584.88 54.4293L584.893 54.4342L585.25 53.5ZM597.5 53.5625L597.136 52.6309L597.133 52.6324L597.5 53.5625ZM601.469 50.7812L602.254 51.4009L601.469 50.7812ZM601.594 43.0625L600.832 43.7107L600.84 43.7199L601.594 43.0625ZM597.906 40.5625L597.512 41.4817L597.517 41.4835L597.906 40.5625ZM592 38.6875L591.756 39.6574L591.766 39.6596L592 38.6875ZM585.031 36.9375L585.275 35.9676L585.268 35.9658L585.031 36.9375ZM572.25 30.7812L571.584 31.527L572.25 30.7812ZM567.594 19.5L568.594 19.5044L568.594 19.4946L567.594 19.5ZM570.688 9.34375L569.878 8.75592L569.876 8.75975L570.688 9.34375ZM579.344 2.5625L578.939 1.64826L579.344 2.5625ZM604.281 2.5625L603.864 3.4714L603.866 3.47232L604.281 2.5625ZM612.594 9.34375L611.768 9.90801L612.594 9.34375ZM615.656 19.4062V20.4062H616.673L616.656 19.3899L615.656 19.4062ZM603.683 19.3076C603.407 16.5289 602.204 14.3036 600.062 12.726L598.876 14.3365C600.525 15.5506 601.468 17.2419 601.692 19.5049L603.683 19.3076ZM600.062 12.726C597.94 11.1635 595.134 10.4375 591.75 10.4375V12.4375C594.866 12.4375 597.206 13.1073 598.876 14.3365L600.062 12.726ZM591.75 10.4375C589.453 10.4375 587.451 10.7617 585.776 11.4501L586.536 13.2999C587.903 12.7383 589.63 12.4375 591.75 12.4375V10.4375ZM585.787 11.4456C584.131 12.1036 582.8 13.0475 581.856 14.3062L583.456 15.5062C584.137 14.5983 585.14 13.8547 586.525 13.3044L585.787 11.4456ZM581.849 14.3162C580.929 15.5753 580.469 17.0123 580.469 18.5938H582.469C582.469 17.4252 582.8 16.4038 583.464 15.4963L581.849 14.3162ZM580.469 18.5574C580.422 19.8697 580.696 21.0693 581.334 22.1144L583.041 21.0731C582.637 20.4098 582.432 19.6094 582.468 18.6301L580.469 18.5574ZM581.343 22.1293C581.968 23.1143 582.811 23.9509 583.852 24.6446L584.961 22.9804C584.126 22.4241 583.491 21.7816 583.032 21.0582L581.343 22.1293ZM583.865 24.6531C584.872 25.3023 586.022 25.864 587.307 26.3432L588.006 24.4693C586.832 24.0318 585.816 23.531 584.948 22.9719L583.865 24.6531ZM587.321 26.3484C588.592 26.8007 589.944 27.1866 591.375 27.5071L591.812 25.5554C590.452 25.2509 589.179 24.8868 587.992 24.4641L587.321 26.3484ZM591.361 27.5038L597.111 28.8788L597.576 26.9337L591.826 25.5587L591.361 27.5038ZM597.125 28.8821C599.86 29.4942 602.358 30.3079 604.624 31.3194L605.439 29.4931C603.038 28.4213 600.411 27.5683 597.562 26.9304L597.125 28.8821ZM604.624 31.3194C606.874 32.324 608.806 33.5518 610.429 34.9969L611.759 33.5031C609.965 31.9065 607.855 30.5718 605.439 29.4931L604.624 31.3194ZM610.429 34.9969C612.034 36.4259 613.273 38.1045 614.152 40.0388L615.973 39.2112C614.977 37.0205 613.57 35.1157 611.759 33.5031L610.429 34.9969ZM614.156 40.0464C615.044 41.9588 615.511 44.1784 615.531 46.7266L617.531 46.7109C617.509 43.9258 616.997 41.4162 615.969 39.2036L614.156 40.0464ZM615.531 46.7134C615.511 50.4549 614.559 53.6493 612.708 56.3392L614.355 57.4733C616.462 54.4132 617.509 50.816 617.531 46.7241L615.531 46.7134ZM612.707 56.3405C610.872 59.0137 608.202 61.1215 604.639 62.6428L605.424 64.4822C609.278 62.8368 612.273 60.5072 614.356 57.472L612.707 56.3405ZM604.641 62.6417C601.108 64.1388 596.8 64.9062 591.688 64.9062V66.9062C596.991 66.9062 601.579 66.1112 605.421 64.4833L604.641 62.6417ZM591.688 64.9062C586.621 64.9062 582.256 64.1297 578.569 62.607L577.806 64.4555C581.786 66.0995 586.421 66.9062 591.688 66.9062V64.9062ZM578.571 62.6077C574.919 61.0909 572.099 58.8628 570.073 55.9314L568.427 57.0686C570.693 60.3456 573.831 62.805 577.804 64.4548L578.571 62.6077ZM570.077 55.9377C568.082 53.004 567.007 49.3374 566.906 44.8836L564.906 44.9289C565.014 49.6834 566.168 53.746 568.423 57.0623L570.077 55.9377ZM565.906 45.9062H579V43.9062H565.906V45.9062ZM578.002 44.9741C578.159 47.2752 578.824 49.2627 580.045 50.8831L581.642 49.6794C580.697 48.4248 580.133 46.829 579.998 44.8384L578.002 44.9741ZM580.055 50.896C581.279 52.4664 582.899 53.641 584.88 54.4292L585.62 52.5708C583.935 51.9007 582.617 50.9294 581.633 49.6665L580.055 50.896ZM584.893 54.4342C586.879 55.1929 589.097 55.5625 591.531 55.5625V53.5625C589.299 53.5625 587.329 53.2237 585.607 52.5658L584.893 54.4342ZM591.531 55.5625C593.917 55.5625 596.037 55.2158 597.867 54.4926L597.133 52.6324C595.588 53.2425 593.729 53.5625 591.531 53.5625V55.5625ZM597.864 54.4941C599.702 53.7765 601.185 52.7549 602.254 51.4009L600.684 50.1616C599.878 51.1826 598.714 52.0152 597.136 52.6309L597.864 54.4941ZM602.254 51.4009C603.333 50.0333 603.875 48.4494 603.875 46.6875H601.875C601.875 48.0089 601.479 49.1542 600.684 50.1616L602.254 51.4009ZM603.875 46.6875C603.875 45.0359 603.378 43.5862 602.347 42.4051L600.84 43.7199C601.518 44.4971 601.875 45.4641 601.875 46.6875H603.875ZM602.355 42.4144C601.391 41.2808 600.014 40.3684 598.296 39.6415L597.517 41.4835C599.049 42.1316 600.13 42.8859 600.832 43.7106L602.355 42.4144ZM598.3 39.6434C596.629 38.9273 594.604 38.2865 592.234 37.7153L591.766 39.6596C594.063 40.2135 595.975 40.8227 597.512 41.4816L598.3 39.6434ZM592.244 37.7176L585.275 35.9676L584.788 37.9074L591.756 39.6574L592.244 37.7176ZM585.268 35.9658C579.981 34.68 575.885 32.6879 572.916 30.0355L571.584 31.527C574.865 34.458 579.289 36.57 584.795 37.9092L585.268 35.9658ZM572.916 30.0355C570.034 27.4603 568.574 23.9882 568.594 19.5044L566.594 19.4956C566.572 24.4701 568.216 28.5189 571.584 31.527L572.916 30.0355ZM568.594 19.4946C568.574 15.8118 569.55 12.637 571.499 9.92775L569.876 8.75975C567.658 11.8422 566.572 15.4382 566.594 19.5054L568.594 19.4946ZM571.496 9.93158C573.485 7.19477 576.223 5.03917 579.749 3.47674L578.939 1.64826C575.131 3.33583 572.098 5.70106 569.879 8.75593L571.496 9.93158ZM579.749 3.47674C583.269 1.91679 587.294 1.125 591.844 1.125V-0.875002C587.06 -0.875002 582.752 -0.04179 578.939 1.64826L579.749 3.47674ZM591.844 1.125C596.481 1.125 600.479 1.91808 603.864 3.47139L604.698 1.6536C601 -0.0430889 596.707 -0.875002 591.844 -0.875002V1.125ZM603.866 3.47232C607.283 5.03073 609.903 7.17963 611.768 9.90801L613.419 8.77949C611.326 5.7162 608.405 3.34427 604.696 1.65268L603.866 3.47232ZM611.768 9.90801C613.627 12.6281 614.597 15.7881 614.656 19.4226L616.656 19.3899C616.591 15.3994 615.519 11.851 613.419 8.77949L611.768 9.90801ZM615.656 18.4062H602.688V20.4062H615.656V18.4062ZM625.633 65H624.633V66H625.633V65ZM625.633 0.999998V-1.90735e-06H624.633V0.999998H625.633ZM668.758 0.999998H669.758V-1.90735e-06H668.758V0.999998ZM668.758 12.1562V13.1562H669.758V12.1562H668.758ZM639.164 12.1562V11.1562H638.164V12.1562H639.164ZM639.164 27.4062H638.164V28.4062H639.164V27.4062ZM666.539 27.4062H667.539V26.4062H666.539V27.4062ZM666.539 38.5625V39.5625H667.539V38.5625H666.539ZM639.164 38.5625V37.5625H638.164V38.5625H639.164ZM639.164 53.8438H638.164V54.8438H639.164V53.8438ZM668.883 53.8438H669.883V52.8438H668.883V53.8438ZM668.883 65V66H669.883V65H668.883ZM626.633 65V0.999998H624.633V65H626.633ZM625.633 2H668.758V-1.90735e-06H625.633V2ZM667.758 0.999998V12.1562H669.758V0.999998H667.758ZM668.758 11.1562H639.164V13.1562H668.758V11.1562ZM638.164 12.1562V27.4062H640.164V12.1562H638.164ZM639.164 28.4062H666.539V26.4062H639.164V28.4062ZM665.539 27.4062V38.5625H667.539V27.4062H665.539ZM666.539 37.5625H639.164V39.5625H666.539V37.5625ZM638.164 38.5625V53.8438H640.164V38.5625H638.164ZM639.164 54.8438H668.883V52.8438H639.164V54.8438ZM667.883 53.8438V65H669.883V53.8438H667.883ZM668.883 64H625.633V66H668.883V64ZM679.516 65H678.516V66H679.516V65ZM679.516 0.999998V-1.90735e-06H678.516V0.999998H679.516ZM722.641 0.999998H723.641V-1.90735e-06H722.641V0.999998ZM722.641 12.1562V13.1562H723.641V12.1562H722.641ZM693.047 12.1562V11.1562H692.047V12.1562H693.047ZM693.047 27.4062H692.047V28.4062H693.047V27.4062ZM720.422 27.4062H721.422V26.4062H720.422V27.4062ZM720.422 38.5625V39.5625H721.422V38.5625H720.422ZM693.047 38.5625V37.5625H692.047V38.5625H693.047ZM693.047 53.8438H692.047V54.8438H693.047V53.8438ZM722.766 53.8438H723.766V52.8438H722.766V53.8438ZM722.766 65V66H723.766V65H722.766ZM680.516 65V0.999998H678.516V65H680.516ZM679.516 2H722.641V-1.90735e-06H679.516V2ZM721.641 0.999998V12.1562H723.641V0.999998H721.641ZM722.641 11.1562H693.047V13.1562H722.641V11.1562ZM692.047 12.1562V27.4062H694.047V12.1562H692.047ZM693.047 28.4062H720.422V26.4062H693.047V28.4062ZM719.422 27.4062V38.5625H721.422V27.4062H719.422ZM720.422 37.5625H693.047V39.5625H720.422V37.5625ZM692.047 38.5625V53.8438H694.047V38.5625H692.047ZM693.047 54.8438H722.766V52.8438H693.047V54.8438ZM721.766 53.8438V65H723.766V53.8438H721.766ZM722.766 64H679.516V66H722.766V64ZM733.398 65H732.398V66H733.398V65ZM733.398 0.999998V-1.90735e-06H732.398V0.999998H733.398ZM746.93 0.999998H747.93V-1.90735e-06H746.93V0.999998ZM746.93 29.2188H745.93V30.2188H746.93V29.2188ZM747.773 29.2188V30.2188H748.248L748.548 29.8511L747.773 29.2188ZM770.805 0.999998V-1.90735e-06H770.33L770.03 0.367695L770.805 0.999998ZM787.023 0.999998L787.793 1.63812L789.151 -1.90735e-06H787.023V0.999998ZM763.273 29.6562L762.503 29.0181L762.024 29.5969L762.446 30.2185L763.273 29.6562ZM787.305 65V66H789.194L788.132 64.4377L787.305 65ZM771.117 65L770.285 65.5545L770.582 66H771.117V65ZM753.586 38.6875L754.418 38.133L753.669 37.0084L752.812 38.0538L753.586 38.6875ZM746.93 46.8125L746.156 46.1788L745.93 46.4552V46.8125H746.93ZM746.93 65V66H747.93V65H746.93ZM734.398 65V0.999998H732.398V65H734.398ZM733.398 2H746.93V-1.90735e-06H733.398V2ZM745.93 0.999998V29.2188H747.93V0.999998H745.93ZM746.93 30.2188H747.773V28.2188H746.93V30.2188ZM748.548 29.8511L771.579 1.6323L770.03 0.367695L746.999 28.5864L748.548 29.8511ZM770.805 2H787.023V-1.90735e-06H770.805V2ZM786.253 0.36188L762.503 29.0181L764.043 30.2944L787.793 1.63812L786.253 0.36188ZM762.446 30.2185L786.478 65.5623L788.132 64.4377L764.1 29.094L762.446 30.2185ZM787.305 64H771.117V66H787.305V64ZM771.949 64.4455L754.418 38.133L752.754 39.242L770.285 65.5545L771.949 64.4455ZM752.812 38.0538L746.156 46.1788L747.703 47.4462L754.359 39.3212L752.812 38.0538ZM745.93 46.8125V65H747.93V46.8125H745.93ZM746.93 64H733.398V66H746.93V64ZM4.5625 153H3.5625V154H4.5625V153ZM4.5625 89V88H3.5625V89H4.5625ZM46.9375 89H47.9375V88H46.9375V89ZM46.9375 100.156V101.156H47.9375V100.156H46.9375ZM18.0938 100.156V99.1562H17.0938V100.156H18.0938ZM18.0938 115.406H17.0938V116.406H18.0938V115.406ZM44.125 115.406H45.125V114.406H44.125V115.406ZM44.125 126.562V127.562H45.125V126.562H44.125ZM18.0938 126.562V125.562H17.0938V126.562H18.0938ZM18.0938 153V154H19.0938V153H18.0938ZM5.5625 153V89H3.5625V153H5.5625ZM4.5625 90H46.9375V88H4.5625V90ZM45.9375 89V100.156H47.9375V89H45.9375ZM46.9375 99.1562H18.0938V101.156H46.9375V99.1562ZM17.0938 100.156V115.406H19.0938V100.156H17.0938ZM18.0938 116.406H44.125V114.406H18.0938V116.406ZM43.125 115.406V126.562H45.125V115.406H43.125ZM44.125 125.562H18.0938V127.562H44.125V125.562ZM17.0938 126.562V153H19.0938V126.562H17.0938ZM18.0938 152H4.5625V154H18.0938V152ZM110.883 138.812L110.003 138.337L110.002 138.34L110.883 138.812ZM100.133 150.031L100.626 150.901L100.627 150.9L100.133 150.031ZM69.5703 150L70.0665 149.132L69.5703 150ZM58.8516 138.781L57.9702 139.254L58.8516 138.781ZM58.8516 103.188L59.7329 103.66L58.8516 103.188ZM69.5703 92L70.0634 92.87L70.0665 92.8682L69.5703 92ZM100.133 92L99.6367 92.8683L99.6414 92.8709L100.133 92ZM110.883 103.188L110.001 103.66L110.003 103.663L110.883 103.188ZM99.1016 109.562L98.1827 109.957L98.185 109.962L99.1016 109.562ZM93.4453 102.5L92.8956 103.335L93.4453 102.5ZM76.3203 102.5L76.8701 103.335L76.3203 102.5ZM70.6328 109.562L69.7162 109.163L69.714 109.168L70.6328 109.562ZM70.6328 132.438L69.714 132.832L69.7162 132.837L70.6328 132.438ZM76.3203 139.5L76.8701 138.665L76.3203 139.5ZM93.4453 139.5L92.8956 138.665L93.4453 139.5ZM99.1016 132.438L98.185 132.038L98.1827 132.043L99.1016 132.438ZM113.852 121C113.852 127.855 112.552 133.62 110.003 138.337L111.763 139.288C114.505 134.214 115.852 128.104 115.852 121H113.852ZM110.002 138.34C107.46 143.081 104.006 146.678 99.6384 149.162L100.627 150.9C105.343 148.218 109.056 144.336 111.764 139.285L110.002 138.34ZM99.6397 149.161C95.2821 151.631 90.3712 152.875 84.8828 152.875V154.875C90.6861 154.875 95.9419 153.556 100.626 150.901L99.6397 149.161ZM84.8828 152.875C79.3528 152.875 74.4225 151.621 70.0665 149.132L69.0742 150.868C73.7598 153.546 79.0378 154.875 84.8828 154.875V152.875ZM70.0665 149.132C65.7196 146.648 62.2754 143.051 59.7329 138.309L57.9702 139.254C60.6778 144.304 64.3793 148.185 69.0742 150.868L70.0665 149.132ZM59.7329 138.309C57.2031 133.59 55.9141 127.834 55.9141 121H53.9141C53.9141 128.082 55.2501 134.18 57.9702 139.254L59.7329 138.309ZM55.9141 121C55.9141 114.144 57.2033 108.378 59.7329 103.66L57.9702 102.715C55.2499 107.789 53.9141 113.897 53.9141 121H55.9141ZM59.7329 103.66C62.275 98.9187 65.7184 95.3328 70.0634 92.87L69.0772 91.13C64.3806 93.7922 60.6781 97.6646 57.9702 102.715L59.7329 103.66ZM70.0665 92.8682C74.4225 90.3791 79.3528 89.125 84.8828 89.125V87.125C79.0378 87.125 73.7598 88.4542 69.0742 91.1318L70.0665 92.8682ZM84.8828 89.125C90.3697 89.125 95.2795 90.3785 99.6367 92.8682L100.629 91.1318C95.9444 88.4549 90.6876 87.125 84.8828 87.125V89.125ZM99.6414 92.8709C104.007 95.3341 107.46 98.9199 110.002 103.66L111.764 102.715C109.056 97.6635 105.342 93.7909 100.624 91.1291L99.6414 92.8709ZM110.003 103.663C112.552 108.38 113.852 114.145 113.852 121H115.852C115.852 113.896 114.505 107.786 111.763 102.712L110.003 103.663ZM102.133 121C102.133 116.385 101.442 112.428 100.018 109.163L98.185 109.962C99.469 112.906 100.133 116.573 100.133 121H102.133ZM100.02 109.168C98.6223 105.913 96.6206 103.393 93.9951 101.665L92.8956 103.335C95.145 104.816 96.9142 107.004 98.1827 109.957L100.02 109.168ZM93.9951 101.665C91.3751 99.9404 88.3246 99.0938 84.8828 99.0938V101.094C87.9827 101.094 90.6406 101.851 92.8956 103.335L93.9951 101.665ZM84.8828 99.0938C81.441 99.0938 78.3906 99.9404 75.7706 101.665L76.8701 103.335C79.1251 101.851 81.7829 101.094 84.8828 101.094V99.0938ZM75.7706 101.665C73.1465 103.392 71.1352 105.91 69.7162 109.163L71.5494 109.962C72.8388 107.007 74.6191 104.817 76.8701 103.335L75.7706 101.665ZM69.714 109.168C68.3123 112.431 67.6328 116.387 67.6328 121H69.6328C69.6328 116.571 70.2867 112.902 71.5516 109.957L69.714 109.168ZM67.6328 121C67.6328 125.613 68.3123 129.569 69.714 132.832L71.5516 132.043C70.2867 129.098 69.6328 125.429 69.6328 121H67.6328ZM69.7162 132.837C71.1352 136.09 73.1465 138.608 75.7706 140.335L76.8701 138.665C74.6191 137.183 72.8388 134.993 71.5494 132.038L69.7162 132.837ZM75.7706 140.335C78.3906 142.06 81.441 142.906 84.8828 142.906V140.906C81.7829 140.906 79.1251 140.149 76.8701 138.665L75.7706 140.335ZM84.8828 142.906C88.3246 142.906 91.3751 142.06 93.9951 140.335L92.8956 138.665C90.6406 140.149 87.9827 140.906 84.8828 140.906V142.906ZM93.9951 140.335C96.6206 138.607 98.6223 136.087 100.02 132.832L98.1827 132.043C96.9142 134.996 95.145 137.184 92.8956 138.665L93.9951 140.335ZM100.018 132.837C101.442 129.572 102.133 125.615 102.133 121H100.133C100.133 125.427 99.469 129.094 98.185 132.038L100.018 132.837ZM124.875 153H123.875V154H124.875V153ZM124.875 89V88H123.875V89H124.875ZM162.5 91.5938L162.048 92.486L162.055 92.4893L162.5 91.5938ZM170.344 98.875L169.475 99.3699L169.479 99.3767L170.344 98.875ZM170.312 120.875L171.169 121.391L171.171 121.389L170.312 120.875ZM162.344 127.875L161.921 126.969L161.918 126.97L162.344 127.875ZM132.875 130.312H131.875V131.312H132.875V130.312ZM132.875 119.438V118.438H131.875V119.438H132.875ZM154.031 118.375L154.414 119.299L154.031 118.375ZM157.844 115.188L156.987 114.671L156.982 114.68L157.844 115.188ZM157.844 104.531L156.975 105.027L156.981 105.037L157.844 104.531ZM154 101.219L153.589 102.13L153.595 102.133L153.602 102.136L154 101.219ZM138.406 100.062V99.0625H137.406V100.062H138.406ZM138.406 153V154H139.406V153H138.406ZM159.438 123.875L160.315 123.396L160.031 122.875H159.438V123.875ZM175.344 153V154H177.029L176.221 152.521L175.344 153ZM160.406 153L159.524 153.471L159.807 154H160.406V153ZM144.844 123.875V122.875H143.176L143.962 124.346L144.844 123.875ZM125.875 153V89H123.875V153H125.875ZM124.875 90H150.125V88H124.875V90ZM150.125 90C154.842 90 158.804 90.8438 162.048 92.486L162.952 90.7015C159.363 88.8854 155.075 88 150.125 88V90ZM162.055 92.4893C165.326 94.1148 167.788 96.4074 169.475 99.3699L171.213 98.3801C169.317 95.0509 166.549 92.4894 162.945 90.6982L162.055 92.4893ZM169.479 99.3767C171.189 102.325 172.062 105.823 172.062 109.906H174.062C174.062 105.531 173.124 101.675 171.209 98.3733L169.479 99.3767ZM172.062 109.906C172.062 114.01 171.179 117.481 169.454 120.361L171.171 121.389C173.113 118.144 174.062 114.302 174.062 109.906H172.062ZM169.456 120.359C167.734 123.216 165.235 125.421 161.921 126.969L162.767 128.781C166.411 127.079 169.225 124.617 171.169 121.391L169.456 120.359ZM161.918 126.97C158.626 128.517 154.592 129.312 149.781 129.312V131.312C154.804 131.312 159.145 130.483 162.769 128.78L161.918 126.97ZM149.781 129.312H132.875V131.312H149.781V129.312ZM133.875 130.312V119.438H131.875V130.312H133.875ZM132.875 120.438H147.594V118.438H132.875V120.438ZM147.594 120.438C150.26 120.438 152.547 120.073 154.414 119.299L153.648 117.451C152.099 118.094 150.094 118.438 147.594 118.438V120.438ZM154.414 119.299C156.297 118.518 157.749 117.322 158.706 115.695L156.982 114.68C156.272 115.887 155.182 116.815 153.648 117.451L154.414 119.299ZM158.7 115.704C159.671 114.094 160.125 112.144 160.125 109.906H158.125C158.125 111.877 157.725 113.447 156.987 114.671L158.7 115.704ZM160.125 109.906C160.125 107.649 159.671 105.672 158.707 104.026L156.981 105.037C157.725 106.307 158.125 107.914 158.125 109.906H160.125ZM158.712 104.035C157.759 102.367 156.3 101.126 154.398 100.301L153.602 102.136C155.158 102.811 156.262 103.779 156.976 105.027L158.712 104.035ZM154.411 100.307C152.534 99.46 150.226 99.0625 147.531 99.0625V101.062C150.045 101.062 152.05 101.436 153.589 102.13L154.411 100.307ZM147.531 99.0625H138.406V101.062H147.531V99.0625ZM137.406 100.062V153H139.406V100.062H137.406ZM138.406 152H124.875V154H138.406V152ZM158.56 124.354L174.466 153.479L176.221 152.521L160.315 123.396L158.56 124.354ZM175.344 152H160.406V154H175.344V152ZM161.288 152.529L145.726 123.404L143.962 124.346L159.524 153.471L161.288 152.529ZM144.844 124.875H159.438V122.875H144.844V124.875ZM256.523 89H257.523V88H256.523V89ZM256.523 153V154H257.523V153H256.523ZM244.836 153L244.013 153.569L244.312 154H244.836V153ZM216.992 112.719L217.815 112.15L217.517 111.719H216.992V112.719ZM216.523 112.719V111.719H215.523V112.719H216.523ZM216.523 153V154H217.523V153H216.523ZM202.992 153H201.992V154H202.992V153ZM202.992 89V88H201.992V89H202.992ZM214.867 89L215.692 88.4341L215.394 88H214.867V89ZM242.492 129.25L241.668 129.816L241.966 130.25H242.492V129.25ZM243.055 129.25V130.25H244.055V129.25H243.055ZM243.055 89V88H242.055V89H243.055ZM255.523 89V153H257.523V89H255.523ZM256.523 152H244.836V154H256.523V152ZM245.659 152.431L217.815 112.15L216.17 113.287L244.013 153.569L245.659 152.431ZM216.992 111.719H216.523V113.719H216.992V111.719ZM215.523 112.719V153H217.523V112.719H215.523ZM216.523 152H202.992V154H216.523V152ZM203.992 153V89H201.992V153H203.992ZM202.992 90H214.867V88H202.992V90ZM214.043 89.5659L241.668 129.816L243.317 128.684L215.692 88.4341L214.043 89.5659ZM242.492 130.25H243.055V128.25H242.492V130.25ZM244.055 129.25V89H242.055V129.25H244.055ZM243.055 90H256.523V88H243.055V90ZM267.703 153H266.703V154H267.703V153ZM267.703 89V88H266.703V89H267.703ZM310.828 89H311.828V88H310.828V89ZM310.828 100.156V101.156H311.828V100.156H310.828ZM281.234 100.156V99.1562H280.234V100.156H281.234ZM281.234 115.406H280.234V116.406H281.234V115.406ZM308.609 115.406H309.609V114.406H308.609V115.406ZM308.609 126.562V127.562H309.609V126.562H308.609ZM281.234 126.562V125.562H280.234V126.562H281.234ZM281.234 141.844H280.234V142.844H281.234V141.844ZM310.953 141.844H311.953V140.844H310.953V141.844ZM310.953 153V154H311.953V153H310.953ZM268.703 153V89H266.703V153H268.703ZM267.703 90H310.828V88H267.703V90ZM309.828 89V100.156H311.828V89H309.828ZM310.828 99.1562H281.234V101.156H310.828V99.1562ZM280.234 100.156V115.406H282.234V100.156H280.234ZM281.234 116.406H308.609V114.406H281.234V116.406ZM307.609 115.406V126.562H309.609V115.406H307.609ZM308.609 125.562H281.234V127.562H308.609V125.562ZM280.234 126.562V141.844H282.234V126.562H280.234ZM281.234 142.844H310.953V140.844H281.234V142.844ZM309.953 141.844V153H311.953V141.844H309.953ZM310.953 152H267.703V154H310.953V152ZM335.992 153L335.031 153.275L335.238 154H335.992V153ZM317.68 89V88H316.353L316.718 89.2751L317.68 89ZM332.461 89L333.434 88.7683L333.251 88H332.461V89ZM343.055 133.469L342.082 133.701L342.265 134.469H343.055V133.469ZM343.586 133.469V134.469H344.357L344.553 133.723L343.586 133.469ZM355.273 89V88H354.502L354.306 88.7458L355.273 89ZM367.93 89L368.897 88.7469L368.702 88H367.93V89ZM379.586 133.562L378.618 133.816L378.814 134.562H379.586V133.562ZM380.148 133.562V134.562H380.939L381.121 133.794L380.148 133.562ZM390.742 89V88H389.952L389.769 88.7687L390.742 89ZM405.523 89L406.485 89.2751L406.85 88H405.523V89ZM387.211 153V154H387.965L388.172 153.275L387.211 153ZM374.023 153L373.063 153.28L373.273 154H374.023V153ZM361.836 111.156L362.796 110.877L362.586 110.156H361.836V111.156ZM361.336 111.156V110.156H360.585L360.376 110.877L361.336 111.156ZM349.18 153V154H349.931L350.14 153.279L349.18 153ZM336.954 152.725L318.641 88.7249L316.718 89.2751L335.031 153.275L336.954 152.725ZM317.68 90H332.461V88H317.68V90ZM331.488 89.2317L342.082 133.701L344.027 133.237L333.434 88.7683L331.488 89.2317ZM343.055 134.469H343.586V132.469H343.055V134.469ZM344.553 133.723L356.241 89.2542L354.306 88.7458L342.619 133.215L344.553 133.723ZM355.273 90H367.93V88H355.273V90ZM366.962 89.2531L378.618 133.816L380.553 133.309L368.897 88.7469L366.962 89.2531ZM379.586 134.562H380.148V132.562H379.586V134.562ZM381.121 133.794L391.715 89.2313L389.769 88.7687L379.176 133.331L381.121 133.794ZM390.742 90H405.523V88H390.742V90ZM404.562 88.7249L386.25 152.725L388.172 153.275L406.485 89.2751L404.562 88.7249ZM387.211 152H374.023V154H387.211V152ZM374.984 152.72L362.796 110.877L360.876 111.436L373.063 153.28L374.984 152.72ZM361.836 110.156H361.336V112.156H361.836V110.156ZM360.376 110.877L348.219 152.721L350.14 153.279L362.296 111.435L360.376 110.877ZM349.18 152H335.992V154H349.18V152ZM15.5938 241V242H16.32L16.5447 241.309L15.5938 241ZM1.09375 241L0.14849 240.674L-0.309375 242H1.09375V241ZM23.1875 177V176H22.4748L22.2422 176.674L23.1875 177ZM40.625 177L41.5704 176.674L41.338 176H40.625V177ZM62.6875 241V242H64.09L63.6329 240.674L62.6875 241ZM48.1875 241L47.2364 241.309L47.4608 242H48.1875V241ZM32.1563 191.625L33.1074 191.316L32.883 190.625H32.1563V191.625ZM31.6562 191.625V190.625H30.93L30.7053 191.316L31.6562 191.625ZM14.6875 215.844V214.844H13.6875V215.844H14.6875ZM48.9375 215.844H49.9375V214.844H48.9375V215.844ZM48.9375 226.406V227.406H49.9375V226.406H48.9375ZM14.6875 226.406H13.6875V227.406H14.6875V226.406ZM15.5938 240H1.09375V242H15.5938V240ZM2.03901 241.326L24.1328 177.326L22.2422 176.674L0.14849 240.674L2.03901 241.326ZM23.1875 178H40.625V176H23.1875V178ZM39.6796 177.326L61.7421 241.326L63.6329 240.674L41.5704 176.674L39.6796 177.326ZM62.6875 240H48.1875V242H62.6875V240ZM49.1386 240.691L33.1074 191.316L31.2051 191.934L47.2364 241.309L49.1386 240.691ZM32.1563 190.625H31.6562V192.625H32.1563V190.625ZM30.7053 191.316L14.6428 240.691L16.5447 241.309L32.6072 191.934L30.7053 191.316ZM14.6875 216.844H48.9375V214.844H14.6875V216.844ZM47.9375 215.844V226.406H49.9375V215.844H47.9375ZM48.9375 225.406H14.6875V227.406H48.9375V225.406ZM15.6875 226.406V215.844H13.6875V226.406H15.6875ZM70.3906 241H69.3906V242H70.3906V241ZM70.3906 177V176H69.3906V177H70.3906ZM109.891 180.844L109.408 181.719L109.411 181.721L109.891 180.844ZM120.609 191.812L119.724 192.277L119.725 192.28L120.609 191.812ZM120.609 226.125L119.724 225.659L119.723 225.662L120.609 226.125ZM109.828 237.156L109.348 236.279L109.347 236.28L109.828 237.156ZM83.9219 229.406H82.9219V230.406H83.9219V229.406ZM102.609 227.281L103.07 228.169L103.073 228.167L102.609 227.281ZM108.797 220.625L107.889 220.206L107.888 220.208L108.797 220.625ZM108.797 197.344L107.888 197.76L107.89 197.766L108.797 197.344ZM102.641 190.719L103.101 189.831H103.101L102.641 190.719ZM83.9219 188.594V187.594H82.9219V188.594H83.9219ZM93.0781 240H70.3906V242H93.0781V240ZM71.3906 241V177H69.3906V241H71.3906ZM70.3906 178H93.2656V176H70.3906V178ZM93.2656 178C99.57 178 104.938 179.254 109.408 181.719L110.374 179.968C105.551 177.308 99.8362 176 93.2656 176V178ZM109.411 181.721C113.88 184.166 117.314 187.677 119.724 192.277L121.495 191.348C118.905 186.406 115.193 182.605 110.371 179.966L109.411 181.721ZM119.725 192.28C122.154 196.877 123.391 202.417 123.391 208.938H125.391C125.391 202.166 124.106 196.29 121.494 191.345L119.725 192.28ZM123.391 208.938C123.391 215.479 122.154 221.041 119.724 225.659L121.494 226.591C124.106 221.626 125.391 215.729 125.391 208.938H123.391ZM119.723 225.662C117.313 230.281 113.86 233.812 109.348 236.279L110.308 238.034C115.171 235.375 118.906 231.553 121.496 226.588L119.723 225.662ZM109.347 236.28C104.857 238.745 99.4467 240 93.0781 240V242C99.7095 242 105.466 240.692 110.309 238.033L109.347 236.28ZM83.9219 230.406H92.5156V228.406H83.9219V230.406ZM92.5156 230.406C96.6293 230.406 100.162 229.678 103.07 228.169L102.149 226.394C99.5981 227.718 96.4019 228.406 92.5156 228.406V230.406ZM103.073 228.167C106.032 226.62 108.245 224.23 109.706 221.042L107.888 220.208C106.599 223.02 104.687 225.067 102.146 226.395L103.073 228.167ZM109.705 221.044C111.182 217.848 111.891 213.795 111.891 208.938H109.891C109.891 213.622 109.204 217.36 107.889 220.206L109.705 221.044ZM111.891 208.938C111.891 204.121 111.181 200.098 109.704 196.922L107.89 197.766C109.204 200.589 109.891 204.296 109.891 208.938H111.891ZM109.706 196.927C108.245 193.74 106.043 191.358 103.101 189.831L102.18 191.606C104.696 192.913 106.598 194.947 107.888 197.76L109.706 196.927ZM103.101 189.831C100.194 188.322 96.6606 187.594 92.5469 187.594V189.594C96.4332 189.594 99.6294 190.282 102.18 191.606L103.101 189.831ZM92.5469 187.594H83.9219V189.594H92.5469V187.594ZM82.9219 188.594V229.406H84.9219V188.594H82.9219ZM142.367 177L143.32 176.697L143.098 176H142.367V177ZM157.836 225.625L156.883 225.928L157.105 226.625H157.836V225.625ZM158.43 225.625V226.625H159.16L159.382 225.929L158.43 225.625ZM173.93 177V176H173.199L172.977 176.696L173.93 177ZM188.93 177L189.875 177.326L190.332 176H188.93V177ZM166.867 241V242H167.58L167.813 241.326L166.867 241ZM149.43 241L148.484 241.326L148.717 242H149.43V241ZM127.336 177V176H125.933L126.391 177.326L127.336 177ZM141.414 177.303L156.883 225.928L158.789 225.322L143.32 176.697L141.414 177.303ZM157.836 226.625H158.43V224.625H157.836V226.625ZM159.382 225.929L174.882 177.304L172.977 176.696L157.477 225.321L159.382 225.929ZM173.93 178H188.93V176H173.93V178ZM187.984 176.674L165.922 240.674L167.813 241.326L189.875 177.326L187.984 176.674ZM166.867 240H149.43V242H166.867V240ZM150.375 240.674L128.281 176.674L126.391 177.326L148.484 241.326L150.375 240.674ZM127.336 178H142.367V176H127.336V178ZM196.633 241H195.633V242H196.633V241ZM196.633 177V176H195.633V177H196.633ZM239.758 177H240.758V176H239.758V177ZM239.758 188.156V189.156H240.758V188.156H239.758ZM210.164 188.156V187.156H209.164V188.156H210.164ZM210.164 203.406H209.164V204.406H210.164V203.406ZM237.539 203.406H238.539V202.406H237.539V203.406ZM237.539 214.562V215.562H238.539V214.562H237.539ZM210.164 214.562V213.562H209.164V214.562H210.164ZM210.164 229.844H209.164V230.844H210.164V229.844ZM239.883 229.844H240.883V228.844H239.883V229.844ZM239.883 241V242H240.883V241H239.883ZM197.633 241V177H195.633V241H197.633ZM196.633 178H239.758V176H196.633V178ZM238.758 177V188.156H240.758V177H238.758ZM239.758 187.156H210.164V189.156H239.758V187.156ZM209.164 188.156V203.406H211.164V188.156H209.164ZM210.164 204.406H237.539V202.406H210.164V204.406ZM236.539 203.406V214.562H238.539V203.406H236.539ZM237.539 213.562H210.164V215.562H237.539V213.562ZM209.164 214.562V229.844H211.164V214.562H209.164ZM210.164 230.844H239.883V228.844H210.164V230.844ZM238.883 229.844V241H240.883V229.844H238.883ZM239.883 240H196.633V242H239.883V240ZM304.047 177H305.047V176H304.047V177ZM304.047 241V242H305.047V241H304.047ZM292.359 241L291.537 241.569L291.835 242H292.359V241ZM264.516 200.719L265.338 200.15L265.04 199.719H264.516V200.719ZM264.047 200.719V199.719H263.047V200.719H264.047ZM264.047 241V242H265.047V241H264.047ZM250.516 241H249.516V242H250.516V241ZM250.516 177V176H249.516V177H250.516ZM262.391 177L263.215 176.434L262.917 176H262.391V177ZM290.016 217.25L289.191 217.816L289.489 218.25H290.016V217.25ZM290.578 217.25V218.25H291.578V217.25H290.578ZM290.578 177V176H289.578V177H290.578ZM303.047 177V241H305.047V177H303.047ZM304.047 240H292.359V242H304.047V240ZM293.182 240.431L265.338 200.15L263.693 201.287L291.537 241.569L293.182 240.431ZM264.516 199.719H264.047V201.719H264.516V199.719ZM263.047 200.719V241H265.047V200.719H263.047ZM264.047 240H250.516V242H264.047V240ZM251.516 241V177H249.516V241H251.516ZM250.516 178H262.391V176H250.516V178ZM261.566 177.566L289.191 217.816L290.84 216.684L263.215 176.434L261.566 177.566ZM290.016 218.25H290.578V216.25H290.016V218.25ZM291.578 217.25V177H289.578V217.25H291.578ZM290.578 178H304.047V176H290.578V178ZM312.789 188.156H311.789V189.156H312.789V188.156ZM312.789 177V176H311.789V177H312.789ZM365.352 177H366.352V176H365.352V177ZM365.352 188.156V189.156H366.352V188.156H365.352ZM345.758 188.156V187.156H344.758V188.156H345.758ZM345.758 241V242H346.758V241H345.758ZM332.383 241H331.383V242H332.383V241ZM332.383 188.156H333.383V187.156H332.383V188.156ZM313.789 188.156V177H311.789V188.156H313.789ZM312.789 178H365.352V176H312.789V178ZM364.352 177V188.156H366.352V177H364.352ZM365.352 187.156H345.758V189.156H365.352V187.156ZM344.758 188.156V241H346.758V188.156H344.758ZM345.758 240H332.383V242H345.758V240ZM333.383 241V188.156H331.383V241H333.383ZM332.383 187.156H312.789V189.156H332.383V187.156ZM413.539 177V176H412.539V177H413.539ZM427.07 177H428.07V176H427.07V177ZM423.727 230.812L422.883 230.275L422.881 230.279L423.727 230.812ZM414.445 239L414.883 239.899L414.887 239.897L414.445 239ZM386.602 239L386.16 239.897L386.164 239.899L386.602 239ZM377.32 230.812L376.475 231.346L377.32 230.812ZM374.008 177V176H373.008V177H374.008ZM387.539 177H388.539V176H387.539V177ZM389.133 223.906L388.26 224.395L388.265 224.402L389.133 223.906ZM393.695 228.375L393.211 229.25L393.695 228.375ZM407.383 228.375L406.899 227.5L406.895 227.502L407.383 228.375ZM411.914 223.906L411.046 223.41L411.042 223.417L411.914 223.906ZM413.539 178H427.07V176H413.539V178ZM426.07 177V218.562H428.07V177H426.07ZM426.07 218.562C426.07 223.063 424.998 226.955 422.883 230.275L424.57 231.35C426.914 227.67 428.07 223.395 428.07 218.562H426.07ZM422.881 230.279C420.778 233.611 417.83 236.22 414.004 238.103L414.887 239.897C419.019 237.863 422.258 235.014 424.572 231.346L422.881 230.279ZM414.008 238.101C410.189 239.96 405.708 240.906 400.539 240.906V242.906C405.953 242.906 410.743 241.915 414.883 239.899L414.008 238.101ZM400.539 240.906C395.348 240.906 390.857 239.96 387.039 238.101L386.164 239.899C390.304 241.915 395.105 242.906 400.539 242.906V240.906ZM387.043 238.103C383.217 236.22 380.269 233.611 378.166 230.279L376.475 231.346C378.789 235.014 382.027 237.863 386.16 239.897L387.043 238.103ZM378.166 230.279C376.071 226.958 375.008 223.065 375.008 218.562H373.008C373.008 223.393 374.153 227.667 376.475 231.346L378.166 230.279ZM375.008 218.562V177H373.008V218.562H375.008ZM374.008 178H387.539V176H374.008V178ZM386.539 177V217.406H388.539V177H386.539ZM386.539 217.406C386.539 219.994 387.104 222.332 388.26 224.395L390.005 223.417C389.036 221.688 388.539 219.694 388.539 217.406H386.539ZM388.265 224.402C389.441 226.461 391.097 228.08 393.211 229.25L394.179 227.5C392.377 226.503 390.991 225.143 390.001 223.41L388.265 224.402ZM393.211 229.25C395.34 230.428 397.793 231 400.539 231V229C398.076 229 395.967 228.489 394.179 227.5L393.211 229.25ZM400.539 231C403.304 231 405.759 230.429 407.871 229.248L406.895 227.502C405.132 228.488 403.024 229 400.539 229V231ZM407.867 229.25C409.983 228.079 411.63 226.458 412.786 224.395L411.042 223.417C410.073 225.146 408.699 226.504 406.899 227.5L407.867 229.25ZM412.782 224.402C413.962 222.338 414.539 219.997 414.539 217.406H412.539C412.539 219.69 412.033 221.682 411.046 223.41L412.782 224.402ZM414.539 217.406V177H412.539V217.406H414.539ZM438.203 241H437.203V242H438.203V241ZM438.203 177V176H437.203V177H438.203ZM475.828 179.594L475.377 180.486L475.383 180.489L475.828 179.594ZM483.672 186.875L482.803 187.37L482.807 187.377L483.672 186.875ZM483.641 208.875L484.497 209.391L484.499 209.389L483.641 208.875ZM475.672 215.875L475.249 214.969L475.247 214.97L475.672 215.875ZM446.203 218.312H445.203V219.312H446.203V218.312ZM446.203 207.438V206.438H445.203V207.438H446.203ZM467.359 206.375L467.742 207.299L467.359 206.375ZM471.172 203.188L470.315 202.671L470.31 202.68L471.172 203.188ZM471.172 192.531L470.304 193.027L470.309 193.037L471.172 192.531ZM467.328 189.219L466.917 190.13L466.923 190.133L466.93 190.136L467.328 189.219ZM451.734 188.062V187.062H450.734V188.062H451.734ZM451.734 241V242H452.734V241H451.734ZM472.766 211.875L473.643 211.396L473.359 210.875H472.766V211.875ZM488.672 241V242H490.357L489.55 240.521L488.672 241ZM473.734 241L472.852 241.471L473.135 242H473.734V241ZM458.172 211.875V210.875H456.504L457.29 212.346L458.172 211.875ZM439.203 241V177H437.203V241H439.203ZM438.203 178H463.453V176H438.203V178ZM463.453 178C468.17 178 472.132 178.844 475.377 180.486L476.28 178.702C472.691 176.885 468.403 176 463.453 176V178ZM475.383 180.489C478.654 182.115 481.116 184.407 482.803 187.37L484.541 186.38C482.645 183.051 479.877 180.489 476.273 178.698L475.383 180.489ZM482.807 187.377C484.517 190.325 485.391 193.823 485.391 197.906H487.391C487.391 193.531 486.452 189.675 484.537 186.373L482.807 187.377ZM485.391 197.906C485.391 202.01 484.507 205.481 482.783 208.361L484.499 209.389C486.441 206.144 487.391 202.302 487.391 197.906H485.391ZM482.784 208.359C481.062 211.216 478.563 213.421 475.249 214.969L476.095 216.781C479.739 215.079 482.553 212.617 484.497 209.391L482.784 208.359ZM475.247 214.97C471.954 216.517 467.92 217.312 463.109 217.312V219.312C468.132 219.312 472.473 218.483 476.097 216.78L475.247 214.97ZM463.109 217.312H446.203V219.312H463.109V217.312ZM447.203 218.312V207.438H445.203V218.312H447.203ZM446.203 208.438H460.922V206.438H446.203V208.438ZM460.922 208.438C463.588 208.438 465.875 208.073 467.742 207.299L466.976 205.451C465.427 206.094 463.422 206.438 460.922 206.438V208.438ZM467.742 207.299C469.625 206.518 471.077 205.322 472.034 203.695L470.31 202.68C469.6 203.887 468.51 204.815 466.976 205.451L467.742 207.299ZM472.028 203.704C472.999 202.094 473.453 200.144 473.453 197.906H471.453C471.453 199.877 471.053 201.447 470.315 202.671L472.028 203.704ZM473.453 197.906C473.453 195.649 472.999 193.672 472.035 192.026L470.309 193.037C471.053 194.307 471.453 195.914 471.453 197.906H473.453ZM472.04 192.035C471.087 190.367 469.628 189.126 467.726 188.301L466.93 190.136C468.487 190.811 469.59 191.779 470.304 193.027L472.04 192.035ZM467.739 188.307C465.862 187.46 463.554 187.062 460.859 187.062V189.062C463.373 189.062 465.378 189.436 466.917 190.13L467.739 188.307ZM460.859 187.062H451.734V189.062H460.859V187.062ZM450.734 188.062V241H452.734V188.062H450.734ZM451.734 240H438.203V242H451.734V240ZM471.888 212.354L487.794 241.479L489.55 240.521L473.643 211.396L471.888 212.354ZM488.672 240H473.734V242H488.672V240ZM474.616 240.529L459.054 211.404L457.29 212.346L472.852 241.471L474.616 240.529ZM458.172 212.875H472.766V210.875H458.172V212.875ZM495.953 241H494.953V242H495.953V241ZM495.953 177V176H494.953V177H495.953ZM539.078 177H540.078V176H539.078V177ZM539.078 188.156V189.156H540.078V188.156H539.078ZM509.484 188.156V187.156H508.484V188.156H509.484ZM509.484 203.406H508.484V204.406H509.484V203.406ZM536.859 203.406H537.859V202.406H536.859V203.406ZM536.859 214.562V215.562H537.859V214.562H536.859ZM509.484 214.562V213.562H508.484V214.562H509.484ZM509.484 229.844H508.484V230.844H509.484V229.844ZM539.203 229.844H540.203V228.844H539.203V229.844ZM539.203 241V242H540.203V241H539.203ZM496.953 241V177H494.953V241H496.953ZM495.953 178H539.078V176H495.953V178ZM538.078 177V188.156H540.078V177H538.078ZM539.078 187.156H509.484V189.156H539.078V187.156ZM508.484 188.156V203.406H510.484V188.156H508.484ZM509.484 204.406H536.859V202.406H509.484V204.406ZM535.859 203.406V214.562H537.859V203.406H535.859ZM536.859 213.562H509.484V215.562H536.859V213.562ZM508.484 214.562V229.844H510.484V214.562H508.484ZM509.484 230.844H539.203V228.844H509.484V230.844ZM538.203 229.844V241H540.203V229.844H538.203ZM539.203 240H495.953V242H539.203V240ZM584.555 195.406L583.56 195.505L583.649 196.406H584.555V195.406ZM568.023 188.375L568.393 189.304L568.404 189.3L568.023 188.375ZM564.523 190.906L563.723 190.306L563.716 190.316L564.523 190.906ZM563.336 194.594L564.335 194.63L564.336 194.612V194.594H563.336ZM564.055 197.594L563.201 198.114L563.205 198.122L563.21 198.129L564.055 197.594ZM566.273 199.812L565.719 200.645L565.725 200.649L565.732 200.653L566.273 199.812ZM569.523 201.406L569.174 202.343L569.181 202.346L569.188 202.348L569.523 201.406ZM573.461 202.531L573.694 201.559L573.686 201.557L573.679 201.555L573.461 202.531ZM579.211 203.906L578.978 204.879L578.985 204.881L578.992 204.882L579.211 203.906ZM586.898 206.406L586.491 207.319L586.898 206.406ZM592.961 210.25L593.626 209.503L592.961 210.25ZM596.93 215.625L596.019 216.039L596.023 216.046L596.93 215.625ZM598.398 222.719L599.398 222.724L599.398 222.711L598.398 222.719ZM595.398 232.906L594.575 232.339L594.574 232.34L595.398 232.906ZM586.898 239.562L587.289 240.483L587.291 240.482L586.898 239.562ZM560.055 239.531L559.671 240.455L559.673 240.456L560.055 239.531ZM551.117 232.5L550.29 233.062L550.295 233.069L551.117 232.5ZM547.773 220.906V219.906H546.751L546.774 220.929L547.773 220.906ZM560.867 220.906L561.865 220.838L561.802 219.906H560.867V220.906ZM562.711 226.281L561.912 226.883L561.917 226.89L561.922 226.896L562.711 226.281ZM567.117 229.5L566.748 230.429L566.76 230.434L567.117 229.5ZM579.367 229.562L579.004 228.631L579 228.632L579.367 229.562ZM583.336 226.781L584.121 227.401L583.336 226.781ZM583.461 219.062L582.699 219.711L582.707 219.72L583.461 219.062ZM579.773 216.562L579.38 217.482L579.384 217.483L579.773 216.562ZM573.867 214.688L573.624 215.657L573.633 215.66L573.867 214.688ZM566.898 212.938L567.142 211.968L567.135 211.966L566.898 212.938ZM554.117 206.781L553.451 207.527L554.117 206.781ZM549.461 195.5L550.461 195.504L550.461 195.495L549.461 195.5ZM552.555 185.344L551.746 184.756L551.743 184.76L552.555 185.344ZM561.211 178.562L560.806 177.648L561.211 178.562ZM586.148 178.562L585.731 179.471L585.733 179.472L586.148 178.562ZM594.461 185.344L593.635 185.908L594.461 185.344ZM597.523 195.406V196.406H598.54L598.523 195.39L597.523 195.406ZM585.55 195.308C585.274 192.529 584.072 190.304 581.929 188.726L580.743 190.337C582.392 191.551 583.335 193.242 583.56 195.505L585.55 195.308ZM581.929 188.726C579.807 187.164 577.001 186.438 573.617 186.438V188.438C576.733 188.438 579.074 189.107 580.743 190.337L581.929 188.726ZM573.617 186.438C571.321 186.438 569.318 186.762 567.643 187.45L568.404 189.3C569.77 188.738 571.497 188.438 573.617 188.438V186.438ZM567.654 187.446C565.998 188.104 564.668 189.047 563.723 190.306L565.323 191.506C566.004 190.598 567.007 189.855 568.393 189.304L567.654 187.446ZM563.716 190.316C562.796 191.575 562.336 193.012 562.336 194.594H564.336C564.336 193.425 564.668 192.404 565.331 191.496L563.716 190.316ZM562.337 194.557C562.289 195.87 562.564 197.069 563.201 198.114L564.909 197.073C564.504 196.41 564.3 195.609 564.335 194.63L562.337 194.557ZM563.21 198.129C563.835 199.114 564.678 199.951 565.719 200.645L566.828 198.98C565.994 198.424 565.358 197.782 564.899 197.058L563.21 198.129ZM565.732 200.653C566.739 201.302 567.889 201.864 569.174 202.343L569.873 200.469C568.7 200.032 567.683 199.531 566.815 198.972L565.732 200.653ZM569.188 202.348C570.459 202.801 571.811 203.187 573.242 203.507L573.679 201.555C572.319 201.251 571.046 200.887 569.859 200.464L569.188 202.348ZM573.228 203.504L578.978 204.879L579.444 202.934L573.694 201.559L573.228 203.504ZM578.992 204.882C581.727 205.494 584.225 206.308 586.491 207.319L587.306 205.493C584.905 204.421 582.279 203.568 579.429 202.93L578.992 204.882ZM586.491 207.319C588.741 208.324 590.673 209.552 592.296 210.997L593.626 209.503C591.832 207.906 589.722 206.572 587.306 205.493L586.491 207.319ZM592.296 210.997C593.901 212.426 595.14 214.104 596.019 216.039L597.84 215.211C596.844 213.021 595.437 211.116 593.626 209.503L592.296 210.997ZM596.023 216.046C596.911 217.959 597.379 220.178 597.398 222.727L599.398 222.711C599.377 219.926 598.865 217.416 597.837 215.204L596.023 216.046ZM597.398 222.713C597.379 226.455 596.427 229.649 594.575 232.339L596.222 233.473C598.329 230.413 599.377 226.816 599.398 222.724L597.398 222.713ZM594.574 232.34C592.74 235.014 590.069 237.122 586.506 238.643L587.291 240.482C591.145 238.837 594.141 236.507 596.223 233.472L594.574 232.34ZM586.508 238.642C582.975 240.139 578.667 240.906 573.555 240.906V242.906C578.859 242.906 583.447 242.111 587.289 240.483L586.508 238.642ZM573.555 240.906C568.488 240.906 564.123 240.13 560.436 238.607L559.673 240.456C563.653 242.1 568.288 242.906 573.555 242.906V240.906ZM560.438 238.608C556.786 237.091 553.966 234.863 551.94 231.931L550.295 233.069C552.56 236.346 555.699 238.805 559.671 240.455L560.438 238.608ZM551.944 231.938C549.949 229.004 548.874 225.337 548.773 220.884L546.774 220.929C546.881 225.683 548.035 229.746 550.29 233.062L551.944 231.938ZM547.773 221.906H560.867V219.906H547.773V221.906ZM559.87 220.974C560.026 223.275 560.691 225.263 561.912 226.883L563.51 225.679C562.564 224.425 562 222.829 561.865 220.838L559.87 220.974ZM561.922 226.896C563.146 228.466 564.766 229.641 566.748 230.429L567.487 228.571C565.802 227.901 564.484 226.929 563.5 225.667L561.922 226.896ZM566.76 230.434C568.747 231.193 570.964 231.562 573.398 231.562V229.562C571.166 229.562 569.196 229.224 567.474 228.566L566.76 230.434ZM573.398 231.562C575.784 231.562 577.904 231.216 579.735 230.493L579 228.632C577.456 229.243 575.596 229.562 573.398 229.562V231.562ZM579.731 230.494C581.57 229.776 583.052 228.755 584.121 227.401L582.551 226.162C581.745 227.183 580.581 228.015 579.004 228.631L579.731 230.494ZM584.121 227.401C585.201 226.033 585.742 224.449 585.742 222.688H583.742C583.742 224.009 583.346 225.154 582.551 226.162L584.121 227.401ZM585.742 222.688C585.742 221.036 585.245 219.586 584.214 218.405L582.707 219.72C583.385 220.497 583.742 221.464 583.742 222.688H585.742ZM584.222 218.414C583.258 217.281 581.881 216.368 580.163 215.642L579.384 217.483C580.916 218.132 581.997 218.886 582.699 219.711L584.222 218.414ZM580.167 215.643C578.496 214.927 576.471 214.286 574.102 213.715L573.633 215.66C575.93 216.214 577.842 216.823 579.38 217.482L580.167 215.643ZM574.111 213.718L567.142 211.968L566.655 213.907L573.624 215.657L574.111 213.718ZM567.135 211.966C561.849 210.68 557.753 208.688 554.783 206.035L553.451 207.527C556.732 210.458 561.157 212.57 566.662 213.909L567.135 211.966ZM554.783 206.035C551.901 203.46 550.441 199.988 550.461 195.504L548.461 195.496C548.439 200.47 550.084 204.519 553.451 207.527L554.783 206.035ZM550.461 195.495C550.441 191.812 551.417 188.637 553.366 185.928L551.743 184.76C549.525 187.842 548.439 191.438 548.461 195.505L550.461 195.495ZM553.364 185.932C555.352 183.195 558.091 181.039 561.616 179.477L560.806 177.648C556.998 179.336 553.965 181.701 551.746 184.756L553.364 185.932ZM561.616 179.477C565.136 177.917 569.161 177.125 573.711 177.125V175.125C568.927 175.125 564.619 175.958 560.806 177.648L561.616 179.477ZM573.711 177.125C578.348 177.125 582.346 177.918 585.731 179.471L586.565 177.654C582.868 175.957 578.574 175.125 573.711 175.125V177.125ZM585.733 179.472C589.15 181.031 591.771 183.18 593.635 185.908L595.287 184.779C593.193 181.716 590.272 179.344 586.563 177.653L585.733 179.472ZM593.635 185.908C595.494 188.628 596.464 191.788 596.524 195.423L598.523 195.39C598.458 191.399 597.386 187.851 595.287 184.779L593.635 185.908ZM597.523 194.406H584.555V196.406H597.523V194.406ZM609.719 239.625L609.007 240.327L609.012 240.332L609.017 240.337L609.719 239.625ZM609.719 229.062L609.017 228.35L609.012 228.355L609.719 229.062ZM620.281 229.062L619.584 229.779L620.281 229.062ZM621.469 238.094L620.618 237.568L620.615 237.572L621.469 238.094ZM618.75 240.812L619.26 241.673L619.271 241.666L618.75 240.812ZM615.031 240.812C613.234 240.812 611.714 240.188 610.421 238.913L609.017 240.337C610.681 241.978 612.704 242.812 615.031 242.812V240.812ZM610.431 238.923C609.156 237.629 608.531 236.11 608.531 234.312H606.531C606.531 236.64 607.365 238.662 609.007 240.327L610.431 238.923ZM608.531 234.312C608.531 232.539 609.153 231.043 610.426 229.77L609.012 228.355C607.368 229.999 606.531 232.003 606.531 234.312H608.531ZM610.421 229.775C611.714 228.499 613.234 227.875 615.031 227.875V225.875C612.704 225.875 610.681 226.709 609.017 228.35L610.421 229.775ZM615.031 227.875C616.758 227.875 618.261 228.493 619.584 229.779L620.978 228.346C619.301 226.715 617.305 225.875 615.031 225.875V227.875ZM619.584 229.779C620.896 231.055 621.531 232.548 621.531 234.312H623.531C623.531 231.993 622.667 229.987 620.978 228.346L619.584 229.779ZM621.531 234.312C621.531 235.506 621.227 236.584 620.618 237.568L622.319 238.62C623.127 237.312 623.531 235.869 623.531 234.312H621.531ZM620.615 237.572C620.011 238.562 619.218 239.354 618.229 239.959L619.271 241.666C620.532 240.896 621.552 239.876 622.322 238.615L620.615 237.572ZM618.24 239.952C617.275 240.524 616.213 240.812 615.031 240.812V242.812C616.558 242.812 617.975 242.434 619.26 241.673L618.24 239.952Z" fill="black"/>
</svg>
