<svg width="950" height="352" viewBox="0 0 950 352" fill="none" xmlns="http://www.w3.org/2000/svg">
<rect width="950" height="352" fill="#C3C3B7"/>
<g clip-path="url(#clip0_301_44)">
<rect width="1440" height="5285" transform="translate(-72 -4587)" fill="white"/>
<g clip-path="url(#clip1_301_44)">
<rect width="1440" height="778" transform="translate(-72 -80)" fill="#E5E548"/>
<path d="M19.9688 76L19.0073 76.2751L19.2148 77H19.9688V76ZM1.65625 12V11H0.329986L0.694833 12.2751L1.65625 12ZM16.4375 12L17.4103 11.7683L17.2273 11H16.4375V12ZM27.0313 56.4688L26.0585 56.7005L26.2415 57.4688H27.0313V56.4688ZM27.5625 56.4688V57.4688H28.3336L28.5297 56.7229L27.5625 56.4688ZM39.25 12V11H38.4789L38.2828 11.7458L39.25 12ZM51.9062 12L52.8737 11.7469L52.6783 11H51.9062V12ZM63.5625 56.5625L62.5951 56.8156L62.7904 57.5625H63.5625V56.5625ZM64.125 56.5625V57.5625H64.9151L65.0979 56.7938L64.125 56.5625ZM74.7188 12V11H73.9286L73.7459 11.7687L74.7188 12ZM89.5 12L90.4614 12.2751L90.8263 11H89.5V12ZM71.1875 76V77H71.9415L72.1489 76.2751L71.1875 76ZM58 76L57.0399 76.2796L57.2497 77H58V76ZM45.8125 34.1562L46.7726 33.8766L46.5628 33.1562H45.8125V34.1562ZM45.3125 34.1562V33.1562H44.5617L44.3522 33.8773L45.3125 34.1562ZM33.1563 76V77H33.9071L34.1166 76.279L33.1563 76ZM20.9302 75.7249L2.61767 11.7249L0.694833 12.2751L19.0073 76.2751L20.9302 75.7249ZM1.65625 13H16.4375V11H1.65625V13ZM15.4647 12.2317L26.0585 56.7005L28.004 56.237L17.4103 11.7683L15.4647 12.2317ZM27.0313 57.4688H27.5625V55.4688H27.0313V57.4688ZM28.5297 56.7229L40.2172 12.2542L38.2828 11.7458L26.5953 56.2146L28.5297 56.7229ZM39.25 13H51.9062V11H39.25V13ZM50.9388 12.2531L62.5951 56.8156L64.53 56.3094L52.8737 11.7469L50.9388 12.2531ZM63.5625 57.5625H64.125V55.5625H63.5625V57.5625ZM65.0979 56.7938L75.6916 12.2313L73.7459 11.7687L63.1521 56.3312L65.0979 56.7938ZM74.7188 13H89.5V11H74.7188V13ZM88.5386 11.7249L70.2261 75.7249L72.1489 76.2751L90.4614 12.2751L88.5386 11.7249ZM71.1875 75H58V77H71.1875V75ZM58.9601 75.7204L46.7726 33.8766L44.8524 34.4359L57.0399 76.2796L58.9601 75.7204ZM45.8125 33.1562H45.3125V35.1562H45.8125V33.1562ZM44.3522 33.8773L32.196 75.721L34.1166 76.279L46.2728 34.4352L44.3522 33.8773ZM33.1563 75H19.9688V77H33.1563V75ZM96.7422 76H95.7422V77H96.7422V76ZM96.7422 12V11H95.7422V12H96.7422ZM139.867 12H140.867V11H139.867V12ZM139.867 23.1562V24.1562H140.867V23.1562H139.867ZM110.273 23.1562V22.1562H109.273V23.1562H110.273ZM110.273 38.4062H109.273V39.4062H110.273V38.4062ZM137.648 38.4062H138.648V37.4062H137.648V38.4062ZM137.648 49.5625V50.5625H138.648V49.5625H137.648ZM110.273 49.5625V48.5625H109.273V49.5625H110.273ZM110.273 64.8438H109.273V65.8438H110.273V64.8438ZM139.992 64.8438H140.992V63.8438H139.992V64.8438ZM139.992 76V77H140.992V76H139.992ZM97.7422 76V12H95.7422V76H97.7422ZM96.7422 13H139.867V11H96.7422V13ZM138.867 12V23.1562H140.867V12H138.867ZM139.867 22.1562H110.273V24.1562H139.867V22.1562ZM109.273 23.1562V38.4062H111.273V23.1562H109.273ZM110.273 39.4062H137.648V37.4062H110.273V39.4062ZM136.648 38.4062V49.5625H138.648V38.4062H136.648ZM137.648 48.5625H110.273V50.5625H137.648V48.5625ZM109.273 49.5625V64.8438H111.273V49.5625H109.273ZM110.273 65.8438H139.992V63.8438H110.273V65.8438ZM138.992 64.8438V76H140.992V64.8438H138.992ZM139.992 75H96.7422V77H139.992V75ZM182.023 76V77H182.75L182.974 76.3094L182.023 76ZM167.523 76L166.578 75.6737L166.12 77H167.523V76ZM189.617 12V11H188.904L188.672 11.6737L189.617 12ZM207.055 12L208 11.6741L207.768 11H207.055V12ZM229.117 76V77H230.52L230.063 75.6741L229.117 76ZM214.617 76L213.666 76.3088L213.89 77H214.617V76ZM198.586 26.625L199.537 26.3162L199.313 25.625H198.586V26.625ZM198.086 26.625V25.625H197.36L197.135 26.3156L198.086 26.625ZM181.117 50.8438V49.8438H180.117V50.8438H181.117ZM215.367 50.8438H216.367V49.8438H215.367V50.8438ZM215.367 61.4062V62.4062H216.367V61.4062H215.367ZM181.117 61.4062H180.117V62.4062H181.117V61.4062ZM182.023 75H167.523V77H182.023V75ZM168.469 76.3263L190.562 12.3263L188.672 11.6737L166.578 75.6737L168.469 76.3263ZM189.617 13H207.055V11H189.617V13ZM206.109 12.3259L228.172 76.3259L230.063 75.6741L208 11.6741L206.109 12.3259ZM229.117 75H214.617V77H229.117V75ZM215.568 75.6912L199.537 26.3162L197.635 26.9338L213.666 76.3088L215.568 75.6912ZM198.586 25.625H198.086V27.625H198.586V25.625ZM197.135 26.3156L181.072 75.6906L182.974 76.3094L199.037 26.9344L197.135 26.3156ZM181.117 51.8438H215.367V49.8438H181.117V51.8438ZM214.367 50.8438V61.4062H216.367V50.8438H214.367ZM215.367 60.4062H181.117V62.4062H215.367V60.4062ZM182.117 61.4062V50.8438H180.117V61.4062H182.117ZM236.82 76H235.82V77H236.82V76ZM236.82 12V11H235.82V12H236.82ZM250.352 12H251.352V11H250.352V12ZM250.352 64.8438H249.352V65.8438H250.352V64.8438ZM277.789 64.8438H278.789V63.8438H277.789V64.8438ZM277.789 76V77H278.789V76H277.789ZM237.82 76V12H235.82V76H237.82ZM236.82 13H250.352V11H236.82V13ZM249.352 12V64.8438H251.352V12H249.352ZM250.352 65.8438H277.789V63.8438H250.352V65.8438ZM276.789 64.8438V76H278.789V64.8438H276.789ZM277.789 75H236.82V77H277.789V75ZM297.547 76L296.585 76.2751L296.793 77H297.547V76ZM279.234 12V11H277.908L278.273 12.2751L279.234 12ZM294.016 12L294.988 11.7683L294.805 11H294.016V12ZM304.609 56.4688L303.637 56.7005L303.82 57.4688H304.609V56.4688ZM305.141 56.4688V57.4688H305.912L306.108 56.7229L305.141 56.4688ZM316.828 12V11H316.057L315.861 11.7458L316.828 12ZM329.484 12L330.452 11.7469L330.256 11H329.484V12ZM341.141 56.5625L340.173 56.8156L340.369 57.5625H341.141V56.5625ZM341.703 56.5625V57.5625H342.493L342.676 56.7938L341.703 56.5625ZM352.297 12V11H351.507L351.324 11.7687L352.297 12ZM367.078 12L368.04 12.2751L368.404 11H367.078V12ZM348.766 76V77H349.52L349.727 76.2751L348.766 76ZM335.578 76L334.618 76.2796L334.828 77H335.578V76ZM323.391 34.1562L324.351 33.8766L324.141 33.1562H323.391V34.1562ZM322.891 34.1562V33.1562H322.14L321.93 33.8773L322.891 34.1562ZM310.734 76V77H311.485L311.695 76.279L310.734 76ZM298.508 75.7249L280.196 11.7249L278.273 12.2751L296.585 76.2751L298.508 75.7249ZM279.234 13H294.016V11H279.234V13ZM293.043 12.2317L303.637 56.7005L305.582 56.237L294.988 11.7683L293.043 12.2317ZM304.609 57.4688H305.141V55.4688H304.609V57.4688ZM306.108 56.7229L317.795 12.2542L315.861 11.7458L304.173 56.2146L306.108 56.7229ZM316.828 13H329.484V11H316.828V13ZM328.517 12.2531L340.173 56.8156L342.108 56.3094L330.452 11.7469L328.517 12.2531ZM341.141 57.5625H341.703V55.5625H341.141V57.5625ZM342.676 56.7938L353.27 12.2313L351.324 11.7687L340.73 56.3312L342.676 56.7938ZM352.297 13H367.078V11H352.297V13ZM366.117 11.7249L347.804 75.7249L349.727 76.2751L368.04 12.2751L366.117 11.7249ZM348.766 75H335.578V77H348.766V75ZM336.538 75.7204L324.351 33.8766L322.431 34.4359L334.618 76.2796L336.538 75.7204ZM323.391 33.1562H322.891V35.1562H323.391V33.1562ZM321.93 33.8773L309.774 75.721L311.695 76.279L323.851 34.4352L321.93 33.8773ZM310.734 75H297.547V77H310.734V75ZM378.906 76V77H379.633L379.857 76.3094L378.906 76ZM364.406 76L363.461 75.6737L363.003 77H364.406V76ZM386.5 12V11H385.787L385.555 11.6737L386.5 12ZM403.938 12L404.883 11.6741L404.651 11H403.938V12ZM426 76V77H427.402L426.945 75.6741L426 76ZM411.5 76L410.549 76.3088L410.773 77H411.5V76ZM395.469 26.625L396.42 26.3162L396.195 25.625H395.469V26.625ZM394.969 26.625V25.625H394.242L394.018 26.3156L394.969 26.625ZM378 50.8438V49.8438H377V50.8438H378ZM412.25 50.8438H413.25V49.8438H412.25V50.8438ZM412.25 61.4062V62.4062H413.25V61.4062H412.25ZM378 61.4062H377V62.4062H378V61.4062ZM378.906 75H364.406V77H378.906V75ZM365.352 76.3263L387.445 12.3263L385.555 11.6737L363.461 75.6737L365.352 76.3263ZM386.5 13H403.938V11H386.5V13ZM402.992 12.3259L425.055 76.3259L426.945 75.6741L404.883 11.6741L402.992 12.3259ZM426 75H411.5V77H426V75ZM412.451 75.6912L396.42 26.3162L394.518 26.9338L410.549 76.3088L412.451 75.6912ZM395.469 25.625H394.969V27.625H395.469V25.625ZM394.018 26.3156L377.955 75.6906L379.857 76.3094L395.92 26.9344L394.018 26.3156ZM378 51.8438H412.25V49.8438H378V51.8438ZM411.25 50.8438V61.4062H413.25V50.8438H411.25ZM412.25 60.4062H378V62.4062H412.25V60.4062ZM379 61.4062V50.8438H377V61.4062H379ZM423.422 12V11H421.71L422.551 12.4914L423.422 12ZM438.578 12L439.462 11.5321L439.18 11H438.578V12ZM453.172 39.5625L452.288 40.0304L452.57 40.5625H453.172V39.5625ZM453.797 39.5625V40.5625H454.399L454.681 40.0304L453.797 39.5625ZM468.391 12V11H467.789L467.507 11.5321L468.391 12ZM483.547 12L484.418 12.4914L485.259 11H483.547V12ZM460.203 53.375L459.332 52.8836L459.203 53.1124V53.375H460.203ZM460.203 76V77H461.203V76H460.203ZM446.766 76H445.766V77H446.766V76ZM446.766 53.375H447.766V53.1124L447.637 52.8836L446.766 53.375ZM423.422 13H438.578V11H423.422V13ZM437.694 12.4679L452.288 40.0304L454.056 39.0946L439.462 11.5321L437.694 12.4679ZM453.172 40.5625H453.797V38.5625H453.172V40.5625ZM454.681 40.0304L469.274 12.4679L467.507 11.5321L452.913 39.0946L454.681 40.0304ZM468.391 13H483.547V11H468.391V13ZM482.676 11.5086L459.332 52.8836L461.074 53.8664L484.418 12.4914L482.676 11.5086ZM459.203 53.375V76H461.203V53.375H459.203ZM460.203 75H446.766V77H460.203V75ZM447.766 76V53.375H445.766V76H447.766ZM447.637 52.8836L424.293 11.5086L422.551 12.4914L445.895 53.8664L447.637 52.8836ZM525.656 30.4062L524.661 30.5049L524.751 31.4062H525.656V30.4062ZM509.125 23.375L509.494 24.3044L509.505 24.2999L509.125 23.375ZM505.625 25.9062L504.825 25.3062L504.818 25.3162L505.625 25.9062ZM504.438 29.5938L505.437 29.6301L505.438 29.6119V29.5938H504.438ZM505.156 32.5938L504.302 33.1144L504.307 33.1219L504.312 33.1293L505.156 32.5938ZM507.375 34.8125L506.82 35.6446L506.827 35.6489L506.833 35.6531L507.375 34.8125ZM510.625 36.4062L510.276 37.3432L510.283 37.3458L510.29 37.3484L510.625 36.4062ZM514.562 37.5312L514.795 36.5587L514.788 36.557L514.781 36.5554L514.562 37.5312ZM520.312 38.9062L520.08 39.8788L520.087 39.8805L520.094 39.8821L520.312 38.9062ZM528 41.4062L527.592 42.3194L528 41.4062ZM534.062 45.25L534.727 44.5031L534.062 45.25ZM538.031 50.625L537.121 51.0388L537.124 51.0464L538.031 50.625ZM539.5 57.7188L540.5 57.7241L540.5 57.7109L539.5 57.7188ZM536.5 67.9062L535.676 67.3392L535.675 67.3405L536.5 67.9062ZM528 74.5625L528.39 75.4833L528.393 75.4822L528 74.5625ZM501.156 74.5312L500.773 75.4548L500.774 75.4555L501.156 74.5312ZM492.219 67.5L491.392 68.0623L491.396 68.0686L492.219 67.5ZM488.875 55.9062V54.9062H487.852L487.875 55.9289L488.875 55.9062ZM501.969 55.9062L502.966 55.8384L502.903 54.9062H501.969V55.9062ZM503.812 61.2812L503.014 61.8831L503.019 61.8896L503.024 61.896L503.812 61.2812ZM508.219 64.5L507.849 65.4293L507.862 65.4342L508.219 64.5ZM520.469 64.5625L520.105 63.6309L520.101 63.6324L520.469 64.5625ZM524.438 61.7812L525.222 62.4009L524.438 61.7812ZM524.562 54.0625L523.801 54.7107L523.809 54.7199L524.562 54.0625ZM520.875 51.5625L520.481 52.4817L520.485 52.4835L520.875 51.5625ZM514.969 49.6875L514.725 50.6574L514.734 50.6596L514.969 49.6875ZM508 47.9375L508.244 46.9676L508.236 46.9658L508 47.9375ZM495.219 41.7812L494.553 42.527L495.219 41.7812ZM490.562 30.5L491.563 30.5044L491.562 30.4946L490.562 30.5ZM493.656 20.3438L492.847 19.7559L492.844 19.7598L493.656 20.3438ZM502.312 13.5625L501.907 12.6483L502.312 13.5625ZM527.25 13.5625L526.833 14.4714L526.835 14.4723L527.25 13.5625ZM535.562 20.3438L534.737 20.908L535.562 20.3438ZM538.625 30.4062V31.4062H539.642L539.625 30.3899L538.625 30.4062ZM526.651 30.3076C526.376 27.5289 525.173 25.3036 523.03 23.726L521.845 25.3365C523.494 26.5506 524.437 28.2419 524.661 30.5049L526.651 30.3076ZM523.03 23.726C520.908 22.1635 518.103 21.4375 514.719 21.4375V23.4375C517.835 23.4375 520.175 24.1073 521.845 25.3365L523.03 23.726ZM514.719 21.4375C512.422 21.4375 510.42 21.7617 508.745 22.4501L509.505 24.2999C510.872 23.7383 512.599 23.4375 514.719 23.4375V21.4375ZM508.756 22.4456C507.1 23.1036 505.769 24.0475 504.825 25.3062L506.425 26.5062C507.106 25.5983 508.109 24.8547 509.494 24.3044L508.756 22.4456ZM504.818 25.3162C503.897 26.5753 503.438 28.0123 503.438 29.5938H505.438C505.438 28.4252 505.769 27.4038 506.432 26.4963L504.818 25.3162ZM503.438 29.5574C503.39 30.8697 503.665 32.0693 504.302 33.1144L506.01 32.0731C505.606 31.4098 505.401 30.6094 505.437 29.6301L503.438 29.5574ZM504.312 33.1293C504.936 34.1143 505.78 34.9509 506.82 35.6446L507.93 33.9804C507.095 33.4241 506.459 32.7816 506.001 32.0582L504.312 33.1293ZM506.833 35.6531C507.841 36.3023 508.991 36.864 510.276 37.3432L510.974 35.4693C509.801 35.0318 508.784 34.531 507.917 33.9719L506.833 35.6531ZM510.29 37.3484C511.561 37.8007 512.912 38.1866 514.344 38.5071L514.781 36.5554C513.421 36.2509 512.148 35.8868 510.96 35.4641L510.29 37.3484ZM514.33 38.5038L520.08 39.8788L520.545 37.9337L514.795 36.5587L514.33 38.5038ZM520.094 39.8821C522.828 40.4942 525.327 41.3079 527.592 42.3194L528.408 40.4931C526.007 39.4213 523.38 38.5683 520.531 37.9304L520.094 39.8821ZM527.592 42.3194C529.843 43.324 531.774 44.5518 533.398 45.9969L534.727 44.5031C532.934 42.9065 530.824 41.5718 528.408 40.4931L527.592 42.3194ZM533.398 45.9969C535.003 47.4259 536.242 49.1045 537.121 51.0388L538.942 50.2112C537.946 48.0205 536.539 46.1157 534.727 44.5031L533.398 45.9969ZM537.124 51.0464C538.013 52.9588 538.48 55.1784 538.5 57.7266L540.5 57.7109C540.478 54.9258 539.966 52.4162 538.938 50.2036L537.124 51.0464ZM538.5 57.7134C538.48 61.4549 537.528 64.6493 535.676 67.3392L537.324 68.4733C539.43 65.4132 540.478 61.816 540.5 57.7241L538.5 57.7134ZM535.675 67.3405C533.841 70.0137 531.17 72.1215 527.607 73.6428L528.393 75.4822C532.246 73.8368 535.242 71.5072 537.325 68.472L535.675 67.3405ZM527.61 73.6417C524.077 75.1388 519.769 75.9062 514.656 75.9062V77.9062C519.96 77.9062 524.548 77.1112 528.39 75.4833L527.61 73.6417ZM514.656 75.9062C509.589 75.9062 505.224 75.1297 501.538 73.607L500.774 75.4555C504.755 77.0995 509.39 77.9062 514.656 77.9062V75.9062ZM501.54 73.6077C497.887 72.0909 495.068 69.8628 493.041 66.9314L491.396 68.0686C493.661 71.3456 496.8 73.805 500.773 75.4548L501.54 73.6077ZM493.046 66.9377C491.051 64.004 489.975 60.3374 489.875 55.8836L487.875 55.9289C487.983 60.6834 489.137 64.746 491.392 68.0623L493.046 66.9377ZM488.875 56.9062H501.969V54.9062H488.875V56.9062ZM500.971 55.9741C501.127 58.2752 501.793 60.2627 503.014 61.8831L504.611 60.6794C503.666 59.4248 503.102 57.829 502.966 55.8384L500.971 55.9741ZM503.024 61.896C504.248 63.4664 505.867 64.641 507.849 65.4292L508.588 63.5708C506.903 62.9007 505.586 61.9294 504.601 60.6665L503.024 61.896ZM507.862 65.4342C509.848 66.1929 512.066 66.5625 514.5 66.5625V64.5625C512.268 64.5625 510.298 64.2237 508.576 63.5658L507.862 65.4342ZM514.5 66.5625C516.886 66.5625 519.005 66.2158 520.836 65.4926L520.101 63.6324C518.557 64.2425 516.698 64.5625 514.5 64.5625V66.5625ZM520.832 65.4941C522.671 64.7765 524.153 63.7549 525.222 62.4009L523.653 61.1616C522.847 62.1826 521.683 63.0152 520.105 63.6309L520.832 65.4941ZM525.222 62.4009C526.302 61.0333 526.844 59.4494 526.844 57.6875H524.844C524.844 59.0089 524.448 60.1542 523.653 61.1616L525.222 62.4009ZM526.844 57.6875C526.844 56.0359 526.346 54.5862 525.316 53.4051L523.809 54.7199C524.487 55.4971 524.844 56.4641 524.844 57.6875H526.844ZM525.324 53.4144C524.359 52.2808 522.983 51.3684 521.265 50.6415L520.485 52.4835C522.017 53.1316 523.099 53.8859 523.801 54.7106L525.324 53.4144ZM521.269 50.6434C519.598 49.9273 517.572 49.2865 515.203 48.7153L514.734 50.6596C517.032 51.2135 518.944 51.8227 520.481 52.4816L521.269 50.6434ZM515.212 48.7176L508.244 46.9676L507.756 48.9074L514.725 50.6574L515.212 48.7176ZM508.236 46.9658C502.95 45.68 498.854 43.6879 495.885 41.0355L494.553 42.527C497.833 45.458 502.258 47.57 507.764 48.9092L508.236 46.9658ZM495.885 41.0355C493.002 38.4603 491.543 34.9882 491.562 30.5044L489.562 30.4956C489.541 35.4701 491.185 39.5189 494.553 42.527L495.885 41.0355ZM491.562 30.4946C491.543 26.8118 492.519 23.637 494.468 20.9277L492.844 19.7598C490.627 22.8422 489.541 26.4382 489.562 30.5054L491.562 30.4946ZM494.465 20.9316C496.454 18.1948 499.192 16.0392 502.718 14.4767L501.907 12.6483C498.099 14.3358 495.067 16.7011 492.847 19.7559L494.465 20.9316ZM502.718 14.4767C506.238 12.9168 510.263 12.125 514.812 12.125V10.125C510.029 10.125 505.721 10.9582 501.907 12.6483L502.718 14.4767ZM514.812 12.125C519.449 12.125 523.448 12.9181 526.833 14.4714L527.667 12.6536C523.969 10.9569 519.676 10.125 514.812 10.125V12.125ZM526.835 14.4723C530.252 16.0307 532.872 18.1796 534.737 20.908L536.388 19.7795C534.294 16.7162 531.373 14.3443 527.665 12.6527L526.835 14.4723ZM534.737 20.908C536.596 23.6281 537.566 26.7881 537.625 30.4226L539.625 30.3899C539.559 26.3994 538.487 22.851 536.388 19.7795L534.737 20.908ZM538.625 29.4062H525.656V31.4062H538.625V29.4062ZM603.688 30.4062L602.692 30.5049L602.782 31.4062H603.688V30.4062ZM587.156 23.375L587.525 24.3044L587.536 24.2999L587.156 23.375ZM583.656 25.9062L582.856 25.3062L582.849 25.3162L583.656 25.9062ZM582.469 29.5938L583.468 29.6301L583.469 29.6119V29.5938H582.469ZM583.188 32.5938L582.334 33.1144L582.338 33.1219L582.343 33.1293L583.188 32.5938ZM585.406 34.8125L584.852 35.6446L584.858 35.6489L584.865 35.6531L585.406 34.8125ZM588.656 36.4062L588.307 37.3432L588.314 37.3458L588.321 37.3484L588.656 36.4062ZM592.594 37.5312L592.826 36.5587L592.819 36.557L592.812 36.5554L592.594 37.5312ZM598.344 38.9062L598.111 39.8788L598.118 39.8805L598.125 39.8821L598.344 38.9062ZM606.031 41.4062L605.624 42.3194L606.031 41.4062ZM612.094 45.25L612.759 44.5031L612.094 45.25ZM616.062 50.625L615.152 51.0388L615.156 51.0464L616.062 50.625ZM617.531 57.7188L618.531 57.7241L618.531 57.7109L617.531 57.7188ZM614.531 67.9062L613.708 67.3392L613.707 67.3405L614.531 67.9062ZM606.031 74.5625L606.421 75.4833L606.424 75.4822L606.031 74.5625ZM579.188 74.5312L578.804 75.4548L578.806 75.4555L579.188 74.5312ZM570.25 67.5L569.423 68.0623L569.427 68.0686L570.25 67.5ZM566.906 55.9062V54.9062H565.883L565.906 55.9289L566.906 55.9062ZM580 55.9062L580.998 55.8384L580.934 54.9062H580V55.9062ZM581.844 61.2812L581.045 61.8831L581.05 61.8896L581.055 61.896L581.844 61.2812ZM586.25 64.5L585.88 65.4293L585.893 65.4342L586.25 64.5ZM598.5 64.5625L598.136 63.6309L598.133 63.6324L598.5 64.5625ZM602.469 61.7812L603.254 62.4009L602.469 61.7812ZM602.594 54.0625L601.832 54.7107L601.84 54.7199L602.594 54.0625ZM598.906 51.5625L598.512 52.4817L598.517 52.4835L598.906 51.5625ZM593 49.6875L592.756 50.6574L592.766 50.6596L593 49.6875ZM586.031 47.9375L586.275 46.9676L586.268 46.9658L586.031 47.9375ZM573.25 41.7812L572.584 42.527L573.25 41.7812ZM568.594 30.5L569.594 30.5044L569.594 30.4946L568.594 30.5ZM571.688 20.3438L570.878 19.7559L570.876 19.7598L571.688 20.3438ZM580.344 13.5625L579.939 12.6483L580.344 13.5625ZM605.281 13.5625L604.864 14.4714L604.866 14.4723L605.281 13.5625ZM613.594 20.3438L612.768 20.908L613.594 20.3438ZM616.656 30.4062V31.4062H617.673L617.656 30.3899L616.656 30.4062ZM604.683 30.3076C604.407 27.5289 603.204 25.3036 601.062 23.726L599.876 25.3365C601.525 26.5506 602.468 28.2419 602.692 30.5049L604.683 30.3076ZM601.062 23.726C598.94 22.1635 596.134 21.4375 592.75 21.4375V23.4375C595.866 23.4375 598.206 24.1073 599.876 25.3365L601.062 23.726ZM592.75 21.4375C590.453 21.4375 588.451 21.7617 586.776 22.4501L587.536 24.2999C588.903 23.7383 590.63 23.4375 592.75 23.4375V21.4375ZM586.787 22.4456C585.131 23.1036 583.8 24.0475 582.856 25.3062L584.456 26.5062C585.137 25.5983 586.14 24.8547 587.525 24.3044L586.787 22.4456ZM582.849 25.3162C581.929 26.5753 581.469 28.0123 581.469 29.5938H583.469C583.469 28.4252 583.8 27.4038 584.464 26.4963L582.849 25.3162ZM581.469 29.5574C581.422 30.8697 581.696 32.0693 582.334 33.1144L584.041 32.0731C583.637 31.4098 583.432 30.6094 583.468 29.6301L581.469 29.5574ZM582.343 33.1293C582.968 34.1143 583.811 34.9509 584.852 35.6446L585.961 33.9804C585.126 33.4241 584.491 32.7816 584.032 32.0582L582.343 33.1293ZM584.865 35.6531C585.872 36.3023 587.022 36.864 588.307 37.3432L589.006 35.4693C587.832 35.0318 586.816 34.531 585.948 33.9719L584.865 35.6531ZM588.321 37.3484C589.592 37.8007 590.944 38.1866 592.375 38.5071L592.812 36.5554C591.452 36.2509 590.179 35.8868 588.992 35.4641L588.321 37.3484ZM592.361 38.5038L598.111 39.8788L598.576 37.9337L592.826 36.5587L592.361 38.5038ZM598.125 39.8821C600.86 40.4942 603.358 41.3079 605.624 42.3194L606.439 40.4931C604.038 39.4213 601.411 38.5683 598.562 37.9304L598.125 39.8821ZM605.624 42.3194C607.874 43.324 609.806 44.5518 611.429 45.9969L612.759 44.5031C610.965 42.9065 608.855 41.5718 606.439 40.4931L605.624 42.3194ZM611.429 45.9969C613.034 47.4259 614.273 49.1045 615.152 51.0388L616.973 50.2112C615.977 48.0205 614.57 46.1157 612.759 44.5031L611.429 45.9969ZM615.156 51.0464C616.044 52.9588 616.511 55.1784 616.531 57.7266L618.531 57.7109C618.509 54.9258 617.997 52.4162 616.969 50.2036L615.156 51.0464ZM616.531 57.7134C616.511 61.4549 615.559 64.6493 613.708 67.3392L615.355 68.4733C617.462 65.4132 618.509 61.816 618.531 57.7241L616.531 57.7134ZM613.707 67.3405C611.872 70.0137 609.202 72.1215 605.639 73.6428L606.424 75.4822C610.278 73.8368 613.273 71.5072 615.356 68.472L613.707 67.3405ZM605.641 73.6417C602.108 75.1388 597.8 75.9062 592.688 75.9062V77.9062C597.991 77.9062 602.579 77.1112 606.421 75.4833L605.641 73.6417ZM592.688 75.9062C587.621 75.9062 583.256 75.1297 579.569 73.607L578.806 75.4555C582.786 77.0995 587.421 77.9062 592.688 77.9062V75.9062ZM579.571 73.6077C575.919 72.0909 573.099 69.8628 571.073 66.9314L569.427 68.0686C571.693 71.3456 574.831 73.805 578.804 75.4548L579.571 73.6077ZM571.077 66.9377C569.082 64.004 568.007 60.3374 567.906 55.8836L565.906 55.9289C566.014 60.6834 567.168 64.746 569.423 68.0623L571.077 66.9377ZM566.906 56.9062H580V54.9062H566.906V56.9062ZM579.002 55.9741C579.159 58.2752 579.824 60.2627 581.045 61.8831L582.642 60.6794C581.697 59.4248 581.133 57.829 580.998 55.8384L579.002 55.9741ZM581.055 61.896C582.279 63.4664 583.899 64.641 585.88 65.4292L586.62 63.5708C584.935 62.9007 583.617 61.9294 582.633 60.6665L581.055 61.896ZM585.893 65.4342C587.879 66.1929 590.097 66.5625 592.531 66.5625V64.5625C590.299 64.5625 588.329 64.2237 586.607 63.5658L585.893 65.4342ZM592.531 66.5625C594.917 66.5625 597.037 66.2158 598.867 65.4926L598.133 63.6324C596.588 64.2425 594.729 64.5625 592.531 64.5625V66.5625ZM598.864 65.4941C600.702 64.7765 602.185 63.7549 603.254 62.4009L601.684 61.1616C600.878 62.1826 599.714 63.0152 598.136 63.6309L598.864 65.4941ZM603.254 62.4009C604.333 61.0333 604.875 59.4494 604.875 57.6875H602.875C602.875 59.0089 602.479 60.1542 601.684 61.1616L603.254 62.4009ZM604.875 57.6875C604.875 56.0359 604.378 54.5862 603.347 53.4051L601.84 54.7199C602.518 55.4971 602.875 56.4641 602.875 57.6875H604.875ZM603.355 53.4144C602.391 52.2808 601.014 51.3684 599.296 50.6415L598.517 52.4835C600.049 53.1316 601.13 53.8859 601.832 54.7106L603.355 53.4144ZM599.3 50.6434C597.629 49.9273 595.604 49.2865 593.234 48.7153L592.766 50.6596C595.063 51.2135 596.975 51.8227 598.512 52.4816L599.3 50.6434ZM593.244 48.7176L586.275 46.9676L585.788 48.9074L592.756 50.6574L593.244 48.7176ZM586.268 46.9658C580.981 45.68 576.885 43.6879 573.916 41.0355L572.584 42.527C575.865 45.458 580.289 47.57 585.795 48.9092L586.268 46.9658ZM573.916 41.0355C571.034 38.4603 569.574 34.9882 569.594 30.5044L567.594 30.4956C567.572 35.4701 569.216 39.5189 572.584 42.527L573.916 41.0355ZM569.594 30.4946C569.574 26.8118 570.55 23.637 572.499 20.9277L570.876 19.7598C568.658 22.8422 567.572 26.4382 567.594 30.5054L569.594 30.4946ZM572.496 20.9316C574.485 18.1948 577.223 16.0392 580.749 14.4767L579.939 12.6483C576.131 14.3358 573.098 16.7011 570.879 19.7559L572.496 20.9316ZM580.749 14.4767C584.269 12.9168 588.294 12.125 592.844 12.125V10.125C588.06 10.125 583.752 10.9582 579.939 12.6483L580.749 14.4767ZM592.844 12.125C597.481 12.125 601.479 12.9181 604.864 14.4714L605.698 12.6536C602 10.9569 597.707 10.125 592.844 10.125V12.125ZM604.866 14.4723C608.283 16.0307 610.903 18.1796 612.768 20.908L614.419 19.7795C612.326 16.7162 609.405 14.3443 605.696 12.6527L604.866 14.4723ZM612.768 20.908C614.627 23.6281 615.597 26.7881 615.656 30.4226L617.656 30.3899C617.591 26.3994 616.519 22.851 614.419 19.7795L612.768 20.908ZM616.656 29.4062H603.688V31.4062H616.656V29.4062ZM626.633 76H625.633V77H626.633V76ZM626.633 12V11H625.633V12H626.633ZM669.758 12H670.758V11H669.758V12ZM669.758 23.1562V24.1562H670.758V23.1562H669.758ZM640.164 23.1562V22.1562H639.164V23.1562H640.164ZM640.164 38.4062H639.164V39.4062H640.164V38.4062ZM667.539 38.4062H668.539V37.4062H667.539V38.4062ZM667.539 49.5625V50.5625H668.539V49.5625H667.539ZM640.164 49.5625V48.5625H639.164V49.5625H640.164ZM640.164 64.8438H639.164V65.8438H640.164V64.8438ZM669.883 64.8438H670.883V63.8438H669.883V64.8438ZM669.883 76V77H670.883V76H669.883ZM627.633 76V12H625.633V76H627.633ZM626.633 13H669.758V11H626.633V13ZM668.758 12V23.1562H670.758V12H668.758ZM669.758 22.1562H640.164V24.1562H669.758V22.1562ZM639.164 23.1562V38.4062H641.164V23.1562H639.164ZM640.164 39.4062H667.539V37.4062H640.164V39.4062ZM666.539 38.4062V49.5625H668.539V38.4062H666.539ZM667.539 48.5625H640.164V50.5625H667.539V48.5625ZM639.164 49.5625V64.8438H641.164V49.5625H639.164ZM640.164 65.8438H669.883V63.8438H640.164V65.8438ZM668.883 64.8438V76H670.883V64.8438H668.883ZM669.883 75H626.633V77H669.883V75ZM680.516 76H679.516V77H680.516V76ZM680.516 12V11H679.516V12H680.516ZM723.641 12H724.641V11H723.641V12ZM723.641 23.1562V24.1562H724.641V23.1562H723.641ZM694.047 23.1562V22.1562H693.047V23.1562H694.047ZM694.047 38.4062H693.047V39.4062H694.047V38.4062ZM721.422 38.4062H722.422V37.4062H721.422V38.4062ZM721.422 49.5625V50.5625H722.422V49.5625H721.422ZM694.047 49.5625V48.5625H693.047V49.5625H694.047ZM694.047 64.8438H693.047V65.8438H694.047V64.8438ZM723.766 64.8438H724.766V63.8438H723.766V64.8438ZM723.766 76V77H724.766V76H723.766ZM681.516 76V12H679.516V76H681.516ZM680.516 13H723.641V11H680.516V13ZM722.641 12V23.1562H724.641V12H722.641ZM723.641 22.1562H694.047V24.1562H723.641V22.1562ZM693.047 23.1562V38.4062H695.047V23.1562H693.047ZM694.047 39.4062H721.422V37.4062H694.047V39.4062ZM720.422 38.4062V49.5625H722.422V38.4062H720.422ZM721.422 48.5625H694.047V50.5625H721.422V48.5625ZM693.047 49.5625V64.8438H695.047V49.5625H693.047ZM694.047 65.8438H723.766V63.8438H694.047V65.8438ZM722.766 64.8438V76H724.766V64.8438H722.766ZM723.766 75H680.516V77H723.766V75ZM734.398 76H733.398V77H734.398V76ZM734.398 12V11H733.398V12H734.398ZM747.93 12H748.93V11H747.93V12ZM747.93 40.2188H746.93V41.2188H747.93V40.2188ZM748.773 40.2188V41.2188H749.248L749.548 40.8511L748.773 40.2188ZM771.805 12V11H771.33L771.03 11.3677L771.805 12ZM788.023 12L788.793 12.6381L790.151 11H788.023V12ZM764.273 40.6562L763.503 40.0181L763.024 40.5969L763.446 41.2185L764.273 40.6562ZM788.305 76V77H790.194L789.132 75.4377L788.305 76ZM772.117 76L771.285 76.5545L771.582 77H772.117V76ZM754.586 49.6875L755.418 49.133L754.669 48.0084L753.812 49.0538L754.586 49.6875ZM747.93 57.8125L747.156 57.1788L746.93 57.4552V57.8125H747.93ZM747.93 76V77H748.93V76H747.93ZM735.398 76V12H733.398V76H735.398ZM734.398 13H747.93V11H734.398V13ZM746.93 12V40.2188H748.93V12H746.93ZM747.93 41.2188H748.773V39.2188H747.93V41.2188ZM749.548 40.8511L772.579 12.6323L771.03 11.3677L747.999 39.5864L749.548 40.8511ZM771.805 13H788.023V11H771.805V13ZM787.253 11.3619L763.503 40.0181L765.043 41.2944L788.793 12.6381L787.253 11.3619ZM763.446 41.2185L787.478 76.5623L789.132 75.4377L765.1 40.094L763.446 41.2185ZM788.305 75H772.117V77H788.305V75ZM772.949 75.4455L755.418 49.133L753.754 50.242L771.285 76.5545L772.949 75.4455ZM753.812 49.0538L747.156 57.1788L748.703 58.4462L755.359 50.3212L753.812 49.0538ZM746.93 57.8125V76H748.93V57.8125H746.93ZM747.93 75H734.398V77H747.93V75ZM5.5625 164H4.5625V165H5.5625V164ZM5.5625 100V99H4.5625V100H5.5625ZM47.9375 100H48.9375V99H47.9375V100ZM47.9375 111.156V112.156H48.9375V111.156H47.9375ZM19.0938 111.156V110.156H18.0938V111.156H19.0938ZM19.0938 126.406H18.0938V127.406H19.0938V126.406ZM45.125 126.406H46.125V125.406H45.125V126.406ZM45.125 137.562V138.562H46.125V137.562H45.125ZM19.0938 137.562V136.562H18.0938V137.562H19.0938ZM19.0938 164V165H20.0938V164H19.0938ZM6.5625 164V100H4.5625V164H6.5625ZM5.5625 101H47.9375V99H5.5625V101ZM46.9375 100V111.156H48.9375V100H46.9375ZM47.9375 110.156H19.0938V112.156H47.9375V110.156ZM18.0938 111.156V126.406H20.0938V111.156H18.0938ZM19.0938 127.406H45.125V125.406H19.0938V127.406ZM44.125 126.406V137.562H46.125V126.406H44.125ZM45.125 136.562H19.0938V138.562H45.125V136.562ZM18.0938 137.562V164H20.0938V137.562H18.0938ZM19.0938 163H5.5625V165H19.0938V163ZM111.883 149.812L111.003 149.337L111.002 149.34L111.883 149.812ZM101.133 161.031L101.626 161.901L101.627 161.9L101.133 161.031ZM70.5703 161L71.0665 160.132L70.5703 161ZM59.8516 149.781L58.9702 150.254L59.8516 149.781ZM59.8516 114.188L60.7329 114.66L59.8516 114.188ZM70.5703 103L71.0634 103.87L71.0665 103.868L70.5703 103ZM101.133 103L100.637 103.868L100.641 103.871L101.133 103ZM111.883 114.188L111.001 114.66L111.003 114.663L111.883 114.188ZM100.102 120.562L99.1827 120.957L99.185 120.962L100.102 120.562ZM94.4453 113.5L93.8956 114.335L94.4453 113.5ZM77.3203 113.5L77.8701 114.335L77.3203 113.5ZM71.6328 120.562L70.7162 120.163L70.714 120.168L71.6328 120.562ZM71.6328 143.438L70.714 143.832L70.7162 143.837L71.6328 143.438ZM77.3203 150.5L77.8701 149.665L77.3203 150.5ZM94.4453 150.5L93.8956 149.665L94.4453 150.5ZM100.102 143.438L99.185 143.038L99.1827 143.043L100.102 143.438ZM114.852 132C114.852 138.855 113.552 144.62 111.003 149.337L112.763 150.288C115.505 145.214 116.852 139.104 116.852 132H114.852ZM111.002 149.34C108.46 154.081 105.006 157.678 100.638 160.162L101.627 161.9C106.343 159.218 110.056 155.336 112.764 150.285L111.002 149.34ZM100.64 160.161C96.2821 162.631 91.3712 163.875 85.8828 163.875V165.875C91.6861 165.875 96.9419 164.556 101.626 161.901L100.64 160.161ZM85.8828 163.875C80.3528 163.875 75.4225 162.621 71.0665 160.132L70.0742 161.868C74.7598 164.546 80.0378 165.875 85.8828 165.875V163.875ZM71.0665 160.132C66.7196 157.648 63.2754 154.051 60.7329 149.309L58.9702 150.254C61.6778 155.304 65.3793 159.185 70.0742 161.868L71.0665 160.132ZM60.7329 149.309C58.2031 144.59 56.9141 138.834 56.9141 132H54.9141C54.9141 139.082 56.2501 145.18 58.9702 150.254L60.7329 149.309ZM56.9141 132C56.9141 125.144 58.2033 119.378 60.7329 114.66L58.9702 113.715C56.2499 118.789 54.9141 124.897 54.9141 132H56.9141ZM60.7329 114.66C63.275 109.919 66.7184 106.333 71.0634 103.87L70.0772 102.13C65.3806 104.792 61.6781 108.665 58.9702 113.715L60.7329 114.66ZM71.0665 103.868C75.4225 101.379 80.3528 100.125 85.8828 100.125V98.125C80.0378 98.125 74.7598 99.4542 70.0742 102.132L71.0665 103.868ZM85.8828 100.125C91.3697 100.125 96.2795 101.378 100.637 103.868L101.629 102.132C96.9444 99.4549 91.6876 98.125 85.8828 98.125V100.125ZM100.641 103.871C105.007 106.334 108.46 109.92 111.002 114.66L112.764 113.715C110.056 108.663 106.342 104.791 101.624 102.129L100.641 103.871ZM111.003 114.663C113.552 119.38 114.852 125.145 114.852 132H116.852C116.852 124.896 115.505 118.786 112.763 113.712L111.003 114.663ZM103.133 132C103.133 127.385 102.442 123.428 101.018 120.163L99.185 120.962C100.469 123.906 101.133 127.573 101.133 132H103.133ZM101.02 120.168C99.6223 116.913 97.6206 114.393 94.9951 112.665L93.8956 114.335C96.145 115.816 97.9142 118.004 99.1827 120.957L101.02 120.168ZM94.9951 112.665C92.3751 110.94 89.3246 110.094 85.8828 110.094V112.094C88.9827 112.094 91.6406 112.851 93.8956 114.335L94.9951 112.665ZM85.8828 110.094C82.441 110.094 79.3906 110.94 76.7706 112.665L77.8701 114.335C80.1251 112.851 82.7829 112.094 85.8828 112.094V110.094ZM76.7706 112.665C74.1465 114.392 72.1352 116.91 70.7162 120.163L72.5494 120.962C73.8388 118.007 75.6191 115.817 77.8701 114.335L76.7706 112.665ZM70.714 120.168C69.3123 123.431 68.6328 127.387 68.6328 132H70.6328C70.6328 127.571 71.2867 123.902 72.5516 120.957L70.714 120.168ZM68.6328 132C68.6328 136.613 69.3123 140.569 70.714 143.832L72.5516 143.043C71.2867 140.098 70.6328 136.429 70.6328 132H68.6328ZM70.7162 143.837C72.1352 147.09 74.1465 149.608 76.7706 151.335L77.8701 149.665C75.6191 148.183 73.8388 145.993 72.5494 143.038L70.7162 143.837ZM76.7706 151.335C79.3906 153.06 82.441 153.906 85.8828 153.906V151.906C82.7829 151.906 80.1251 151.149 77.8701 149.665L76.7706 151.335ZM85.8828 153.906C89.3246 153.906 92.3751 153.06 94.9951 151.335L93.8956 149.665C91.6406 151.149 88.9827 151.906 85.8828 151.906V153.906ZM94.9951 151.335C97.6206 149.607 99.6223 147.087 101.02 143.832L99.1827 143.043C97.9142 145.996 96.145 148.184 93.8956 149.665L94.9951 151.335ZM101.018 143.837C102.442 140.572 103.133 136.615 103.133 132H101.133C101.133 136.427 100.469 140.094 99.185 143.038L101.018 143.837ZM125.875 164H124.875V165H125.875V164ZM125.875 100V99H124.875V100H125.875ZM163.5 102.594L163.048 103.486L163.055 103.489L163.5 102.594ZM171.344 109.875L170.475 110.37L170.479 110.377L171.344 109.875ZM171.312 131.875L172.169 132.391L172.171 132.389L171.312 131.875ZM163.344 138.875L162.921 137.969L162.918 137.97L163.344 138.875ZM133.875 141.312H132.875V142.312H133.875V141.312ZM133.875 130.438V129.438H132.875V130.438H133.875ZM155.031 129.375L155.414 130.299L155.031 129.375ZM158.844 126.188L157.987 125.671L157.982 125.68L158.844 126.188ZM158.844 115.531L157.975 116.027L157.981 116.037L158.844 115.531ZM155 112.219L154.589 113.13L154.595 113.133L154.602 113.136L155 112.219ZM139.406 111.062V110.062H138.406V111.062H139.406ZM139.406 164V165H140.406V164H139.406ZM160.438 134.875L161.315 134.396L161.031 133.875H160.438V134.875ZM176.344 164V165H178.029L177.221 163.521L176.344 164ZM161.406 164L160.524 164.471L160.807 165H161.406V164ZM145.844 134.875V133.875H144.176L144.962 135.346L145.844 134.875ZM126.875 164V100H124.875V164H126.875ZM125.875 101H151.125V99H125.875V101ZM151.125 101C155.842 101 159.804 101.844 163.048 103.486L163.952 101.702C160.363 99.8854 156.075 99 151.125 99V101ZM163.055 103.489C166.326 105.115 168.788 107.407 170.475 110.37L172.213 109.38C170.317 106.051 167.549 103.489 163.945 101.698L163.055 103.489ZM170.479 110.377C172.189 113.325 173.062 116.823 173.062 120.906H175.062C175.062 116.531 174.124 112.675 172.209 109.373L170.479 110.377ZM173.062 120.906C173.062 125.01 172.179 128.481 170.454 131.361L172.171 132.389C174.113 129.144 175.062 125.302 175.062 120.906H173.062ZM170.456 131.359C168.734 134.216 166.235 136.421 162.921 137.969L163.767 139.781C167.411 138.079 170.225 135.617 172.169 132.391L170.456 131.359ZM162.918 137.97C159.626 139.517 155.592 140.312 150.781 140.312V142.312C155.804 142.312 160.145 141.483 163.769 139.78L162.918 137.97ZM150.781 140.312H133.875V142.312H150.781V140.312ZM134.875 141.312V130.438H132.875V141.312H134.875ZM133.875 131.438H148.594V129.438H133.875V131.438ZM148.594 131.438C151.26 131.438 153.547 131.073 155.414 130.299L154.648 128.451C153.099 129.094 151.094 129.438 148.594 129.438V131.438ZM155.414 130.299C157.297 129.518 158.749 128.322 159.706 126.695L157.982 125.68C157.272 126.887 156.182 127.815 154.648 128.451L155.414 130.299ZM159.7 126.704C160.671 125.094 161.125 123.144 161.125 120.906H159.125C159.125 122.877 158.725 124.447 157.987 125.671L159.7 126.704ZM161.125 120.906C161.125 118.649 160.671 116.672 159.707 115.026L157.981 116.037C158.725 117.307 159.125 118.914 159.125 120.906H161.125ZM159.712 115.035C158.759 113.367 157.3 112.126 155.398 111.301L154.602 113.136C156.158 113.811 157.262 114.779 157.976 116.027L159.712 115.035ZM155.411 111.307C153.534 110.46 151.226 110.062 148.531 110.062V112.062C151.045 112.062 153.05 112.436 154.589 113.13L155.411 111.307ZM148.531 110.062H139.406V112.062H148.531V110.062ZM138.406 111.062V164H140.406V111.062H138.406ZM139.406 163H125.875V165H139.406V163ZM159.56 135.354L175.466 164.479L177.221 163.521L161.315 134.396L159.56 135.354ZM176.344 163H161.406V165H176.344V163ZM162.288 163.529L146.726 134.404L144.962 135.346L160.524 164.471L162.288 163.529ZM145.844 135.875H160.438V133.875H145.844V135.875ZM257.523 100H258.523V99H257.523V100ZM257.523 164V165H258.523V164H257.523ZM245.836 164L245.013 164.569L245.312 165H245.836V164ZM217.992 123.719L218.815 123.15L218.517 122.719H217.992V123.719ZM217.523 123.719V122.719H216.523V123.719H217.523ZM217.523 164V165H218.523V164H217.523ZM203.992 164H202.992V165H203.992V164ZM203.992 100V99H202.992V100H203.992ZM215.867 100L216.692 99.4341L216.394 99H215.867V100ZM243.492 140.25L242.668 140.816L242.966 141.25H243.492V140.25ZM244.055 140.25V141.25H245.055V140.25H244.055ZM244.055 100V99H243.055V100H244.055ZM256.523 100V164H258.523V100H256.523ZM257.523 163H245.836V165H257.523V163ZM246.659 163.431L218.815 123.15L217.17 124.287L245.013 164.569L246.659 163.431ZM217.992 122.719H217.523V124.719H217.992V122.719ZM216.523 123.719V164H218.523V123.719H216.523ZM217.523 163H203.992V165H217.523V163ZM204.992 164V100H202.992V164H204.992ZM203.992 101H215.867V99H203.992V101ZM215.043 100.566L242.668 140.816L244.317 139.684L216.692 99.4341L215.043 100.566ZM243.492 141.25H244.055V139.25H243.492V141.25ZM245.055 140.25V100H243.055V140.25H245.055ZM244.055 101H257.523V99H244.055V101ZM268.703 164H267.703V165H268.703V164ZM268.703 100V99H267.703V100H268.703ZM311.828 100H312.828V99H311.828V100ZM311.828 111.156V112.156H312.828V111.156H311.828ZM282.234 111.156V110.156H281.234V111.156H282.234ZM282.234 126.406H281.234V127.406H282.234V126.406ZM309.609 126.406H310.609V125.406H309.609V126.406ZM309.609 137.562V138.562H310.609V137.562H309.609ZM282.234 137.562V136.562H281.234V137.562H282.234ZM282.234 152.844H281.234V153.844H282.234V152.844ZM311.953 152.844H312.953V151.844H311.953V152.844ZM311.953 164V165H312.953V164H311.953ZM269.703 164V100H267.703V164H269.703ZM268.703 101H311.828V99H268.703V101ZM310.828 100V111.156H312.828V100H310.828ZM311.828 110.156H282.234V112.156H311.828V110.156ZM281.234 111.156V126.406H283.234V111.156H281.234ZM282.234 127.406H309.609V125.406H282.234V127.406ZM308.609 126.406V137.562H310.609V126.406H308.609ZM309.609 136.562H282.234V138.562H309.609V136.562ZM281.234 137.562V152.844H283.234V137.562H281.234ZM282.234 153.844H311.953V151.844H282.234V153.844ZM310.953 152.844V164H312.953V152.844H310.953ZM311.953 163H268.703V165H311.953V163ZM336.992 164L336.031 164.275L336.238 165H336.992V164ZM318.68 100V99H317.353L317.718 100.275L318.68 100ZM333.461 100L334.434 99.7683L334.251 99H333.461V100ZM344.055 144.469L343.082 144.701L343.265 145.469H344.055V144.469ZM344.586 144.469V145.469H345.357L345.553 144.723L344.586 144.469ZM356.273 100V99H355.502L355.306 99.7458L356.273 100ZM368.93 100L369.897 99.7469L369.702 99H368.93V100ZM380.586 144.562L379.618 144.816L379.814 145.562H380.586V144.562ZM381.148 144.562V145.562H381.939L382.121 144.794L381.148 144.562ZM391.742 100V99H390.952L390.769 99.7687L391.742 100ZM406.523 100L407.485 100.275L407.85 99H406.523V100ZM388.211 164V165H388.965L389.172 164.275L388.211 164ZM375.023 164L374.063 164.28L374.273 165H375.023V164ZM362.836 122.156L363.796 121.877L363.586 121.156H362.836V122.156ZM362.336 122.156V121.156H361.585L361.376 121.877L362.336 122.156ZM350.18 164V165H350.931L351.14 164.279L350.18 164ZM337.954 163.725L319.641 99.7249L317.718 100.275L336.031 164.275L337.954 163.725ZM318.68 101H333.461V99H318.68V101ZM332.488 100.232L343.082 144.701L345.027 144.237L334.434 99.7683L332.488 100.232ZM344.055 145.469H344.586V143.469H344.055V145.469ZM345.553 144.723L357.241 100.254L355.306 99.7458L343.619 144.215L345.553 144.723ZM356.273 101H368.93V99H356.273V101ZM367.962 100.253L379.618 144.816L381.553 144.309L369.897 99.7469L367.962 100.253ZM380.586 145.562H381.148V143.562H380.586V145.562ZM382.121 144.794L392.715 100.231L390.769 99.7687L380.176 144.331L382.121 144.794ZM391.742 101H406.523V99H391.742V101ZM405.562 99.7249L387.25 163.725L389.172 164.275L407.485 100.275L405.562 99.7249ZM388.211 163H375.023V165H388.211V163ZM375.984 163.72L363.796 121.877L361.876 122.436L374.063 164.28L375.984 163.72ZM362.836 121.156H362.336V123.156H362.836V121.156ZM361.376 121.877L349.219 163.721L351.14 164.279L363.296 122.435L361.376 121.877ZM350.18 163H336.992V165H350.18V163ZM16.5938 252V253H17.32L17.5447 252.309L16.5938 252ZM2.09375 252L1.14849 251.674L0.690625 253H2.09375V252ZM24.1875 188V187H23.4748L23.2422 187.674L24.1875 188ZM41.625 188L42.5704 187.674L42.338 187H41.625V188ZM63.6875 252V253H65.09L64.6329 251.674L63.6875 252ZM49.1875 252L48.2364 252.309L48.4608 253H49.1875V252ZM33.1563 202.625L34.1074 202.316L33.883 201.625H33.1563V202.625ZM32.6562 202.625V201.625H31.93L31.7053 202.316L32.6562 202.625ZM15.6875 226.844V225.844H14.6875V226.844H15.6875ZM49.9375 226.844H50.9375V225.844H49.9375V226.844ZM49.9375 237.406V238.406H50.9375V237.406H49.9375ZM15.6875 237.406H14.6875V238.406H15.6875V237.406ZM16.5938 251H2.09375V253H16.5938V251ZM3.03901 252.326L25.1328 188.326L23.2422 187.674L1.14849 251.674L3.03901 252.326ZM24.1875 189H41.625V187H24.1875V189ZM40.6796 188.326L62.7421 252.326L64.6329 251.674L42.5704 187.674L40.6796 188.326ZM63.6875 251H49.1875V253H63.6875V251ZM50.1386 251.691L34.1074 202.316L32.2051 202.934L48.2364 252.309L50.1386 251.691ZM33.1563 201.625H32.6562V203.625H33.1563V201.625ZM31.7053 202.316L15.6428 251.691L17.5447 252.309L33.6072 202.934L31.7053 202.316ZM15.6875 227.844H49.9375V225.844H15.6875V227.844ZM48.9375 226.844V237.406H50.9375V226.844H48.9375ZM49.9375 236.406H15.6875V238.406H49.9375V236.406ZM16.6875 237.406V226.844H14.6875V237.406H16.6875ZM71.3906 252H70.3906V253H71.3906V252ZM71.3906 188V187H70.3906V188H71.3906ZM110.891 191.844L110.408 192.719L110.411 192.721L110.891 191.844ZM121.609 202.812L120.724 203.277L120.725 203.28L121.609 202.812ZM121.609 237.125L120.724 236.659L120.723 236.662L121.609 237.125ZM110.828 248.156L110.348 247.279L110.347 247.28L110.828 248.156ZM84.9219 240.406H83.9219V241.406H84.9219V240.406ZM103.609 238.281L104.07 239.169L104.073 239.167L103.609 238.281ZM109.797 231.625L108.889 231.206L108.888 231.208L109.797 231.625ZM109.797 208.344L108.888 208.76L108.89 208.766L109.797 208.344ZM103.641 201.719L104.101 200.831H104.101L103.641 201.719ZM84.9219 199.594V198.594H83.9219V199.594H84.9219ZM94.0781 251H71.3906V253H94.0781V251ZM72.3906 252V188H70.3906V252H72.3906ZM71.3906 189H94.2656V187H71.3906V189ZM94.2656 189C100.57 189 105.938 190.254 110.408 192.719L111.374 190.968C106.551 188.308 100.836 187 94.2656 187V189ZM110.411 192.721C114.88 195.166 118.314 198.677 120.724 203.277L122.495 202.348C119.905 197.406 116.193 193.605 111.371 190.966L110.411 192.721ZM120.725 203.28C123.154 207.877 124.391 213.417 124.391 219.938H126.391C126.391 213.166 125.106 207.29 122.494 202.345L120.725 203.28ZM124.391 219.938C124.391 226.479 123.154 232.041 120.724 236.659L122.494 237.591C125.106 232.626 126.391 226.729 126.391 219.938H124.391ZM120.723 236.662C118.313 241.281 114.86 244.812 110.348 247.279L111.308 249.034C116.171 246.375 119.906 242.553 122.496 237.588L120.723 236.662ZM110.347 247.28C105.857 249.745 100.447 251 94.0781 251V253C100.71 253 106.466 251.692 111.309 249.033L110.347 247.28ZM84.9219 241.406H93.5156V239.406H84.9219V241.406ZM93.5156 241.406C97.6293 241.406 101.162 240.678 104.07 239.169L103.149 237.394C100.598 238.718 97.4019 239.406 93.5156 239.406V241.406ZM104.073 239.167C107.032 237.62 109.245 235.23 110.706 232.042L108.888 231.208C107.599 234.02 105.687 236.067 103.146 237.395L104.073 239.167ZM110.705 232.044C112.182 228.848 112.891 224.795 112.891 219.938H110.891C110.891 224.622 110.204 228.36 108.889 231.206L110.705 232.044ZM112.891 219.938C112.891 215.121 112.181 211.098 110.704 207.922L108.89 208.766C110.204 211.589 110.891 215.296 110.891 219.938H112.891ZM110.706 207.927C109.245 204.74 107.043 202.358 104.101 200.831L103.18 202.606C105.696 203.913 107.598 205.947 108.888 208.76L110.706 207.927ZM104.101 200.831C101.194 199.322 97.6606 198.594 93.5469 198.594V200.594C97.4332 200.594 100.629 201.282 103.18 202.606L104.101 200.831ZM93.5469 198.594H84.9219V200.594H93.5469V198.594ZM83.9219 199.594V240.406H85.9219V199.594H83.9219ZM143.367 188L144.32 187.697L144.098 187H143.367V188ZM158.836 236.625L157.883 236.928L158.105 237.625H158.836V236.625ZM159.43 236.625V237.625H160.16L160.382 236.929L159.43 236.625ZM174.93 188V187H174.199L173.977 187.696L174.93 188ZM189.93 188L190.875 188.326L191.332 187H189.93V188ZM167.867 252V253H168.58L168.813 252.326L167.867 252ZM150.43 252L149.484 252.326L149.717 253H150.43V252ZM128.336 188V187H126.933L127.391 188.326L128.336 188ZM142.414 188.303L157.883 236.928L159.789 236.322L144.32 187.697L142.414 188.303ZM158.836 237.625H159.43V235.625H158.836V237.625ZM160.382 236.929L175.882 188.304L173.977 187.696L158.477 236.321L160.382 236.929ZM174.93 189H189.93V187H174.93V189ZM188.984 187.674L166.922 251.674L168.813 252.326L190.875 188.326L188.984 187.674ZM167.867 251H150.43V253H167.867V251ZM151.375 251.674L129.281 187.674L127.391 188.326L149.484 252.326L151.375 251.674ZM128.336 189H143.367V187H128.336V189ZM197.633 252H196.633V253H197.633V252ZM197.633 188V187H196.633V188H197.633ZM240.758 188H241.758V187H240.758V188ZM240.758 199.156V200.156H241.758V199.156H240.758ZM211.164 199.156V198.156H210.164V199.156H211.164ZM211.164 214.406H210.164V215.406H211.164V214.406ZM238.539 214.406H239.539V213.406H238.539V214.406ZM238.539 225.562V226.562H239.539V225.562H238.539ZM211.164 225.562V224.562H210.164V225.562H211.164ZM211.164 240.844H210.164V241.844H211.164V240.844ZM240.883 240.844H241.883V239.844H240.883V240.844ZM240.883 252V253H241.883V252H240.883ZM198.633 252V188H196.633V252H198.633ZM197.633 189H240.758V187H197.633V189ZM239.758 188V199.156H241.758V188H239.758ZM240.758 198.156H211.164V200.156H240.758V198.156ZM210.164 199.156V214.406H212.164V199.156H210.164ZM211.164 215.406H238.539V213.406H211.164V215.406ZM237.539 214.406V225.562H239.539V214.406H237.539ZM238.539 224.562H211.164V226.562H238.539V224.562ZM210.164 225.562V240.844H212.164V225.562H210.164ZM211.164 241.844H240.883V239.844H211.164V241.844ZM239.883 240.844V252H241.883V240.844H239.883ZM240.883 251H197.633V253H240.883V251ZM305.047 188H306.047V187H305.047V188ZM305.047 252V253H306.047V252H305.047ZM293.359 252L292.537 252.569L292.835 253H293.359V252ZM265.516 211.719L266.338 211.15L266.04 210.719H265.516V211.719ZM265.047 211.719V210.719H264.047V211.719H265.047ZM265.047 252V253H266.047V252H265.047ZM251.516 252H250.516V253H251.516V252ZM251.516 188V187H250.516V188H251.516ZM263.391 188L264.215 187.434L263.917 187H263.391V188ZM291.016 228.25L290.191 228.816L290.489 229.25H291.016V228.25ZM291.578 228.25V229.25H292.578V228.25H291.578ZM291.578 188V187H290.578V188H291.578ZM304.047 188V252H306.047V188H304.047ZM305.047 251H293.359V253H305.047V251ZM294.182 251.431L266.338 211.15L264.693 212.287L292.537 252.569L294.182 251.431ZM265.516 210.719H265.047V212.719H265.516V210.719ZM264.047 211.719V252H266.047V211.719H264.047ZM265.047 251H251.516V253H265.047V251ZM252.516 252V188H250.516V252H252.516ZM251.516 189H263.391V187H251.516V189ZM262.566 188.566L290.191 228.816L291.84 227.684L264.215 187.434L262.566 188.566ZM291.016 229.25H291.578V227.25H291.016V229.25ZM292.578 228.25V188H290.578V228.25H292.578ZM291.578 189H305.047V187H291.578V189ZM313.789 199.156H312.789V200.156H313.789V199.156ZM313.789 188V187H312.789V188H313.789ZM366.352 188H367.352V187H366.352V188ZM366.352 199.156V200.156H367.352V199.156H366.352ZM346.758 199.156V198.156H345.758V199.156H346.758ZM346.758 252V253H347.758V252H346.758ZM333.383 252H332.383V253H333.383V252ZM333.383 199.156H334.383V198.156H333.383V199.156ZM314.789 199.156V188H312.789V199.156H314.789ZM313.789 189H366.352V187H313.789V189ZM365.352 188V199.156H367.352V188H365.352ZM366.352 198.156H346.758V200.156H366.352V198.156ZM345.758 199.156V252H347.758V199.156H345.758ZM346.758 251H333.383V253H346.758V251ZM334.383 252V199.156H332.383V252H334.383ZM333.383 198.156H313.789V200.156H333.383V198.156ZM414.539 188V187H413.539V188H414.539ZM428.07 188H429.07V187H428.07V188ZM424.727 241.812L423.883 241.275L423.881 241.279L424.727 241.812ZM415.445 250L415.883 250.899L415.887 250.897L415.445 250ZM387.602 250L387.16 250.897L387.164 250.899L387.602 250ZM378.32 241.812L377.475 242.346L378.32 241.812ZM375.008 188V187H374.008V188H375.008ZM388.539 188H389.539V187H388.539V188ZM390.133 234.906L389.26 235.395L389.265 235.402L390.133 234.906ZM394.695 239.375L394.211 240.25L394.695 239.375ZM408.383 239.375L407.899 238.5L407.895 238.502L408.383 239.375ZM412.914 234.906L412.046 234.41L412.042 234.417L412.914 234.906ZM414.539 189H428.07V187H414.539V189ZM427.07 188V229.562H429.07V188H427.07ZM427.07 229.562C427.07 234.063 425.998 237.955 423.883 241.275L425.57 242.35C427.914 238.67 429.07 234.395 429.07 229.562H427.07ZM423.881 241.279C421.778 244.611 418.83 247.22 415.004 249.103L415.887 250.897C420.019 248.863 423.258 246.014 425.572 242.346L423.881 241.279ZM415.008 249.101C411.189 250.96 406.708 251.906 401.539 251.906V253.906C406.953 253.906 411.743 252.915 415.883 250.899L415.008 249.101ZM401.539 251.906C396.348 251.906 391.857 250.96 388.039 249.101L387.164 250.899C391.304 252.915 396.105 253.906 401.539 253.906V251.906ZM388.043 249.103C384.217 247.22 381.269 244.611 379.166 241.279L377.475 242.346C379.789 246.014 383.027 248.863 387.16 250.897L388.043 249.103ZM379.166 241.279C377.071 237.958 376.008 234.065 376.008 229.562H374.008C374.008 234.393 375.153 238.667 377.475 242.346L379.166 241.279ZM376.008 229.562V188H374.008V229.562H376.008ZM375.008 189H388.539V187H375.008V189ZM387.539 188V228.406H389.539V188H387.539ZM387.539 228.406C387.539 230.994 388.104 233.332 389.26 235.395L391.005 234.417C390.036 232.688 389.539 230.694 389.539 228.406H387.539ZM389.265 235.402C390.441 237.461 392.097 239.08 394.211 240.25L395.179 238.5C393.377 237.503 391.991 236.143 391.001 234.41L389.265 235.402ZM394.211 240.25C396.34 241.428 398.793 242 401.539 242V240C399.076 240 396.967 239.489 395.179 238.5L394.211 240.25ZM401.539 242C404.304 242 406.759 241.429 408.871 240.248L407.895 238.502C406.132 239.488 404.024 240 401.539 240V242ZM408.867 240.25C410.983 239.079 412.63 237.458 413.786 235.395L412.042 234.417C411.073 236.146 409.699 237.504 407.899 238.5L408.867 240.25ZM413.782 235.402C414.962 233.338 415.539 230.997 415.539 228.406H413.539C413.539 230.69 413.033 232.682 412.046 234.41L413.782 235.402ZM415.539 228.406V188H413.539V228.406H415.539ZM439.203 252H438.203V253H439.203V252ZM439.203 188V187H438.203V188H439.203ZM476.828 190.594L476.377 191.486L476.383 191.489L476.828 190.594ZM484.672 197.875L483.803 198.37L483.807 198.377L484.672 197.875ZM484.641 219.875L485.497 220.391L485.499 220.389L484.641 219.875ZM476.672 226.875L476.249 225.969L476.247 225.97L476.672 226.875ZM447.203 229.312H446.203V230.312H447.203V229.312ZM447.203 218.438V217.438H446.203V218.438H447.203ZM468.359 217.375L468.742 218.299L468.359 217.375ZM472.172 214.188L471.315 213.671L471.31 213.68L472.172 214.188ZM472.172 203.531L471.304 204.027L471.309 204.037L472.172 203.531ZM468.328 200.219L467.917 201.13L467.923 201.133L467.93 201.136L468.328 200.219ZM452.734 199.062V198.062H451.734V199.062H452.734ZM452.734 252V253H453.734V252H452.734ZM473.766 222.875L474.643 222.396L474.359 221.875H473.766V222.875ZM489.672 252V253H491.357L490.55 251.521L489.672 252ZM474.734 252L473.852 252.471L474.135 253H474.734V252ZM459.172 222.875V221.875H457.504L458.29 223.346L459.172 222.875ZM440.203 252V188H438.203V252H440.203ZM439.203 189H464.453V187H439.203V189ZM464.453 189C469.17 189 473.132 189.844 476.377 191.486L477.28 189.702C473.691 187.885 469.403 187 464.453 187V189ZM476.383 191.489C479.654 193.115 482.116 195.407 483.803 198.37L485.541 197.38C483.645 194.051 480.877 191.489 477.273 189.698L476.383 191.489ZM483.807 198.377C485.517 201.325 486.391 204.823 486.391 208.906H488.391C488.391 204.531 487.452 200.675 485.537 197.373L483.807 198.377ZM486.391 208.906C486.391 213.01 485.507 216.481 483.783 219.361L485.499 220.389C487.441 217.144 488.391 213.302 488.391 208.906H486.391ZM483.784 219.359C482.062 222.216 479.563 224.421 476.249 225.969L477.095 227.781C480.739 226.079 483.553 223.617 485.497 220.391L483.784 219.359ZM476.247 225.97C472.954 227.517 468.92 228.312 464.109 228.312V230.312C469.132 230.312 473.473 229.483 477.097 227.78L476.247 225.97ZM464.109 228.312H447.203V230.312H464.109V228.312ZM448.203 229.312V218.438H446.203V229.312H448.203ZM447.203 219.438H461.922V217.438H447.203V219.438ZM461.922 219.438C464.588 219.438 466.875 219.073 468.742 218.299L467.976 216.451C466.427 217.094 464.422 217.438 461.922 217.438V219.438ZM468.742 218.299C470.625 217.518 472.077 216.322 473.034 214.695L471.31 213.68C470.6 214.887 469.51 215.815 467.976 216.451L468.742 218.299ZM473.028 214.704C473.999 213.094 474.453 211.144 474.453 208.906H472.453C472.453 210.877 472.053 212.447 471.315 213.671L473.028 214.704ZM474.453 208.906C474.453 206.649 473.999 204.672 473.035 203.026L471.309 204.037C472.053 205.307 472.453 206.914 472.453 208.906H474.453ZM473.04 203.035C472.087 201.367 470.628 200.126 468.726 199.301L467.93 201.136C469.487 201.811 470.59 202.779 471.304 204.027L473.04 203.035ZM468.739 199.307C466.862 198.46 464.554 198.062 461.859 198.062V200.062C464.373 200.062 466.378 200.436 467.917 201.13L468.739 199.307ZM461.859 198.062H452.734V200.062H461.859V198.062ZM451.734 199.062V252H453.734V199.062H451.734ZM452.734 251H439.203V253H452.734V251ZM472.888 223.354L488.794 252.479L490.55 251.521L474.643 222.396L472.888 223.354ZM489.672 251H474.734V253H489.672V251ZM475.616 251.529L460.054 222.404L458.29 223.346L473.852 252.471L475.616 251.529ZM459.172 223.875H473.766V221.875H459.172V223.875ZM496.953 252H495.953V253H496.953V252ZM496.953 188V187H495.953V188H496.953ZM540.078 188H541.078V187H540.078V188ZM540.078 199.156V200.156H541.078V199.156H540.078ZM510.484 199.156V198.156H509.484V199.156H510.484ZM510.484 214.406H509.484V215.406H510.484V214.406ZM537.859 214.406H538.859V213.406H537.859V214.406ZM537.859 225.562V226.562H538.859V225.562H537.859ZM510.484 225.562V224.562H509.484V225.562H510.484ZM510.484 240.844H509.484V241.844H510.484V240.844ZM540.203 240.844H541.203V239.844H540.203V240.844ZM540.203 252V253H541.203V252H540.203ZM497.953 252V188H495.953V252H497.953ZM496.953 189H540.078V187H496.953V189ZM539.078 188V199.156H541.078V188H539.078ZM540.078 198.156H510.484V200.156H540.078V198.156ZM509.484 199.156V214.406H511.484V199.156H509.484ZM510.484 215.406H537.859V213.406H510.484V215.406ZM536.859 214.406V225.562H538.859V214.406H536.859ZM537.859 224.562H510.484V226.562H537.859V224.562ZM509.484 225.562V240.844H511.484V225.562H509.484ZM510.484 241.844H540.203V239.844H510.484V241.844ZM539.203 240.844V252H541.203V240.844H539.203ZM540.203 251H496.953V253H540.203V251ZM585.555 206.406L584.56 206.505L584.649 207.406H585.555V206.406ZM569.023 199.375L569.393 200.304L569.404 200.3L569.023 199.375ZM565.523 201.906L564.723 201.306L564.716 201.316L565.523 201.906ZM564.336 205.594L565.335 205.63L565.336 205.612V205.594H564.336ZM565.055 208.594L564.201 209.114L564.205 209.122L564.21 209.129L565.055 208.594ZM567.273 210.812L566.719 211.645L566.725 211.649L566.732 211.653L567.273 210.812ZM570.523 212.406L570.174 213.343L570.181 213.346L570.188 213.348L570.523 212.406ZM574.461 213.531L574.694 212.559L574.686 212.557L574.679 212.555L574.461 213.531ZM580.211 214.906L579.978 215.879L579.985 215.881L579.992 215.882L580.211 214.906ZM587.898 217.406L587.491 218.319L587.898 217.406ZM593.961 221.25L594.626 220.503L593.961 221.25ZM597.93 226.625L597.019 227.039L597.023 227.046L597.93 226.625ZM599.398 233.719L600.398 233.724L600.398 233.711L599.398 233.719ZM596.398 243.906L595.575 243.339L595.574 243.34L596.398 243.906ZM587.898 250.562L588.289 251.483L588.291 251.482L587.898 250.562ZM561.055 250.531L560.671 251.455L560.673 251.456L561.055 250.531ZM552.117 243.5L551.29 244.062L551.295 244.069L552.117 243.5ZM548.773 231.906V230.906H547.751L547.774 231.929L548.773 231.906ZM561.867 231.906L562.865 231.838L562.802 230.906H561.867V231.906ZM563.711 237.281L562.912 237.883L562.917 237.89L562.922 237.896L563.711 237.281ZM568.117 240.5L567.748 241.429L567.76 241.434L568.117 240.5ZM580.367 240.562L580.004 239.631L580 239.632L580.367 240.562ZM584.336 237.781L585.121 238.401L584.336 237.781ZM584.461 230.062L583.699 230.711L583.707 230.72L584.461 230.062ZM580.773 227.562L580.38 228.482L580.384 228.483L580.773 227.562ZM574.867 225.688L574.624 226.657L574.633 226.66L574.867 225.688ZM567.898 223.938L568.142 222.968L568.135 222.966L567.898 223.938ZM555.117 217.781L554.451 218.527L555.117 217.781ZM550.461 206.5L551.461 206.504L551.461 206.495L550.461 206.5ZM553.555 196.344L552.746 195.756L552.743 195.76L553.555 196.344ZM562.211 189.562L561.806 188.648L562.211 189.562ZM587.148 189.562L586.731 190.471L586.733 190.472L587.148 189.562ZM595.461 196.344L594.635 196.908L595.461 196.344ZM598.523 206.406V207.406H599.54L599.523 206.39L598.523 206.406ZM586.55 206.308C586.274 203.529 585.072 201.304 582.929 199.726L581.743 201.337C583.392 202.551 584.335 204.242 584.56 206.505L586.55 206.308ZM582.929 199.726C580.807 198.164 578.001 197.438 574.617 197.438V199.438C577.733 199.438 580.074 200.107 581.743 201.337L582.929 199.726ZM574.617 197.438C572.321 197.438 570.318 197.762 568.643 198.45L569.404 200.3C570.77 199.738 572.497 199.438 574.617 199.438V197.438ZM568.654 198.446C566.998 199.104 565.668 200.047 564.723 201.306L566.323 202.506C567.004 201.598 568.007 200.855 569.393 200.304L568.654 198.446ZM564.716 201.316C563.796 202.575 563.336 204.012 563.336 205.594H565.336C565.336 204.425 565.668 203.404 566.331 202.496L564.716 201.316ZM563.337 205.557C563.289 206.87 563.564 208.069 564.201 209.114L565.909 208.073C565.504 207.41 565.3 206.609 565.335 205.63L563.337 205.557ZM564.21 209.129C564.835 210.114 565.678 210.951 566.719 211.645L567.828 209.98C566.994 209.424 566.358 208.782 565.899 208.058L564.21 209.129ZM566.732 211.653C567.739 212.302 568.889 212.864 570.174 213.343L570.873 211.469C569.7 211.032 568.683 210.531 567.815 209.972L566.732 211.653ZM570.188 213.348C571.459 213.801 572.811 214.187 574.242 214.507L574.679 212.555C573.319 212.251 572.046 211.887 570.859 211.464L570.188 213.348ZM574.228 214.504L579.978 215.879L580.444 213.934L574.694 212.559L574.228 214.504ZM579.992 215.882C582.727 216.494 585.225 217.308 587.491 218.319L588.306 216.493C585.905 215.421 583.279 214.568 580.429 213.93L579.992 215.882ZM587.491 218.319C589.741 219.324 591.673 220.552 593.296 221.997L594.626 220.503C592.832 218.906 590.722 217.572 588.306 216.493L587.491 218.319ZM593.296 221.997C594.901 223.426 596.14 225.104 597.019 227.039L598.84 226.211C597.844 224.021 596.437 222.116 594.626 220.503L593.296 221.997ZM597.023 227.046C597.911 228.959 598.379 231.178 598.398 233.727L600.398 233.711C600.377 230.926 599.865 228.416 598.837 226.204L597.023 227.046ZM598.398 233.713C598.379 237.455 597.427 240.649 595.575 243.339L597.222 244.473C599.329 241.413 600.377 237.816 600.398 233.724L598.398 233.713ZM595.574 243.34C593.74 246.014 591.069 248.122 587.506 249.643L588.291 251.482C592.145 249.837 595.141 247.507 597.223 244.472L595.574 243.34ZM587.508 249.642C583.975 251.139 579.667 251.906 574.555 251.906V253.906C579.859 253.906 584.447 253.111 588.289 251.483L587.508 249.642ZM574.555 251.906C569.488 251.906 565.123 251.13 561.436 249.607L560.673 251.456C564.653 253.1 569.288 253.906 574.555 253.906V251.906ZM561.438 249.608C557.786 248.091 554.966 245.863 552.94 242.931L551.295 244.069C553.56 247.346 556.699 249.805 560.671 251.455L561.438 249.608ZM552.944 242.938C550.949 240.004 549.874 236.337 549.773 231.884L547.774 231.929C547.881 236.683 549.035 240.746 551.29 244.062L552.944 242.938ZM548.773 232.906H561.867V230.906H548.773V232.906ZM560.87 231.974C561.026 234.275 561.691 236.263 562.912 237.883L564.51 236.679C563.564 235.425 563 233.829 562.865 231.838L560.87 231.974ZM562.922 237.896C564.146 239.466 565.766 240.641 567.748 241.429L568.487 239.571C566.802 238.901 565.484 237.929 564.5 236.667L562.922 237.896ZM567.76 241.434C569.747 242.193 571.964 242.562 574.398 242.562V240.562C572.166 240.562 570.196 240.224 568.474 239.566L567.76 241.434ZM574.398 242.562C576.784 242.562 578.904 242.216 580.735 241.493L580 239.632C578.456 240.243 576.596 240.562 574.398 240.562V242.562ZM580.731 241.494C582.57 240.776 584.052 239.755 585.121 238.401L583.551 237.162C582.745 238.183 581.581 239.015 580.004 239.631L580.731 241.494ZM585.121 238.401C586.201 237.033 586.742 235.449 586.742 233.688H584.742C584.742 235.009 584.346 236.154 583.551 237.162L585.121 238.401ZM586.742 233.688C586.742 232.036 586.245 230.586 585.214 229.405L583.707 230.72C584.385 231.497 584.742 232.464 584.742 233.688H586.742ZM585.222 229.414C584.258 228.281 582.881 227.368 581.163 226.642L580.384 228.483C581.916 229.132 582.997 229.886 583.699 230.711L585.222 229.414ZM581.167 226.643C579.496 225.927 577.471 225.286 575.102 224.715L574.633 226.66C576.93 227.214 578.842 227.823 580.38 228.482L581.167 226.643ZM575.111 224.718L568.142 222.968L567.655 224.907L574.624 226.657L575.111 224.718ZM568.135 222.966C562.849 221.68 558.753 219.688 555.783 217.035L554.451 218.527C557.732 221.458 562.157 223.57 567.662 224.909L568.135 222.966ZM555.783 217.035C552.901 214.46 551.441 210.988 551.461 206.504L549.461 206.496C549.439 211.47 551.084 215.519 554.451 218.527L555.783 217.035ZM551.461 206.495C551.441 202.812 552.417 199.637 554.366 196.928L552.743 195.76C550.525 198.842 549.439 202.438 549.461 206.505L551.461 206.495ZM554.364 196.932C556.352 194.195 559.091 192.039 562.616 190.477L561.806 188.648C557.998 190.336 554.965 192.701 552.746 195.756L554.364 196.932ZM562.616 190.477C566.136 188.917 570.161 188.125 574.711 188.125V186.125C569.927 186.125 565.619 186.958 561.806 188.648L562.616 190.477ZM574.711 188.125C579.348 188.125 583.346 188.918 586.731 190.471L587.565 188.654C583.868 186.957 579.574 186.125 574.711 186.125V188.125ZM586.733 190.472C590.15 192.031 592.771 194.18 594.635 196.908L596.287 195.779C594.193 192.716 591.272 190.344 587.563 188.653L586.733 190.472ZM594.635 196.908C596.494 199.628 597.464 202.788 597.524 206.423L599.523 206.39C599.458 202.399 598.386 198.851 596.287 195.779L594.635 196.908ZM598.523 205.406H585.555V207.406H598.523V205.406ZM610.719 250.625L610.007 251.327L610.012 251.332L610.017 251.337L610.719 250.625ZM610.719 240.062L610.017 239.35L610.012 239.355L610.719 240.062ZM621.281 240.062L620.584 240.779L621.281 240.062ZM622.469 249.094L621.618 248.568L621.615 248.572L622.469 249.094ZM619.75 251.812L620.26 252.673L620.271 252.666L619.75 251.812ZM616.031 251.812C614.234 251.812 612.714 251.188 611.421 249.913L610.017 251.337C611.681 252.978 613.704 253.812 616.031 253.812V251.812ZM611.431 249.923C610.156 248.629 609.531 247.11 609.531 245.312H607.531C607.531 247.64 608.365 249.662 610.007 251.327L611.431 249.923ZM609.531 245.312C609.531 243.539 610.153 242.043 611.426 240.77L610.012 239.355C608.368 240.999 607.531 243.003 607.531 245.312H609.531ZM611.421 240.775C612.714 239.499 614.234 238.875 616.031 238.875V236.875C613.704 236.875 611.681 237.709 610.017 239.35L611.421 240.775ZM616.031 238.875C617.758 238.875 619.261 239.493 620.584 240.779L621.978 239.346C620.301 237.715 618.305 236.875 616.031 236.875V238.875ZM620.584 240.779C621.896 242.055 622.531 243.548 622.531 245.312H624.531C624.531 242.993 623.667 240.987 621.978 239.346L620.584 240.779ZM622.531 245.312C622.531 246.506 622.227 247.584 621.618 248.568L623.319 249.62C624.127 248.312 624.531 246.869 624.531 245.312H622.531ZM621.615 248.572C621.011 249.562 620.218 250.354 619.229 250.959L620.271 252.666C621.532 251.896 622.552 250.876 623.322 249.615L621.615 248.572ZM619.24 250.952C618.275 251.524 617.213 251.812 616.031 251.812V253.812C617.558 253.812 618.975 253.434 620.26 252.673L619.24 250.952ZM5.5625 340H4.5625V341H5.5625V340ZM5.5625 276V275H4.5625V276H5.5625ZM19.0938 276H20.0938V275H19.0938V276ZM19.0938 328.844H18.0938V329.844H19.0938V328.844ZM46.5313 328.844H47.5313V327.844H46.5313V328.844ZM46.5313 340V341H47.5313V340H46.5313ZM6.5625 340V276H4.5625V340H6.5625ZM5.5625 277H19.0938V275H5.5625V277ZM18.0938 276V328.844H20.0938V276H18.0938ZM19.0938 329.844H46.5313V327.844H19.0938V329.844ZM45.5313 328.844V340H47.5313V328.844H45.5313ZM46.5313 339H5.5625V341H46.5313V339ZM55.4922 340H54.4922V341H55.4922V340ZM55.4922 276V275H54.4922V276H55.4922ZM98.6172 276H99.6172V275H98.6172V276ZM98.6172 287.156V288.156H99.6172V287.156H98.6172ZM69.0234 287.156V286.156H68.0234V287.156H69.0234ZM69.0234 302.406H68.0234V303.406H69.0234V302.406ZM96.3984 302.406H97.3984V301.406H96.3984V302.406ZM96.3984 313.562V314.562H97.3984V313.562H96.3984ZM69.0234 313.562V312.562H68.0234V313.562H69.0234ZM69.0234 328.844H68.0234V329.844H69.0234V328.844ZM98.7422 328.844H99.7422V327.844H98.7422V328.844ZM98.7422 340V341H99.7422V340H98.7422ZM56.4922 340V276H54.4922V340H56.4922ZM55.4922 277H98.6172V275H55.4922V277ZM97.6172 276V287.156H99.6172V276H97.6172ZM98.6172 286.156H69.0234V288.156H98.6172V286.156ZM68.0234 287.156V302.406H70.0234V287.156H68.0234ZM69.0234 303.406H96.3984V301.406H69.0234V303.406ZM95.3984 302.406V313.562H97.3984V302.406H95.3984ZM96.3984 312.562H69.0234V314.562H96.3984V312.562ZM68.0234 313.562V328.844H70.0234V313.562H68.0234ZM69.0234 329.844H98.7422V327.844H69.0234V329.844ZM97.7422 328.844V340H99.7422V328.844H97.7422ZM98.7422 339H55.4922V341H98.7422V339ZM106.938 287.156H105.938V288.156H106.938V287.156ZM106.938 276V275H105.938V276H106.938ZM159.5 276H160.5V275H159.5V276ZM159.5 287.156V288.156H160.5V287.156H159.5ZM139.906 287.156V286.156H138.906V287.156H139.906ZM139.906 340V341H140.906V340H139.906ZM126.531 340H125.531V341H126.531V340ZM126.531 287.156H127.531V286.156H126.531V287.156ZM107.938 287.156V276H105.938V287.156H107.938ZM106.938 277H159.5V275H106.938V277ZM158.5 276V287.156H160.5V276H158.5ZM159.5 286.156H139.906V288.156H159.5V286.156ZM138.906 287.156V340H140.906V287.156H138.906ZM139.906 339H126.531V341H139.906V339ZM127.531 340V287.156H125.531V340H127.531ZM126.531 286.156H106.938V288.156H126.531V286.156ZM179.062 276H180.062V275H179.062V276ZM177.938 288.625L177.001 288.274L176.999 288.279L177.938 288.625ZM175 294.25L175.818 294.825L175.822 294.82L175 294.25ZM170.969 298.719L170.46 299.58L171.071 299.94L171.613 299.483L170.969 298.719ZM165.094 295.25L164.249 294.715L163.697 295.587L164.585 296.111L165.094 295.25ZM167.844 289.781L166.917 289.405L166.914 289.413L167.844 289.781ZM169.062 276V275H168.062V276H169.062ZM178.062 276V282.75H180.062V276H178.062ZM178.062 282.75C178.062 284.534 177.714 286.373 177.001 288.274L178.874 288.976C179.661 286.877 180.062 284.8 180.062 282.75H178.062ZM176.999 288.279C176.3 290.177 175.36 291.977 174.179 293.68L175.822 294.82C177.098 292.981 178.117 291.031 178.876 288.971L176.999 288.279ZM174.182 293.675C172.996 295.363 171.709 296.787 170.324 297.954L171.613 299.483C173.145 298.192 174.546 296.637 175.818 294.825L174.182 293.675ZM171.477 297.858L165.602 294.389L164.585 296.111L170.46 299.58L171.477 297.858ZM165.939 295.785C167.017 294.081 167.961 292.201 168.774 290.149L166.914 289.413C166.143 291.361 165.254 293.127 164.249 294.715L165.939 295.785ZM168.77 290.158C169.641 288.014 170.062 285.559 170.062 282.812H168.062C168.062 285.358 167.672 287.548 166.917 289.405L168.77 290.158ZM170.062 282.812V276H168.062V282.812H170.062ZM169.062 277H179.062V275H169.062V277ZM222.898 294.406L221.903 294.505L221.993 295.406H222.898V294.406ZM206.367 287.375L206.736 288.304L206.747 288.3L206.367 287.375ZM202.867 289.906L202.067 289.306L202.06 289.316L202.867 289.906ZM201.68 293.594L202.679 293.63L202.68 293.612V293.594H201.68ZM202.398 296.594L201.545 297.114L201.549 297.122L201.554 297.129L202.398 296.594ZM204.617 298.812L204.062 299.645L204.069 299.649L204.075 299.653L204.617 298.812ZM207.867 300.406L207.518 301.343L207.525 301.346L207.532 301.348L207.867 300.406ZM211.805 301.531L212.037 300.559L212.03 300.557L212.023 300.555L211.805 301.531ZM217.555 302.906L217.322 303.879L217.329 303.881L217.336 303.882L217.555 302.906ZM225.242 305.406L224.835 306.319L225.242 305.406ZM231.305 309.25L231.97 308.503L231.305 309.25ZM235.273 314.625L234.363 315.039L234.367 315.046L235.273 314.625ZM236.742 321.719L237.742 321.724L237.742 321.711L236.742 321.719ZM233.742 331.906L232.919 331.339L232.918 331.34L233.742 331.906ZM225.242 338.562L225.632 339.483L225.635 339.482L225.242 338.562ZM198.398 338.531L198.015 339.455L198.017 339.456L198.398 338.531ZM189.461 331.5L188.634 332.062L188.638 332.069L189.461 331.5ZM186.117 319.906V318.906H185.094L185.117 319.929L186.117 319.906ZM199.211 319.906L200.209 319.838L200.145 318.906H199.211V319.906ZM201.055 325.281L200.256 325.883L200.261 325.89L200.266 325.896L201.055 325.281ZM205.461 328.5L205.091 329.429L205.104 329.434L205.461 328.5ZM217.711 328.562L217.347 327.631L217.344 327.632L217.711 328.562ZM221.68 325.781L222.465 326.401L221.68 325.781ZM221.805 318.062L221.043 318.711L221.051 318.72L221.805 318.062ZM218.117 315.562L217.723 316.482L217.728 316.483L218.117 315.562ZM212.211 313.688L211.967 314.657L211.977 314.66L212.211 313.688ZM205.242 311.938L205.486 310.968L205.479 310.966L205.242 311.938ZM192.461 305.781L191.795 306.527L192.461 305.781ZM187.805 294.5L188.805 294.504L188.805 294.495L187.805 294.5ZM190.898 284.344L190.089 283.756L190.087 283.76L190.898 284.344ZM199.555 277.562L199.15 276.648L199.555 277.562ZM224.492 277.562L224.075 278.471L224.077 278.472L224.492 277.562ZM232.805 284.344L231.979 284.908L232.805 284.344ZM235.867 294.406V295.406H236.884L236.867 294.39L235.867 294.406ZM223.894 294.308C223.618 291.529 222.415 289.304 220.273 287.726L219.087 289.337C220.736 290.551 221.679 292.242 221.903 294.505L223.894 294.308ZM220.273 287.726C218.15 286.164 215.345 285.438 211.961 285.438V287.438C215.077 287.438 217.417 288.107 219.087 289.337L220.273 287.726ZM211.961 285.438C209.664 285.438 207.662 285.762 205.987 286.45L206.747 288.3C208.114 287.738 209.841 287.438 211.961 287.438V285.438ZM205.998 286.446C204.342 287.104 203.011 288.047 202.067 289.306L203.667 290.506C204.348 289.598 205.351 288.855 206.736 288.304L205.998 286.446ZM202.06 289.316C201.14 290.575 200.68 292.012 200.68 293.594H202.68C202.68 292.425 203.011 291.404 203.675 290.496L202.06 289.316ZM200.68 293.557C200.633 294.87 200.907 296.069 201.545 297.114L203.252 296.073C202.848 295.41 202.643 294.609 202.679 293.63L200.68 293.557ZM201.554 297.129C202.179 298.114 203.022 298.951 204.062 299.645L205.172 297.98C204.337 297.424 203.702 296.782 203.243 296.058L201.554 297.129ZM204.075 299.653C205.083 300.302 206.233 300.864 207.518 301.343L208.217 299.469C207.043 299.032 206.026 298.531 205.159 297.972L204.075 299.653ZM207.532 301.348C208.803 301.801 210.155 302.187 211.586 302.507L212.023 300.555C210.663 300.251 209.39 299.887 208.203 299.464L207.532 301.348ZM211.572 302.504L217.322 303.879L217.787 301.934L212.037 300.559L211.572 302.504ZM217.336 303.882C220.07 304.494 222.569 305.308 224.835 306.319L225.65 304.493C223.249 303.421 220.622 302.568 217.773 301.93L217.336 303.882ZM224.835 306.319C227.085 307.324 229.017 308.552 230.64 309.997L231.97 308.503C230.176 306.906 228.066 305.572 225.65 304.493L224.835 306.319ZM230.64 309.997C232.245 311.426 233.484 313.104 234.363 315.039L236.184 314.211C235.188 312.021 233.781 310.116 231.97 308.503L230.64 309.997ZM234.367 315.046C235.255 316.959 235.722 319.178 235.742 321.727L237.742 321.711C237.72 318.926 237.208 316.416 236.18 314.204L234.367 315.046ZM235.742 321.713C235.722 325.455 234.77 328.649 232.919 331.339L234.566 332.473C236.672 329.413 237.72 325.816 237.742 321.724L235.742 321.713ZM232.918 331.34C231.083 334.014 228.413 336.122 224.85 337.643L225.635 339.482C229.488 337.837 232.484 335.507 234.567 332.472L232.918 331.34ZM224.852 337.642C221.319 339.139 217.011 339.906 211.898 339.906V341.906C217.202 341.906 221.79 341.111 225.632 339.483L224.852 337.642ZM211.898 339.906C206.832 339.906 202.467 339.13 198.78 337.607L198.017 339.456C201.997 341.099 206.632 341.906 211.898 341.906V339.906ZM198.782 337.608C195.13 336.091 192.31 333.863 190.284 330.931L188.638 332.069C190.904 335.346 194.042 337.805 198.015 339.455L198.782 337.608ZM190.288 330.938C188.293 328.004 187.218 324.337 187.117 319.884L185.117 319.929C185.225 324.683 186.379 328.746 188.634 332.062L190.288 330.938ZM186.117 320.906H199.211V318.906H186.117V320.906ZM198.213 319.974C198.37 322.275 199.035 324.263 200.256 325.883L201.853 324.679C200.908 323.425 200.344 321.829 200.209 319.838L198.213 319.974ZM200.266 325.896C201.49 327.466 203.11 328.641 205.091 329.429L205.831 327.571C204.146 326.901 202.828 325.929 201.843 324.667L200.266 325.896ZM205.104 329.434C207.09 330.193 209.308 330.562 211.742 330.562V328.562C209.51 328.562 207.54 328.224 205.818 327.566L205.104 329.434ZM211.742 330.562C214.128 330.562 216.248 330.216 218.078 329.493L217.344 327.632C215.799 328.242 213.94 328.562 211.742 328.562V330.562ZM218.074 329.494C219.913 328.776 221.396 327.755 222.465 326.401L220.895 325.162C220.089 326.183 218.925 327.015 217.347 327.631L218.074 329.494ZM222.465 326.401C223.544 325.033 224.086 323.449 224.086 321.688H222.086C222.086 323.009 221.69 324.154 220.895 325.162L222.465 326.401ZM224.086 321.688C224.086 320.036 223.589 318.586 222.558 317.405L221.051 318.72C221.729 319.497 222.086 320.464 222.086 321.688H224.086ZM222.566 317.414C221.601 316.281 220.225 315.368 218.507 314.642L217.728 316.483C219.26 317.132 220.341 317.886 221.043 318.711L222.566 317.414ZM218.511 314.643C216.84 313.927 214.814 313.286 212.445 312.715L211.977 314.66C214.274 315.214 216.186 315.823 217.723 316.482L218.511 314.643ZM212.454 312.718L205.486 310.968L204.999 312.907L211.967 314.657L212.454 312.718ZM205.479 310.966C200.192 309.68 196.096 307.688 193.127 305.035L191.795 306.527C195.076 309.458 199.5 311.57 205.006 312.909L205.479 310.966ZM193.127 305.035C190.244 302.46 188.785 298.988 188.805 294.504L186.805 294.496C186.783 299.47 188.427 303.519 191.795 306.527L193.127 305.035ZM188.805 294.495C188.785 290.812 189.761 287.637 191.71 284.928L190.087 283.76C187.869 286.842 186.783 290.438 186.805 294.505L188.805 294.495ZM191.707 284.932C193.696 282.195 196.434 280.039 199.96 278.477L199.15 276.648C195.342 278.336 192.309 280.701 190.089 283.756L191.707 284.932ZM199.96 278.477C203.48 276.917 207.505 276.125 212.055 276.125V274.125C207.271 274.125 202.963 274.958 199.15 276.648L199.96 278.477ZM212.055 276.125C216.692 276.125 220.69 276.918 224.075 278.471L224.909 276.654C221.211 274.957 216.918 274.125 212.055 274.125V276.125ZM224.077 278.472C227.494 280.031 230.114 282.18 231.979 284.908L233.63 283.779C231.537 280.716 228.616 278.344 224.907 276.653L224.077 278.472ZM231.979 284.908C233.838 287.628 234.808 290.788 234.867 294.423L236.867 294.39C236.802 290.399 235.73 286.851 233.63 283.779L231.979 284.908ZM235.867 293.406H222.898V295.406H235.867V293.406ZM266.211 340H265.211V341H266.211V340ZM266.211 276V275H265.211V276H266.211ZM305.711 279.844L305.228 280.719L305.231 280.721L305.711 279.844ZM316.43 290.812L315.544 291.277L315.546 291.28L316.43 290.812ZM316.43 325.125L315.545 324.659L315.543 324.662L316.43 325.125ZM305.648 336.156L305.169 335.279L305.167 335.28L305.648 336.156ZM279.742 328.406H278.742V329.406H279.742V328.406ZM298.43 326.281L298.89 327.169L298.893 327.167L298.43 326.281ZM304.617 319.625L303.709 319.206L303.708 319.208L304.617 319.625ZM304.617 296.344L303.708 296.76L303.711 296.766L304.617 296.344ZM298.461 289.719L298.922 288.831L298.461 289.719ZM279.742 287.594V286.594H278.742V287.594H279.742ZM288.898 339H266.211V341H288.898V339ZM267.211 340V276H265.211V340H267.211ZM266.211 277H289.086V275H266.211V277ZM289.086 277C295.39 277 300.759 278.254 305.228 280.719L306.194 278.968C301.372 276.308 295.657 275 289.086 275V277ZM305.231 280.721C309.701 283.166 313.134 286.677 315.544 291.277L317.315 290.348C314.726 285.406 311.013 281.604 306.191 278.966L305.231 280.721ZM315.546 291.28C317.975 295.877 319.211 301.417 319.211 307.938H321.211C321.211 301.166 319.926 295.29 317.314 290.345L315.546 291.28ZM319.211 307.938C319.211 314.479 317.974 320.041 315.545 324.659L317.315 325.591C319.927 320.626 321.211 314.729 321.211 307.938H319.211ZM315.543 324.662C313.134 329.281 309.68 332.812 305.169 335.279L306.128 337.034C310.991 334.375 314.726 330.553 317.316 325.588L315.543 324.662ZM305.167 335.28C300.677 337.745 295.267 339 288.898 339V341C295.53 341 301.286 339.692 306.13 337.033L305.167 335.28ZM279.742 329.406H288.336V327.406H279.742V329.406ZM288.336 329.406C292.45 329.406 295.983 328.678 298.89 327.169L297.969 325.394C295.418 326.718 292.222 327.406 288.336 327.406V329.406ZM298.893 327.167C301.852 325.62 304.065 323.23 305.526 320.042L303.708 319.208C302.419 322.02 300.507 324.067 297.966 325.395L298.893 327.167ZM305.525 320.044C307.002 316.848 307.711 312.795 307.711 307.938H305.711C305.711 312.622 305.024 316.36 303.709 319.206L305.525 320.044ZM307.711 307.938C307.711 303.121 307.002 299.098 305.524 295.922L303.711 296.766C305.024 299.589 305.711 303.296 305.711 307.938H307.711ZM305.526 295.927C304.066 292.74 301.863 290.358 298.922 288.831L298 290.606C300.517 291.913 302.419 293.947 303.708 296.76L305.526 295.927ZM298.922 288.831C296.014 287.322 292.481 286.594 288.367 286.594V288.594C292.253 288.594 295.45 289.282 298 290.606L298.922 288.831ZM288.367 286.594H279.742V288.594H288.367V286.594ZM278.742 287.594V328.406H280.742V287.594H278.742ZM385.078 325.812L384.198 325.337L384.197 325.34L385.078 325.812ZM374.328 337.031L374.821 337.901L374.823 337.9L374.328 337.031ZM343.766 337L344.262 336.132L343.766 337ZM333.047 325.781L332.166 326.254L333.047 325.781ZM333.047 290.188L333.928 290.66L333.047 290.188ZM343.766 279L344.259 279.87L344.262 279.868L343.766 279ZM374.328 279L373.832 279.868L373.837 279.871L374.328 279ZM385.078 290.188L384.197 290.66L384.198 290.663L385.078 290.188ZM373.297 296.562L372.378 296.957L372.38 296.962L373.297 296.562ZM367.641 289.5L367.091 290.335L367.641 289.5ZM350.516 289.5L351.065 290.335L350.516 289.5ZM344.828 296.562L343.912 296.163L343.909 296.168L344.828 296.562ZM344.828 319.438L343.909 319.832L343.912 319.837L344.828 319.438ZM350.516 326.5L351.065 325.665L350.516 326.5ZM367.641 326.5L367.091 325.665L367.641 326.5ZM373.297 319.438L372.38 319.038L372.378 319.043L373.297 319.438ZM388.047 308C388.047 314.855 386.748 320.62 384.198 325.337L385.958 326.288C388.7 321.214 390.047 315.104 390.047 308H388.047ZM384.197 325.34C381.655 330.081 378.201 333.678 373.834 336.162L374.823 337.9C379.538 335.218 383.251 331.336 385.959 326.285L384.197 325.34ZM373.835 336.161C369.477 338.631 364.566 339.875 359.078 339.875V341.875C364.881 341.875 370.137 340.556 374.821 337.901L373.835 336.161ZM359.078 339.875C353.548 339.875 348.618 338.621 344.262 336.132L343.27 337.868C347.955 340.546 353.233 341.875 359.078 341.875V339.875ZM344.262 336.132C339.915 333.648 336.471 330.051 333.928 325.309L332.166 326.254C334.873 331.303 338.575 335.185 343.27 337.868L344.262 336.132ZM333.928 325.309C331.398 320.59 330.109 314.834 330.109 308H328.109C328.109 315.082 329.445 321.18 332.166 326.254L333.928 325.309ZM330.109 308C330.109 301.144 331.399 295.378 333.928 290.66L332.166 289.715C329.445 294.789 328.109 300.897 328.109 308H330.109ZM333.928 290.66C336.47 285.919 339.914 282.333 344.259 279.87L343.273 278.13C338.576 280.792 334.873 284.665 332.166 289.715L333.928 290.66ZM344.262 279.868C348.618 277.379 353.548 276.125 359.078 276.125V274.125C353.233 274.125 347.955 275.454 343.27 278.132L344.262 279.868ZM359.078 276.125C364.565 276.125 369.475 277.378 373.832 279.868L374.824 278.132C370.14 275.455 364.883 274.125 359.078 274.125V276.125ZM373.837 279.871C378.202 282.334 381.655 285.92 384.197 290.66L385.959 289.715C383.251 284.663 379.537 280.791 374.82 278.129L373.837 279.871ZM384.198 290.663C386.748 295.38 388.047 301.145 388.047 308H390.047C390.047 300.896 388.7 294.786 385.958 289.712L384.198 290.663ZM376.328 308C376.328 303.385 375.638 299.428 374.213 296.163L372.38 296.962C373.664 299.906 374.328 303.573 374.328 308H376.328ZM374.216 296.168C372.818 292.913 370.816 290.393 368.19 288.665L367.091 290.335C369.34 291.816 371.109 294.004 372.378 296.957L374.216 296.168ZM368.19 288.665C365.57 286.94 362.52 286.094 359.078 286.094V288.094C362.178 288.094 364.836 288.851 367.091 290.335L368.19 288.665ZM359.078 286.094C355.636 286.094 352.586 286.94 349.966 288.665L351.065 290.335C353.32 288.851 355.978 288.094 359.078 288.094V286.094ZM349.966 288.665C347.342 290.392 345.33 292.91 343.912 296.163L345.745 296.962C347.034 294.007 348.814 291.817 351.065 290.335L349.966 288.665ZM343.909 296.168C342.508 299.431 341.828 303.387 341.828 308H343.828C343.828 303.571 344.482 299.902 345.747 296.957L343.909 296.168ZM341.828 308C341.828 312.613 342.508 316.569 343.909 319.832L345.747 319.043C344.482 316.098 343.828 312.429 343.828 308H341.828ZM343.912 319.837C345.33 323.09 347.342 325.608 349.966 327.335L351.065 325.665C348.814 324.183 347.034 321.993 345.745 319.038L343.912 319.837ZM349.966 327.335C352.586 329.06 355.636 329.906 359.078 329.906V327.906C355.978 327.906 353.32 327.149 351.065 325.665L349.966 327.335ZM359.078 329.906C362.52 329.906 365.57 329.06 368.19 327.335L367.091 325.665C364.836 327.149 362.178 327.906 359.078 327.906V329.906ZM368.19 327.335C370.816 325.607 372.818 323.087 374.216 319.832L372.378 319.043C371.109 321.996 369.34 324.184 367.091 325.665L368.19 327.335ZM374.213 319.837C375.638 316.572 376.328 312.615 376.328 308H374.328C374.328 312.427 373.664 316.094 372.38 319.038L374.213 319.837Z" fill="black"/>
<path d="M402.75 340V276H428.375C433.083 276 437.01 276.698 440.156 278.094C443.302 279.49 445.667 281.427 447.25 283.906C448.833 286.365 449.625 289.198 449.625 292.406C449.625 294.906 449.125 297.104 448.125 299C447.125 300.875 445.75 302.417 444 303.625C442.271 304.812 440.292 305.656 438.063 306.156V306.781C440.5 306.885 442.781 307.573 444.906 308.844C447.052 310.115 448.792 311.896 450.125 314.187C451.458 316.458 452.125 319.167 452.125 322.312C452.125 325.708 451.281 328.74 449.594 331.406C447.927 334.052 445.458 336.146 442.187 337.687C438.917 339.229 434.885 340 430.094 340H402.75ZM416.281 328.937H427.313C431.083 328.937 433.833 328.219 435.563 326.781C437.292 325.323 438.156 323.385 438.156 320.969C438.156 319.198 437.729 317.635 436.875 316.281C436.021 314.927 434.802 313.865 433.219 313.094C431.656 312.323 429.792 311.937 427.625 311.937H416.281V328.937ZM416.281 302.781H426.312C428.167 302.781 429.813 302.458 431.25 301.812C432.708 301.146 433.854 300.208 434.688 299C435.542 297.792 435.969 296.344 435.969 294.656C435.969 292.344 435.146 290.479 433.5 289.062C431.875 287.646 429.563 286.937 426.563 286.937H416.281V302.781ZM500.461 276H513.992V317.562C513.992 322.229 512.878 326.312 510.648 329.812C508.44 333.312 505.346 336.042 501.367 338C497.388 339.938 492.753 340.906 487.461 340.906C482.148 340.906 477.503 339.938 473.523 338C469.544 336.042 466.451 333.312 464.242 329.812C462.034 326.312 460.93 322.229 460.93 317.562V276H474.461V316.406C474.461 318.844 474.992 321.01 476.055 322.906C477.138 324.802 478.659 326.292 480.617 327.375C482.576 328.458 484.857 329 487.461 329C490.086 329 492.367 328.458 494.305 327.375C496.263 326.292 497.773 324.802 498.836 322.906C499.919 321.01 500.461 318.844 500.461 316.406V276ZM559.844 294.406C559.594 291.885 558.521 289.927 556.625 288.531C554.729 287.135 552.156 286.437 548.906 286.437C546.698 286.437 544.833 286.75 543.313 287.375C541.792 287.979 540.625 288.823 539.813 289.906C539.021 290.99 538.625 292.219 538.625 293.594C538.583 294.74 538.823 295.74 539.344 296.594C539.885 297.448 540.625 298.187 541.562 298.812C542.5 299.417 543.583 299.948 544.812 300.406C546.042 300.844 547.354 301.219 548.75 301.531L554.5 302.906C557.292 303.531 559.854 304.365 562.188 305.406C564.521 306.448 566.542 307.729 568.25 309.25C569.958 310.771 571.281 312.562 572.219 314.625C573.177 316.687 573.667 319.052 573.687 321.719C573.667 325.635 572.667 329.031 570.688 331.906C568.729 334.76 565.896 336.979 562.188 338.562C558.5 340.125 554.052 340.906 548.844 340.906C543.677 340.906 539.177 340.115 535.344 338.531C531.531 336.948 528.552 334.604 526.406 331.5C524.281 328.375 523.167 324.51 523.062 319.906H536.156C536.302 322.052 536.917 323.844 538 325.281C539.104 326.698 540.573 327.771 542.406 328.5C544.26 329.208 546.354 329.562 548.687 329.562C550.979 329.562 552.969 329.229 554.656 328.562C556.365 327.896 557.688 326.969 558.625 325.781C559.563 324.594 560.031 323.229 560.031 321.687C560.031 320.25 559.604 319.042 558.75 318.062C557.917 317.083 556.688 316.25 555.063 315.562C553.458 314.875 551.49 314.25 549.156 313.687L542.188 311.937C536.792 310.625 532.531 308.573 529.406 305.781C526.281 302.99 524.729 299.229 524.75 294.5C524.729 290.625 525.76 287.24 527.844 284.344C529.948 281.448 532.833 279.187 536.5 277.562C540.167 275.937 544.333 275.125 549 275.125C553.75 275.125 557.896 275.937 561.438 277.562C565 279.187 567.771 281.448 569.75 284.344C571.729 287.24 572.75 290.594 572.812 294.406H559.844ZM596.32 276V340H582.789V276H596.32ZM660.984 276V340H649.297L621.453 299.719H620.984V340H607.453V276H619.328L646.953 316.25H647.516V276H660.984ZM672.164 340V276H715.289V287.156H685.695V302.406H713.07V313.562H685.695V328.844H715.414V340H672.164ZM760.766 294.406C760.516 291.885 759.443 289.927 757.547 288.531C755.651 287.135 753.078 286.437 749.828 286.437C747.62 286.437 745.755 286.75 744.234 287.375C742.714 287.979 741.547 288.823 740.734 289.906C739.943 290.99 739.547 292.219 739.547 293.594C739.505 294.74 739.745 295.74 740.266 296.594C740.807 297.448 741.547 298.187 742.484 298.812C743.422 299.417 744.505 299.948 745.734 300.406C746.964 300.844 748.276 301.219 749.672 301.531L755.422 302.906C758.214 303.531 760.776 304.365 763.109 305.406C765.443 306.448 767.464 307.729 769.172 309.25C770.88 310.771 772.203 312.562 773.141 314.625C774.099 316.687 774.589 319.052 774.609 321.719C774.589 325.635 773.589 329.031 771.609 331.906C769.651 334.76 766.818 336.979 763.109 338.562C759.422 340.125 754.974 340.906 749.766 340.906C744.599 340.906 740.099 340.115 736.266 338.531C732.453 336.948 729.474 334.604 727.328 331.5C725.203 328.375 724.089 324.51 723.984 319.906H737.078C737.224 322.052 737.839 323.844 738.922 325.281C740.026 326.698 741.495 327.771 743.328 328.5C745.182 329.208 747.276 329.562 749.609 329.562C751.901 329.562 753.891 329.229 755.578 328.562C757.286 327.896 758.609 326.969 759.547 325.781C760.484 324.594 760.953 323.229 760.953 321.687C760.953 320.25 760.526 319.042 759.672 318.062C758.839 317.083 757.609 316.25 755.984 315.562C754.38 314.875 752.411 314.25 750.078 313.687L743.109 311.937C737.714 310.625 733.453 308.573 730.328 305.781C727.203 302.99 725.651 299.229 725.672 294.5C725.651 290.625 726.682 287.24 728.766 284.344C730.87 281.448 733.755 279.187 737.422 277.562C741.089 275.937 745.255 275.125 749.922 275.125C754.672 275.125 758.818 275.937 762.359 277.562C765.922 279.187 768.693 281.448 770.672 284.344C772.651 287.24 773.672 290.594 773.734 294.406H760.766ZM818.43 294.406C818.18 291.885 817.107 289.927 815.211 288.531C813.315 287.135 810.742 286.437 807.492 286.437C805.284 286.437 803.419 286.75 801.898 287.375C800.378 287.979 799.211 288.823 798.398 289.906C797.607 290.99 797.211 292.219 797.211 293.594C797.169 294.74 797.409 295.74 797.93 296.594C798.471 297.448 799.211 298.187 800.148 298.812C801.086 299.417 802.169 299.948 803.398 300.406C804.628 300.844 805.94 301.219 807.336 301.531L813.086 302.906C815.878 303.531 818.44 304.365 820.773 305.406C823.107 306.448 825.128 307.729 826.836 309.25C828.544 310.771 829.867 312.562 830.805 314.625C831.763 316.687 832.253 319.052 832.273 321.719C832.253 325.635 831.253 329.031 829.273 331.906C827.315 334.76 824.482 336.979 820.773 338.562C817.086 340.125 812.638 340.906 807.43 340.906C802.263 340.906 797.763 340.115 793.93 338.531C790.117 336.948 787.138 334.604 784.992 331.5C782.867 328.375 781.753 324.51 781.648 319.906H794.742C794.888 322.052 795.503 323.844 796.586 325.281C797.69 326.698 799.159 327.771 800.992 328.5C802.846 329.208 804.94 329.562 807.273 329.562C809.565 329.562 811.555 329.229 813.242 328.562C814.951 327.896 816.273 326.969 817.211 325.781C818.148 324.594 818.617 323.229 818.617 321.687C818.617 320.25 818.19 319.042 817.336 318.062C816.503 317.083 815.273 316.25 813.648 315.562C812.044 314.875 810.076 314.25 807.742 313.687L800.773 311.937C795.378 310.625 791.117 308.573 787.992 305.781C784.867 302.99 783.315 299.229 783.336 294.5C783.315 290.625 784.346 287.24 786.43 284.344C788.534 281.448 791.419 279.187 795.086 277.562C798.753 275.937 802.919 275.125 807.586 275.125C812.336 275.125 816.482 275.937 820.023 277.562C823.586 279.187 826.357 281.448 828.336 284.344C830.315 287.24 831.336 290.594 831.398 294.406H818.43Z" fill="black"/>
<path d="M387 308H867" stroke="black" stroke-width="1.6"/>
</g>
</g>
<defs>
<clipPath id="clip0_301_44">
<rect width="1440" height="5285" fill="white" transform="translate(-72 -4587)"/>
</clipPath>
<clipPath id="clip1_301_44">
<rect width="1440" height="778" fill="white" transform="translate(-72 -80)"/>
</clipPath>
</defs>
</svg>
