<svg width="480" height="280" viewBox="0 0 480 280" fill="none" xmlns="http://www.w3.org/2000/svg">
<path d="M213.452 144V97.4545H231.815C235.346 97.4545 238.353 98.1288 240.838 99.4773C243.323 100.811 245.217 102.667 246.52 105.045C247.838 107.409 248.497 110.136 248.497 113.227C248.497 116.318 247.83 119.045 246.497 121.409C245.164 123.773 243.232 125.614 240.702 126.932C238.187 128.25 235.141 128.909 231.565 128.909H219.861V121.023H229.974C231.868 121.023 233.429 120.697 234.656 120.045C235.899 119.379 236.823 118.462 237.429 117.295C238.05 116.114 238.361 114.758 238.361 113.227C238.361 111.682 238.05 110.333 237.429 109.182C236.823 108.015 235.899 107.114 234.656 106.477C233.414 105.826 231.838 105.5 229.929 105.5H223.293V144H213.452ZM254.889 144V97.4545H273.253C276.768 97.4545 279.768 98.0833 282.253 99.3409C284.753 100.583 286.654 102.348 287.957 104.636C289.276 106.909 289.935 109.583 289.935 112.659C289.935 115.75 289.268 118.409 287.935 120.636C286.601 122.848 284.67 124.545 282.139 125.727C279.624 126.909 276.579 127.5 273.003 127.5H260.707V119.591H271.412C273.291 119.591 274.851 119.333 276.094 118.818C277.336 118.303 278.26 117.53 278.866 116.5C279.488 115.47 279.798 114.189 279.798 112.659C279.798 111.114 279.488 109.811 278.866 108.75C278.26 107.689 277.329 106.886 276.071 106.341C274.829 105.78 273.26 105.5 271.366 105.5H264.73V144H254.889ZM280.026 122.818L291.594 144H280.73L269.412 122.818H280.026ZM339.662 120.727C339.662 125.803 338.7 130.121 336.776 133.682C334.866 137.242 332.26 139.962 328.957 141.841C325.67 143.705 321.973 144.636 317.866 144.636C313.73 144.636 310.018 143.697 306.73 141.818C303.442 139.939 300.844 137.22 298.935 133.659C297.026 130.098 296.071 125.788 296.071 120.727C296.071 115.652 297.026 111.333 298.935 107.773C300.844 104.212 303.442 101.5 306.73 99.6364C310.018 97.7576 313.73 96.8182 317.866 96.8182C321.973 96.8182 325.67 97.7576 328.957 99.6364C332.26 101.5 334.866 104.212 336.776 107.773C338.7 111.333 339.662 115.652 339.662 120.727ZM329.685 120.727C329.685 117.439 329.192 114.667 328.207 112.409C327.238 110.152 325.866 108.439 324.094 107.273C322.321 106.106 320.245 105.523 317.866 105.523C315.488 105.523 313.412 106.106 311.639 107.273C309.866 108.439 308.488 110.152 307.503 112.409C306.533 114.667 306.048 117.439 306.048 120.727C306.048 124.015 306.533 126.788 307.503 129.045C308.488 131.303 309.866 133.015 311.639 134.182C313.412 135.348 315.488 135.932 317.866 135.932C320.245 135.932 322.321 135.348 324.094 134.182C325.866 133.015 327.238 131.303 328.207 129.045C329.192 126.788 329.685 124.015 329.685 120.727ZM365.588 97.4545H375.315V129.909C375.315 132.909 374.641 135.515 373.293 137.727C371.959 139.939 370.103 141.644 367.724 142.841C365.346 144.038 362.58 144.636 359.429 144.636C356.626 144.636 354.08 144.144 351.793 143.159C349.52 142.159 347.717 140.644 346.384 138.614C345.05 136.568 344.391 134 344.406 130.909H354.202C354.232 132.136 354.482 133.189 354.952 134.068C355.437 134.932 356.096 135.598 356.929 136.068C357.777 136.523 358.777 136.75 359.929 136.75C361.141 136.75 362.164 136.492 362.997 135.977C363.846 135.447 364.49 134.674 364.929 133.659C365.368 132.644 365.588 131.394 365.588 129.909V97.4545ZM383.452 144V97.4545H414.815V105.568H393.293V116.659H413.202V124.773H393.293V135.886H414.906V144H383.452ZM292.707 215.75H282.753C282.571 214.462 282.2 213.318 281.639 212.318C281.079 211.303 280.359 210.439 279.48 209.727C278.601 209.015 277.586 208.47 276.435 208.091C275.298 207.712 274.063 207.523 272.73 207.523C270.321 207.523 268.223 208.121 266.435 209.318C264.647 210.5 263.26 212.227 262.276 214.5C261.291 216.758 260.798 219.5 260.798 222.727C260.798 226.045 261.291 228.833 262.276 231.091C263.276 233.348 264.67 235.053 266.457 236.205C268.245 237.356 270.313 237.932 272.662 237.932C273.98 237.932 275.2 237.758 276.321 237.409C277.457 237.061 278.465 236.553 279.344 235.886C280.223 235.205 280.95 234.379 281.526 233.409C282.116 232.439 282.526 231.333 282.753 230.091L292.707 230.136C292.45 232.273 291.806 234.333 290.776 236.318C289.76 238.288 288.389 240.053 286.662 241.614C284.95 243.159 282.904 244.386 280.526 245.295C278.162 246.189 275.488 246.636 272.503 246.636C268.351 246.636 264.639 245.697 261.366 243.818C258.109 241.939 255.533 239.22 253.639 235.659C251.76 232.098 250.821 227.788 250.821 222.727C250.821 217.652 251.776 213.333 253.685 209.773C255.594 206.212 258.185 203.5 261.457 201.636C264.73 199.758 268.412 198.818 272.503 198.818C275.2 198.818 277.7 199.197 280.003 199.955C282.321 200.712 284.374 201.818 286.162 203.273C287.95 204.712 289.404 206.477 290.526 208.568C291.662 210.659 292.389 213.053 292.707 215.75ZM297.991 207.568V199.455H336.219V207.568H321.969V246H312.241V207.568H297.991ZM367.764 212.841C367.582 211.008 366.802 209.583 365.423 208.568C364.045 207.553 362.173 207.045 359.81 207.045C358.204 207.045 356.848 207.273 355.741 207.727C354.635 208.167 353.787 208.78 353.196 209.568C352.62 210.356 352.332 211.25 352.332 212.25C352.302 213.083 352.476 213.811 352.855 214.432C353.249 215.053 353.787 215.591 354.469 216.045C355.151 216.485 355.938 216.871 356.832 217.205C357.726 217.523 358.681 217.795 359.696 218.023L363.878 219.023C365.908 219.477 367.772 220.083 369.469 220.841C371.166 221.598 372.635 222.53 373.878 223.636C375.12 224.742 376.082 226.045 376.764 227.545C377.461 229.045 377.817 230.765 377.832 232.705C377.817 235.553 377.09 238.023 375.651 240.114C374.226 242.189 372.166 243.803 369.469 244.955C366.787 246.091 363.552 246.659 359.764 246.659C356.007 246.659 352.734 246.083 349.946 244.932C347.173 243.78 345.007 242.076 343.446 239.818C341.901 237.545 341.09 234.735 341.014 231.386H350.537C350.643 232.947 351.09 234.25 351.878 235.295C352.681 236.326 353.749 237.106 355.082 237.636C356.431 238.152 357.954 238.409 359.651 238.409C361.317 238.409 362.764 238.167 363.991 237.682C365.234 237.197 366.196 236.523 366.878 235.659C367.56 234.795 367.901 233.803 367.901 232.682C367.901 231.636 367.59 230.758 366.969 230.045C366.363 229.333 365.469 228.727 364.287 228.227C363.12 227.727 361.688 227.273 359.991 226.864L354.923 225.591C350.999 224.636 347.901 223.144 345.628 221.114C343.355 219.083 342.226 216.348 342.241 212.909C342.226 210.091 342.976 207.629 344.491 205.523C346.022 203.417 348.12 201.773 350.787 200.591C353.454 199.409 356.484 198.818 359.878 198.818C363.332 198.818 366.348 199.409 368.923 200.591C371.514 201.773 373.529 203.417 374.969 205.523C376.408 207.629 377.151 210.068 377.196 212.841H367.764Z" fill="#E5E548"/>
<path d="M0 172H480" stroke="#E5E548" stroke-width="1.6"/>
<path d="M4.04545 80H3.04545V81H4.04545V80ZM4.04545 33.4545V32.4545H3.04545V33.4545H4.04545ZM13.8864 33.4545H14.8864V32.4545H13.8864V33.4545ZM13.8864 71.8864H12.8864V72.8864H13.8864V71.8864ZM33.8409 71.8864H34.8409V70.8864H33.8409V71.8864ZM33.8409 80V81H34.8409V80H33.8409ZM5.04545 80V33.4545H3.04545V80H5.04545ZM4.04545 34.4545H13.8864V32.4545H4.04545V34.4545ZM12.8864 33.4545V71.8864H14.8864V33.4545H12.8864ZM13.8864 72.8864H33.8409V70.8864H13.8864V72.8864ZM32.8409 71.8864V80H34.8409V71.8864H32.8409ZM33.8409 79H4.04545V81H33.8409V79ZM49.5682 80V81H50.2944L50.5191 80.3094L49.5682 80ZM39.0227 80L38.0775 79.6737L37.6196 81H39.0227V80ZM55.0909 33.4545V32.4545H54.3782L54.1456 33.1282L55.0909 33.4545ZM67.7727 33.4545L68.7181 33.1286L68.4857 32.4545H67.7727V33.4545ZM83.8182 80V81H85.2207L84.7636 79.6741L83.8182 80ZM73.2727 80L72.3216 80.3088L72.546 81H73.2727V80ZM61.6136 44.0909L62.5648 43.7821L62.3403 43.0909H61.6136V44.0909ZM61.25 44.0909V43.0909H60.5237L60.2991 43.7816L61.25 44.0909ZM48.9091 61.7045V60.7045H47.9091V61.7045H48.9091ZM73.8182 61.7045H74.8182V60.7045H73.8182V61.7045ZM73.8182 69.3864V70.3864H74.8182V69.3864H73.8182ZM48.9091 69.3864H47.9091V70.3864H48.9091V69.3864ZM49.5682 79H39.0227V81H49.5682V79ZM39.968 80.3263L56.0362 33.7809L54.1456 33.1282L38.0775 79.6737L39.968 80.3263ZM55.0909 34.4545H67.7727V32.4545H55.0909V34.4545ZM66.8273 33.7804L82.8728 80.3259L84.7636 79.6741L68.7181 33.1286L66.8273 33.7804ZM83.8182 79H73.2727V81H83.8182V79ZM74.2239 79.6912L62.5648 43.7821L60.6625 44.3997L72.3216 80.3088L74.2239 79.6912ZM61.6136 43.0909H61.25V45.0909H61.6136V43.0909ZM60.2991 43.7816L48.6172 79.6906L50.5191 80.3094L62.2009 44.4003L60.2991 43.7816ZM48.9091 62.7045H73.8182V60.7045H48.9091V62.7045ZM72.8182 61.7045V69.3864H74.8182V61.7045H72.8182ZM73.8182 68.3864H48.9091V70.3864H73.8182V68.3864ZM49.9091 69.3864V61.7045H47.9091V69.3864H49.9091ZM81.9602 41.5682H80.9602V42.5682H81.9602V41.5682ZM81.9602 33.4545V32.4545H80.9602V33.4545H81.9602ZM120.188 33.4545H121.188V32.4545H120.188V33.4545ZM120.188 41.5682V42.5682H121.188V41.5682H120.188ZM105.938 41.5682V40.5682H104.938V41.5682H105.938ZM105.938 80V81H106.938V80H105.938ZM96.2102 80H95.2102V81H96.2102V80ZM96.2102 41.5682H97.2102V40.5682H96.2102V41.5682ZM82.9602 41.5682V33.4545H80.9602V41.5682H82.9602ZM81.9602 34.4545H120.188V32.4545H81.9602V34.4545ZM119.188 33.4545V41.5682H121.188V33.4545H119.188ZM120.188 40.5682H105.938V42.5682H120.188V40.5682ZM104.938 41.5682V80H106.938V41.5682H104.938ZM105.938 79H96.2102V81H105.938V79ZM97.2102 80V41.5682H95.2102V80H97.2102ZM96.2102 40.5682H81.9602V42.5682H96.2102V40.5682ZM4.04545 182H3.04545V183H4.04545V182ZM4.04545 135.455V134.455H3.04545V135.455H4.04545ZM35.4091 135.455H36.4091V134.455H35.4091V135.455ZM35.4091 143.568V144.568H36.4091V143.568H35.4091ZM13.8864 143.568V142.568H12.8864V143.568H13.8864ZM13.8864 154.659H12.8864V155.659H13.8864V154.659ZM33.7955 154.659H34.7955V153.659H33.7955V154.659ZM33.7955 162.773V163.773H34.7955V162.773H33.7955ZM13.8864 162.773V161.773H12.8864V162.773H13.8864ZM13.8864 173.886H12.8864V174.886H13.8864V173.886ZM35.5 173.886H36.5V172.886H35.5V173.886ZM35.5 182V183H36.5V182H35.5ZM5.04545 182V135.455H3.04545V182H5.04545ZM4.04545 136.455H35.4091V134.455H4.04545V136.455ZM34.4091 135.455V143.568H36.4091V135.455H34.4091ZM35.4091 142.568H13.8864V144.568H35.4091V142.568ZM12.8864 143.568V154.659H14.8864V143.568H12.8864ZM13.8864 155.659H33.7955V153.659H13.8864V155.659ZM32.7955 154.659V162.773H34.7955V154.659H32.7955ZM33.7955 161.773H13.8864V163.773H33.7955V161.773ZM12.8864 162.773V173.886H14.8864V162.773H12.8864ZM13.8864 174.886H35.5V172.886H13.8864V174.886ZM34.5 173.886V182H36.5V173.886H34.5ZM35.5 181H4.04545V183H35.5V181ZM68.483 148.841L67.4878 148.94L67.5772 149.841H68.483V148.841ZM56.4602 143.727L56.8294 144.657L56.8403 144.652L56.4602 143.727ZM53.9148 145.568L53.1147 144.968L53.1074 144.978L53.9148 145.568ZM53.0511 148.25L54.0505 148.286L54.0511 148.268V148.25H53.0511ZM53.5739 150.432L52.7201 150.952L52.7246 150.96L52.7294 150.967L53.5739 150.432ZM55.1875 152.045L54.6328 152.878L54.6393 152.882L54.6458 152.886L55.1875 152.045ZM57.5511 153.205L57.2018 154.142L57.2088 154.144L57.2158 154.147L57.5511 153.205ZM60.4148 154.023L60.6473 153.05L60.6403 153.048L60.6332 153.047L60.4148 154.023ZM64.5966 155.023L64.364 155.995L64.3711 155.997L64.3781 155.999L64.5966 155.023ZM70.1875 156.841L69.7798 157.754L70.1875 156.841ZM74.5966 159.636L75.2615 158.889L74.5966 159.636ZM77.483 163.545L76.5726 163.959L76.5761 163.967L77.483 163.545ZM78.5511 168.705L79.5512 168.71L79.5511 168.697L78.5511 168.705ZM76.3693 176.114L75.5456 175.547L75.5448 175.548L76.3693 176.114ZM70.1875 180.955L70.5777 181.875L70.5802 181.874L70.1875 180.955ZM50.6648 180.932L50.2812 181.855L50.283 181.856L50.6648 180.932ZM44.1648 175.818L43.3378 176.381L43.3422 176.387L44.1648 175.818ZM41.733 167.386V166.386H40.7101L40.7332 167.409L41.733 167.386ZM51.2557 167.386L52.2534 167.319L52.19 166.386H51.2557V167.386ZM52.5966 171.295L51.798 171.897L51.8029 171.904L51.8079 171.91L52.5966 171.295ZM55.8011 173.636L55.4315 174.566L55.4443 174.571L55.8011 173.636ZM64.7102 173.682L64.3467 172.75L64.3428 172.752L64.7102 173.682ZM67.5966 171.659L68.3815 172.279L67.5966 171.659ZM67.6875 166.045L66.9259 166.694L66.9339 166.703L67.6875 166.045ZM65.0057 164.227L64.6118 165.146L64.616 165.148L65.0057 164.227ZM60.7102 162.864L60.4667 163.834L60.4759 163.836L60.7102 162.864ZM55.642 161.591L55.8856 160.621L55.8784 160.619L55.642 161.591ZM46.3466 157.114L45.6804 157.859L46.3466 157.114ZM42.9602 148.909L43.9603 148.913L43.9602 148.904L42.9602 148.909ZM45.2102 141.523L44.4012 140.935L44.3985 140.939L45.2102 141.523ZM69.642 136.591L69.225 137.5L69.227 137.501L69.642 136.591ZM75.6875 141.523L74.8619 142.087L75.6875 141.523ZM77.9148 148.841V149.841H78.9313L78.9146 148.825L77.9148 148.841ZM69.4781 148.742C69.2707 146.651 68.3606 144.96 66.7349 143.763L65.5491 145.373C66.6811 146.207 67.3316 147.364 67.4878 148.94L69.4781 148.742ZM66.7349 143.763C65.1298 142.581 63.0259 142.045 60.5284 142.045V144.045C62.7581 144.045 64.3967 144.525 65.5491 145.373L66.7349 143.763ZM60.5284 142.045C58.8341 142.045 57.3404 142.284 56.0801 142.802L56.8403 144.652C57.7921 144.261 59.0106 144.045 60.5284 144.045V142.045ZM56.091 142.798C54.8496 143.291 53.8373 144.005 53.1148 144.968L54.7148 146.168C55.1741 145.556 55.8587 145.042 56.8294 144.657L56.091 142.798ZM53.1074 144.978C52.4032 145.942 52.0511 147.044 52.0511 148.25H54.0511C54.0511 147.456 54.2748 146.77 54.7222 146.158L53.1074 144.978ZM52.0518 148.214C52.0154 149.213 52.2249 150.14 52.7201 150.952L54.4277 149.911C54.1652 149.481 54.0262 148.953 54.0505 148.286L52.0518 148.214ZM52.7294 150.967C53.2062 151.719 53.848 152.354 54.6328 152.878L55.7422 151.213C55.1633 150.827 54.7294 150.387 54.4184 149.896L52.7294 150.967ZM54.6458 152.886C55.3975 153.37 56.2519 153.787 57.2018 154.142L57.9005 152.268C57.0625 151.955 56.3411 151.599 55.7292 151.205L54.6458 152.886ZM57.2158 154.147C58.1514 154.48 59.1453 154.763 60.1963 154.999L60.6332 153.047C59.654 152.828 58.7387 152.566 57.8865 152.262L57.2158 154.147ZM60.1822 154.995L64.364 155.995L64.8292 154.05L60.6473 153.05L60.1822 154.995ZM64.3781 155.999C66.351 156.44 68.1504 157.027 69.7798 157.754L70.5952 155.928C68.8307 155.14 66.9028 154.514 64.8151 154.047L64.3781 155.999ZM69.7798 157.754C71.3939 158.475 72.7744 159.353 73.9317 160.383L75.2615 158.889C73.934 157.708 72.375 156.722 70.5952 155.928L69.7798 157.754ZM73.9317 160.383C75.071 161.398 75.949 162.587 76.5726 163.959L78.3933 163.132C77.6532 161.503 76.6071 160.087 75.2615 158.889L73.9317 160.383ZM76.5761 163.967C77.2033 165.317 77.5369 166.891 77.5512 168.712L79.5511 168.697C79.535 166.639 79.1565 164.774 78.3898 163.124L76.5761 163.967ZM77.5511 168.699C77.5369 171.372 76.8576 173.641 75.5456 175.547L77.193 176.681C78.7598 174.405 79.535 171.734 79.5511 168.71L77.5511 168.699ZM75.5448 175.548C74.2447 177.443 72.3465 178.945 69.7948 180.035L70.5802 181.874C73.4224 180.661 75.6455 178.936 77.1939 176.679L75.5448 175.548ZM69.7973 180.034C67.27 181.105 64.1752 181.659 60.483 181.659V183.659C64.3664 183.659 67.7413 183.077 70.5777 181.875L69.7973 180.034ZM60.483 181.659C56.8252 181.659 53.6876 181.098 51.0465 180.008L50.283 181.856C53.2177 183.068 56.6255 183.659 60.483 183.659V181.659ZM51.0483 180.008C48.4357 178.923 46.4285 177.334 44.9874 175.25L43.3422 176.387C45.0222 178.817 47.3484 180.637 50.2812 181.855L51.0483 180.008ZM44.9917 175.256C43.5763 173.174 42.8051 170.562 42.7327 167.364L40.7332 167.409C40.8124 170.908 41.6623 173.916 43.3378 176.38L44.9917 175.256ZM41.733 168.386H51.2557V166.386H41.733V168.386ZM50.258 167.454C50.3746 169.17 50.8722 170.669 51.798 171.897L53.3952 170.694C52.7452 169.831 52.3489 168.724 52.2534 167.319L50.258 167.454ZM51.8079 171.91C52.7307 173.094 53.9498 173.976 55.4316 174.566L56.1707 172.707C54.9858 172.236 54.0685 171.557 53.3853 170.681L51.8079 171.91ZM55.4443 174.571C56.9248 175.136 58.5714 175.409 60.3693 175.409V173.409C58.7733 173.409 57.3745 173.167 56.158 172.702L55.4443 174.571ZM60.3693 175.409C62.13 175.409 63.7071 175.153 65.0777 174.612L64.3428 172.752C63.2588 173.18 61.942 173.409 60.3693 173.409V175.409ZM65.0738 174.613C66.4468 174.078 67.5682 173.309 68.3815 172.279L66.8117 171.039C66.2613 171.737 65.4585 172.316 64.3467 172.75L65.0738 174.613ZM68.3815 172.279C69.2055 171.235 69.6193 170.023 69.6193 168.682H67.6193C67.6193 169.583 67.3514 170.356 66.8117 171.039L68.3815 172.279ZM69.6193 168.682C69.6193 167.422 69.2384 166.302 68.4411 165.388L66.9339 166.703C67.379 167.213 67.6193 167.85 67.6193 168.682H69.6193ZM68.449 165.397C67.7115 164.531 66.6701 163.846 65.3953 163.306L64.616 165.148C65.7049 165.609 66.4513 166.136 66.926 166.694L68.449 165.397ZM65.3996 163.308C64.1662 162.78 62.6774 162.309 60.9446 161.891L60.4759 163.836C62.137 164.236 63.5118 164.675 64.6118 165.146L65.3996 163.308ZM60.9538 161.894L55.8856 160.621L55.3985 162.561L60.4667 163.834L60.9538 161.894ZM55.8784 160.619C52.0638 159.691 49.1296 158.259 47.0128 156.368L45.6804 157.859C48.109 160.029 51.3718 161.581 55.4057 162.563L55.8784 160.619ZM47.0128 156.368C44.9823 154.554 43.9461 152.108 43.9602 148.913L41.9602 148.905C41.944 152.589 43.1654 155.613 45.6804 157.859L47.0128 156.368ZM43.9602 148.904C43.9461 146.278 44.6411 144.026 46.022 142.107L44.3985 140.939C42.7491 143.231 41.9441 145.904 41.9602 148.914L43.9602 148.904ZM46.0192 142.111C47.434 140.164 49.3854 138.624 51.9109 137.505L51.1005 135.677C48.2927 136.921 46.0471 138.67 44.4012 140.935L46.0192 142.111ZM51.9109 137.505C54.4307 136.388 57.3196 135.818 60.5966 135.818V133.818C57.0857 133.818 53.914 134.43 51.1005 135.677L51.9109 137.505ZM60.5966 135.818C63.9381 135.818 66.8055 136.39 69.225 137.5L70.0591 135.682C67.3271 134.429 64.1642 133.818 60.5966 133.818V135.818ZM69.227 137.501C71.672 138.616 73.537 140.148 74.8619 142.087L76.5131 140.958C74.9593 138.685 72.7939 136.929 70.0571 135.681L69.227 137.501ZM74.8619 142.087C76.1812 144.017 76.8724 146.263 76.9149 148.857L78.9146 148.825C78.8663 145.874 78.0726 143.24 76.5131 140.958L74.8619 142.087ZM77.9148 147.841H68.483V149.841H77.9148V147.841ZM83.3977 143.568H82.3977V144.568H83.3977V143.568ZM83.3977 135.455V134.455H82.3977V135.455H83.3977ZM121.625 135.455H122.625V134.455H121.625V135.455ZM121.625 143.568V144.568H122.625V143.568H121.625ZM107.375 143.568V142.568H106.375V143.568H107.375ZM107.375 182V183H108.375V182H107.375ZM97.6477 182H96.6477V183H97.6477V182ZM97.6477 143.568H98.6477V142.568H97.6477V143.568ZM84.3977 143.568V135.455H82.3977V143.568H84.3977ZM83.3977 136.455H121.625V134.455H83.3977V136.455ZM120.625 135.455V143.568H122.625V135.455H120.625ZM121.625 142.568H107.375V144.568H121.625V142.568ZM106.375 143.568V182H108.375V143.568H106.375ZM107.375 181H97.6477V183H107.375V181ZM98.6477 182V143.568H96.6477V182H98.6477ZM97.6477 142.568H83.3977V144.568H97.6477V142.568Z" fill="#666666"/>
</svg>
