<svg width="675" height="298" viewBox="0 0 675 298" fill="none" xmlns="http://www.w3.org/2000/svg">
<path d="M316.608 213V166.455H347.972V174.568H326.449V185.659H346.358V193.773H326.449V204.886H348.062V213H316.608ZM364.205 166.455L375.455 201.818H375.886L387.159 166.455H398.068L382.023 213H369.341L353.273 166.455H364.205ZM403.67 213V166.455H435.034V174.568H413.511V185.659H433.42V193.773H413.511V204.886H435.125V213H403.67ZM481.79 166.455V213H473.29L453.04 183.705H452.699V213H442.858V166.455H451.494L471.585 195.727H471.994V166.455H481.79ZM488.148 174.568V166.455H526.375V174.568H512.125V213H502.398V174.568H488.148ZM557.92 179.841C557.739 178.008 556.958 176.583 555.58 175.568C554.201 174.553 552.33 174.045 549.966 174.045C548.36 174.045 547.004 174.273 545.898 174.727C544.792 175.167 543.943 175.78 543.352 176.568C542.777 177.356 542.489 178.25 542.489 179.25C542.458 180.083 542.633 180.811 543.011 181.432C543.405 182.053 543.943 182.591 544.625 183.045C545.307 183.485 546.095 183.871 546.989 184.205C547.883 184.523 548.837 184.795 549.852 185.023L554.034 186.023C556.064 186.477 557.928 187.083 559.625 187.841C561.322 188.598 562.792 189.53 564.034 190.636C565.277 191.742 566.239 193.045 566.92 194.545C567.617 196.045 567.973 197.765 567.989 199.705C567.973 202.553 567.246 205.023 565.807 207.114C564.383 209.189 562.322 210.803 559.625 211.955C556.943 213.091 553.708 213.659 549.92 213.659C546.163 213.659 542.89 213.083 540.102 211.932C537.33 210.78 535.163 209.076 533.602 206.818C532.057 204.545 531.246 201.735 531.17 198.386H540.693C540.799 199.947 541.246 201.25 542.034 202.295C542.837 203.326 543.905 204.106 545.239 204.636C546.587 205.152 548.11 205.409 549.807 205.409C551.473 205.409 552.92 205.167 554.148 204.682C555.39 204.197 556.352 203.523 557.034 202.659C557.716 201.795 558.057 200.803 558.057 199.682C558.057 198.636 557.746 197.758 557.125 197.045C556.519 196.333 555.625 195.727 554.443 195.227C553.277 194.727 551.845 194.273 550.148 193.864L545.08 192.591C541.155 191.636 538.057 190.144 535.784 188.114C533.511 186.083 532.383 183.348 532.398 179.909C532.383 177.091 533.133 174.629 534.648 172.523C536.178 170.417 538.277 168.773 540.943 167.591C543.61 166.409 546.64 165.818 550.034 165.818C553.489 165.818 556.504 166.409 559.08 167.591C561.67 168.773 563.686 170.417 565.125 172.523C566.564 174.629 567.307 177.068 567.352 179.841H557.92Z" fill="white"/>
<path d="M0 190H675" stroke="white" stroke-width="1.6"/>
</svg>
