<svg width="376" height="83" viewBox="0 0 376 83" fill="none" xmlns="http://www.w3.org/2000/svg">
<path d="M201.695 53V29.7273H209.991C211.801 29.7273 213.301 30.0568 214.491 30.7159C215.68 31.375 216.57 32.2765 217.161 33.4205C217.752 34.5568 218.048 35.8371 218.048 37.2614C218.048 38.6932 217.748 39.9811 217.15 41.125C216.559 42.2614 215.665 43.1629 214.468 43.8295C213.279 44.4886 211.783 44.8182 209.979 44.8182H204.275V41.8409H209.661C210.805 41.8409 211.733 41.6439 212.445 41.25C213.158 40.8485 213.68 40.303 214.014 39.6136C214.347 38.9242 214.514 38.1402 214.514 37.2614C214.514 36.3826 214.347 35.6023 214.014 34.9205C213.68 34.2386 213.154 33.7045 212.434 33.3182C211.722 32.9318 210.783 32.7386 209.616 32.7386H205.207V53H201.695ZM225.661 53H221.934L230.309 29.7273H234.366L242.741 53H239.014L232.434 33.9545H232.252L225.661 53ZM226.286 43.8864H238.377V46.8409H226.286V43.8864ZM262.607 35.8409C262.486 34.7652 261.986 33.9318 261.107 33.3409C260.229 32.7424 259.122 32.4432 257.789 32.4432C256.835 32.4432 256.009 32.5947 255.312 32.8977C254.615 33.1932 254.073 33.6023 253.687 34.125C253.308 34.6402 253.119 35.2273 253.119 35.8864C253.119 36.4394 253.247 36.9167 253.505 37.3182C253.77 37.7197 254.115 38.0568 254.539 38.3295C254.971 38.5947 255.433 38.8182 255.926 39C256.418 39.1742 256.891 39.3182 257.346 39.4318L259.619 40.0227C260.361 40.2045 261.122 40.4508 261.903 40.7614C262.683 41.072 263.407 41.4811 264.073 41.9886C264.74 42.4962 265.278 43.125 265.687 43.875C266.104 44.625 266.312 45.5227 266.312 46.5682C266.312 47.8864 265.971 49.0568 265.289 50.0795C264.615 51.1023 263.634 51.9091 262.346 52.5C261.066 53.0909 259.516 53.3864 257.698 53.3864C255.956 53.3864 254.448 53.1098 253.176 52.5568C251.903 52.0038 250.907 51.2197 250.187 50.2045C249.467 49.1818 249.069 47.9697 248.994 46.5682H252.516C252.585 47.4091 252.857 48.1098 253.335 48.6705C253.819 49.2235 254.437 49.6364 255.187 49.9091C255.944 50.1742 256.774 50.3068 257.676 50.3068C258.668 50.3068 259.551 50.1515 260.323 49.8409C261.104 49.5227 261.717 49.0833 262.164 48.5227C262.611 47.9545 262.835 47.2917 262.835 46.5341C262.835 45.8447 262.638 45.2803 262.244 44.8409C261.857 44.4015 261.331 44.0379 260.664 43.75C260.005 43.4621 259.259 43.2083 258.426 42.9886L255.676 42.2386C253.812 41.7311 252.335 40.9848 251.244 40C250.16 39.0152 249.619 37.7121 249.619 36.0909C249.619 34.75 249.982 33.5795 250.71 32.5795C251.437 31.5795 252.422 30.803 253.664 30.25C254.907 29.6894 256.308 29.4091 257.869 29.4091C259.444 29.4091 260.835 29.6856 262.039 30.2386C263.251 30.7917 264.206 31.553 264.903 32.5227C265.6 33.4848 265.963 34.5909 265.994 35.8409H262.607ZM273.36 32.75V29.7273H291.372V32.75H284.11V53H280.61V32.75H273.36Z" fill="white"/>
<path d="M0 41.5H376" stroke="white" stroke-width="1.6"/>
<path d="M0 41.5H376" stroke="white" stroke-width="1.6"/>
</svg>
