<svg width="1022" height="152" viewBox="0 0 1022 152" fill="none" xmlns="http://www.w3.org/2000/svg">
<path d="M94.5341 49.9432L93.539 50.0419L93.6284 50.9432H94.5341V49.9432ZM52.4545 32.0455L52.8238 32.9749L52.8347 32.9704L52.4545 32.0455ZM43.5455 38.4886L42.7454 37.8886L42.7381 37.8986L43.5455 38.4886ZM40.5227 47.875L41.5221 47.9113L41.5227 47.8932V47.875H40.5227ZM42.3523 55.5114L41.4985 56.032L41.5031 56.0395L41.5078 56.0469L42.3523 55.5114ZM48 61.1591L47.4453 61.9911L47.4518 61.9955L47.4583 61.9997L48 61.1591ZM56.2727 65.2159L55.9233 66.1529L55.9304 66.1555L55.9374 66.158L56.2727 65.2159ZM66.2955 68.0795L66.528 67.107L66.521 67.1053L66.5139 67.1037L66.2955 68.0795ZM80.9318 71.5795L80.6992 72.5521L80.7063 72.5538L80.7133 72.5554L80.9318 71.5795ZM100.5 77.9432L100.092 78.8563L100.5 77.9432ZM115.932 87.7273L116.597 86.9804L115.932 87.7273ZM126.034 101.409L125.124 101.823L125.127 101.83L126.034 101.409ZM129.773 119.466L130.773 119.471L130.773 119.458L129.773 119.466ZM122.136 145.398L121.313 144.831L121.312 144.832L122.136 145.398ZM100.5 162.341L100.89 163.262L100.893 163.261L100.5 162.341ZM32.1705 162.261L31.7869 163.185L31.7887 163.186L32.1705 162.261ZM9.42046 144.364L8.5935 144.926L8.59787 144.932L9.42046 144.364ZM0.909091 114.852V113.852H-0.11379L-0.0906534 114.875L0.909091 114.852ZM34.2386 114.852L35.2363 114.784L35.173 113.852H34.2386V114.852ZM38.9318 128.534L38.1332 129.136L38.1381 129.142L38.1431 129.149L38.9318 128.534ZM50.1477 136.727L49.7781 137.657L49.7909 137.661L50.1477 136.727ZM81.3295 136.886L80.966 135.955L80.9621 135.956L81.3295 136.886ZM91.4318 129.807L92.2167 130.426L91.4318 129.807ZM91.75 110.159L90.9884 110.807L90.9964 110.816L91.75 110.159ZM82.3636 103.795L81.9697 104.715L81.974 104.716L82.3636 103.795ZM67.3295 99.0227L67.086 99.9927L67.0952 99.9949L67.3295 99.0227ZM49.5909 94.5682L49.8345 93.5983L49.8273 93.5965L49.5909 94.5682ZM17.0568 78.8977L16.3906 79.6435L17.0568 78.8977ZM5.20455 50.1818L6.20458 50.1862L6.20453 50.1764L5.20455 50.1818ZM13.0795 24.3295L12.2705 23.7417L12.2678 23.7456L13.0795 24.3295ZM98.5909 7.06818L98.1739 7.97707L98.1759 7.978L98.5909 7.06818ZM119.75 24.3295L118.924 24.8938L119.75 24.3295ZM127.545 49.9432V50.9432H128.562L128.545 49.9268L127.545 49.9432ZM95.5292 49.8445C94.8673 43.17 92.0064 37.9182 86.9338 34.1833L85.748 35.7939C90.3269 39.1652 92.9282 43.883 93.539 50.0419L95.5292 49.8445ZM86.9338 34.1833C81.8817 30.4637 75.0998 28.6591 66.6932 28.6591V30.6591C74.832 30.6591 81.1486 32.4075 85.748 35.7939L86.9338 34.1833ZM66.6932 28.6591C60.9837 28.6591 56.0999 29.4662 52.0744 31.1205L52.8347 32.9704C56.5516 31.4429 61.1602 30.6591 66.6932 30.6591V28.6591ZM52.0854 31.1161C48.0788 32.7078 44.9452 34.9556 42.7455 37.8886L44.3455 39.0886C46.2821 36.5065 49.0879 34.4589 52.8237 32.9748L52.0854 31.1161ZM42.7381 37.8986C40.5945 40.832 39.5227 44.1685 39.5227 47.875H41.5227C41.5227 44.5815 42.4661 41.6605 44.3528 39.0786L42.7381 37.8986ZM39.5234 47.8387C39.4113 50.9218 40.0563 53.6669 41.4985 56.032L43.2061 54.9908C41.9967 53.0074 41.4221 50.6615 41.5221 47.9113L39.5234 47.8387ZM41.5078 56.0469C42.9695 58.3519 44.956 60.3316 47.4453 61.9911L48.5547 60.327C46.2713 58.8048 44.4926 57.0193 43.1968 54.9758L41.5078 56.0469ZM47.4583 61.9997C49.9146 63.5826 52.7386 64.9654 55.9233 66.1529L56.6221 64.2789C53.5493 63.1331 50.8581 61.8113 48.5417 60.3185L47.4583 61.9997ZM55.9374 66.158C59.1079 67.2865 62.4881 68.2519 66.077 69.0554L66.5139 67.1037C62.9968 66.3163 59.6952 65.3726 56.608 64.2738L55.9374 66.158ZM66.0629 69.0521L80.6992 72.5521L81.1644 70.607L66.528 67.107L66.0629 69.0521ZM80.7133 72.5554C87.762 74.1334 94.2205 76.235 100.092 78.8563L100.908 77.03C94.9007 74.3484 88.3138 72.2075 81.1503 70.6037L80.7133 72.5554ZM100.092 78.8563C105.949 81.4708 111.004 84.6787 115.267 88.4742L116.597 86.9804C112.163 83.0334 106.93 79.7186 100.908 77.03L100.092 78.8563ZM115.267 88.4742C119.512 92.2536 122.796 96.7011 125.124 101.823L126.944 100.995C124.5 95.6171 121.048 90.9434 116.597 86.9804L115.267 88.4742ZM125.127 101.83C127.497 106.93 128.721 112.804 128.773 119.474L130.773 119.458C130.719 112.552 129.45 106.388 126.941 100.988L125.127 101.83ZM128.773 119.461C128.721 129.255 126.223 137.698 121.313 144.831L122.96 145.965C128.125 138.461 130.719 129.616 130.773 119.471L128.773 119.461ZM121.312 144.832C116.451 151.916 109.401 157.453 100.107 161.421L100.893 163.261C110.477 159.168 117.852 153.41 122.961 145.963L121.312 144.832ZM100.11 161.42C90.878 165.332 79.6961 167.307 66.5341 167.307V169.307C79.8873 169.307 91.3493 167.304 100.89 163.262L100.11 161.42ZM66.5341 167.307C53.4824 167.307 42.1629 165.307 32.5522 161.337L31.7887 163.186C41.6931 167.277 53.2827 169.307 66.5341 169.307V167.307ZM32.554 161.338C23.0095 157.374 15.5857 151.524 10.243 143.795L8.59787 144.932C14.1794 153.007 21.9223 159.088 31.7869 163.185L32.554 161.338ZM10.2474 143.801C4.96836 136.038 2.17058 126.399 1.90883 114.83L-0.0906534 114.875C0.1779 126.745 3.05437 136.78 8.59353 144.926L10.2474 143.801ZM0.909091 115.852H34.2386V113.852H0.909091V115.852ZM33.2409 114.92C33.6227 120.538 35.2378 125.294 38.1332 129.136L39.7304 127.932C37.1107 124.456 35.597 120.091 35.2363 114.784L33.2409 114.92ZM38.1431 129.149C41.0735 132.909 44.963 135.741 49.7782 137.656L50.5173 135.798C45.9991 134.001 42.4113 131.372 39.7205 127.919L38.1431 129.149ZM49.7909 137.661C54.6426 139.515 60.096 140.432 66.1364 140.432V138.432C60.2979 138.432 55.0923 137.546 50.5046 135.793L49.7909 137.661ZM66.1364 140.432C72.0637 140.432 77.2582 139.57 81.697 137.816L80.9621 135.956C76.81 137.597 71.8757 138.432 66.1364 138.432V140.432ZM81.6931 137.818C86.1721 136.07 89.6989 133.616 92.2167 130.426L90.6469 129.187C88.392 132.043 85.1839 134.309 80.966 135.955L81.6931 137.818ZM92.2167 130.426C94.7452 127.224 96.0114 123.531 96.0114 119.386H94.0114C94.0114 123.09 92.8911 126.345 90.6469 129.187L92.2167 130.426ZM96.0114 119.386C96.0114 115.513 94.854 112.196 92.5036 109.502L90.9964 110.816C92.9945 113.107 94.0114 115.941 94.0114 119.386H96.0114ZM92.5115 109.511C90.2589 106.864 86.9826 104.664 82.7533 102.874L81.974 104.716C86.0174 106.427 88.9987 108.469 90.9885 110.807L92.5115 109.511ZM82.7576 102.876C78.6075 101.098 73.5392 99.491 67.5639 98.0506L67.0952 99.9949C72.9987 101.418 77.9531 102.993 81.9697 104.715L82.7576 102.876ZM67.5731 98.0528L49.8345 93.5983L49.3474 95.5381L67.086 99.9926L67.5731 98.0528ZM49.8273 93.5965C36.2021 90.2823 25.5217 85.1187 17.723 78.152L16.3906 79.6435C24.5011 86.8888 35.51 92.1723 49.3546 95.5398L49.8273 93.5965ZM17.723 78.152C10.0108 71.2623 6.15259 61.9787 6.20454 50.1862L4.20456 50.1774C4.15044 62.4606 8.19379 72.321 16.3906 79.6435L17.723 78.152ZM6.20453 50.1764C6.15253 40.505 8.72252 32.0981 13.8913 24.9135L12.2678 23.7456C6.83051 31.3034 4.1505 40.1314 4.20456 50.1872L6.20453 50.1764ZM13.8885 24.9174C19.129 17.7052 26.3267 12.0562 35.5188 7.98241L34.7085 6.15394C25.2339 10.3529 17.7422 16.2115 12.2706 23.7417L13.8885 24.9174ZM35.5188 7.98241C44.7054 3.9111 55.17 1.86363 66.9318 1.86363V-0.136368C54.9361 -0.136368 44.1886 1.95252 34.7085 6.15394L35.5188 7.98241ZM66.9318 1.86363C78.9097 1.86363 89.315 3.9124 98.1739 7.97707L99.0079 6.15928C89.8365 1.95123 79.1358 -0.136368 66.9318 -0.136368V1.86363ZM98.1759 7.978C107.098 12.0478 114.001 17.69 118.924 24.8938L120.576 23.7653C115.423 16.2266 108.22 10.3613 99.0059 6.15836L98.1759 7.978ZM118.924 24.8938C123.842 32.0893 126.389 40.433 126.546 49.9596L128.545 49.9268C128.383 40.0443 125.734 31.3122 120.576 23.7653L118.924 24.8938ZM127.545 48.9432H94.5341V50.9432H127.545V48.9432ZM257.565 3.0909V2.0909H256.565V3.0909H257.565ZM292.009 3.0909H293.009V2.0909H292.009V3.0909ZM283.497 140.068L282.654 139.531L282.651 139.535L283.497 140.068ZM259.872 160.909L260.31 161.808L260.314 161.806L259.872 160.909ZM188.997 160.909L188.556 161.806L188.559 161.808L188.997 160.909ZM165.372 140.068L164.526 140.602L165.372 140.068ZM156.94 3.0909V2.0909H155.94V3.0909H156.94ZM191.384 3.0909H192.384V2.0909H191.384V3.0909ZM195.44 122.489L194.568 122.978L194.572 122.985L195.44 122.489ZM207.054 133.864L206.57 134.739L207.054 133.864ZM241.895 133.864L241.411 132.989L241.407 132.991L241.895 133.864ZM253.429 122.489L252.561 121.992L252.557 122L253.429 122.489ZM257.565 4.0909H292.009V2.0909H257.565V4.0909ZM291.009 3.0909V108.886H293.009V3.0909H291.009ZM291.009 108.886C291.009 120.599 288.213 130.802 282.654 139.531L284.341 140.605C290.129 131.516 293.009 120.931 293.009 108.886H291.009ZM282.651 139.535C277.136 148.276 269.406 155.102 259.431 160.012L260.314 161.806C270.596 156.746 278.616 149.678 284.343 140.602L282.651 139.535ZM259.434 160.01C249.466 164.864 237.822 167.307 224.474 167.307V169.307C238.066 169.307 250.021 166.818 260.31 161.808L259.434 160.01ZM224.474 167.307C211.073 167.307 199.403 164.863 189.435 160.01L188.559 161.808C198.849 166.818 210.83 169.307 224.474 169.307V167.307ZM189.439 160.012C179.463 155.102 171.733 148.276 166.218 139.535L164.526 140.602C170.253 149.678 178.273 156.746 188.556 161.806L189.439 160.012ZM166.218 139.535C160.71 130.805 157.94 120.601 157.94 108.886H155.94C155.94 120.929 158.792 131.513 164.526 140.602L166.218 139.535ZM157.94 108.886V3.0909H155.94V108.886H157.94ZM156.94 4.0909H191.384V2.0909H156.94V4.0909ZM190.384 3.0909V105.943H192.384V3.0909H190.384ZM190.384 105.943C190.384 112.298 191.77 117.985 194.568 122.978L196.313 122C193.702 117.341 192.384 111.998 192.384 105.943H190.384ZM194.572 122.985C197.423 127.974 201.429 131.895 206.57 134.739L207.538 132.989C202.709 130.317 198.973 126.655 196.309 121.992L194.572 122.985ZM206.57 134.739C211.726 137.591 217.704 139 224.474 139V137C217.987 137 212.352 135.652 207.538 132.989L206.57 134.739ZM224.474 139C231.296 139 237.277 137.591 242.383 134.736L241.407 132.991C236.649 135.651 231.017 137 224.474 137V139ZM242.379 134.739C247.522 131.894 251.503 127.971 254.301 122.978L252.557 122C249.946 126.658 246.238 130.318 241.411 132.989L242.379 134.739ZM254.297 122.985C257.151 117.991 258.565 112.301 258.565 105.943H256.565C256.565 111.994 255.222 117.335 252.561 121.992L254.297 122.985ZM258.565 105.943V3.0909H256.565V105.943H258.565ZM324.347 166H323.347V167H324.347V166ZM324.347 3.0909V2.0909H323.347V3.0909H324.347ZM419.562 8.42046L419.157 9.33451L419.562 8.42046ZM437.619 23.2159L436.777 23.7542L436.779 23.7574L437.619 23.2159ZM439.847 61.6364L440.729 62.1069L440.731 62.1029L439.847 61.6364ZM429.347 73.4091L429.913 74.2334L429.915 74.232L429.347 73.4091ZM414.233 79.8523L414.014 78.8765L413.233 79.0517V79.8523H414.233ZM414.233 81.4432H413.233V82.4014L414.19 82.4423L414.233 81.4432ZM431.653 86.6932L431.14 87.5514L431.144 87.5536L431.653 86.6932ZM444.938 100.295L444.073 100.798L444.075 100.802L444.938 100.295ZM443.585 144.125L442.74 143.59L442.739 143.592L443.585 144.125ZM424.733 160.114L424.307 159.209L424.733 160.114ZM358.79 137.841H357.79V138.841H358.79V137.841ZM407.869 132.352L408.509 133.121L408.514 133.117L407.869 132.352ZM411.21 105.625L410.364 106.159L411.21 105.625ZM401.903 97.5114L401.461 98.4082L401.466 98.4105L401.903 97.5114ZM358.79 94.5682V93.5682H357.79V94.5682H358.79ZM358.79 71.2614H357.79V72.2614H358.79V71.2614ZM396.892 68.7955L397.302 69.7076L397.308 69.7049L396.892 68.7955ZM405.642 61.6364L404.825 61.0591L404.819 61.0686L405.642 61.6364ZM402.619 36.3409L401.962 37.0947L401.967 37.0988L402.619 36.3409ZM358.79 30.9318V29.9318H357.79V30.9318H358.79ZM325.347 166V3.0909H323.347V166H325.347ZM324.347 4.0909H389.574V2.0909H324.347V4.0909ZM389.574 4.0909C401.467 4.0909 411.315 5.85493 419.157 9.33451L419.968 7.50639C411.795 3.87991 401.65 2.0909 389.574 2.0909V4.0909ZM419.157 9.33451C427.016 12.8217 432.869 17.6356 436.777 23.7542L438.462 22.6777C434.309 16.175 428.124 11.1252 419.968 7.50639L419.157 9.33451ZM436.779 23.7574C440.695 29.8379 442.665 36.8583 442.665 44.8523H444.665C444.665 36.513 442.604 29.109 438.46 22.6744L436.779 23.7574ZM442.665 44.8523C442.665 51.0804 441.42 56.5101 438.962 61.1698L440.731 62.1029C443.364 57.1111 444.665 51.3514 444.665 44.8523H442.665ZM438.964 61.1658C436.494 65.7976 433.102 69.601 428.778 72.5862L429.915 74.232C434.501 71.0656 438.108 67.0206 440.729 62.1069L438.964 61.1658ZM428.78 72.5848C424.493 75.5292 419.575 77.6292 414.014 78.8765L414.452 80.828C420.239 79.5299 425.397 77.3345 429.913 74.2334L428.78 72.5848ZM413.233 79.8523V81.4432H415.233V79.8523H413.233ZM414.19 82.4423C420.226 82.7002 425.872 84.4006 431.14 87.5514L432.167 85.8349C426.617 82.5161 420.649 80.7164 414.276 80.4441L414.19 82.4423ZM431.144 87.5536C436.45 90.696 440.759 95.1029 444.073 100.798L445.802 99.7926C442.328 93.8214 437.781 89.1601 432.163 85.8327L431.144 87.5536ZM444.075 100.802C447.363 106.401 449.028 113.113 449.028 120.977H451.028C451.028 112.826 449.3 105.75 445.8 99.7891L444.075 100.802ZM449.028 120.977C449.028 129.447 446.927 136.975 442.74 143.59L444.43 144.66C448.835 137.7 451.028 129.796 451.028 120.977H449.028ZM442.739 143.592C438.613 150.142 432.487 155.353 424.307 159.209L425.159 161.018C433.63 157.026 440.072 151.578 444.431 144.658L442.739 143.592ZM424.307 159.209C416.15 163.054 406.044 165 393.949 165V167C406.247 167 416.664 165.022 425.159 161.018L424.307 159.209ZM393.949 165H324.347V167H393.949V165ZM358.79 138.841H386.869V136.841H358.79V138.841ZM386.869 138.841C396.556 138.841 403.841 137.002 408.509 133.121L407.23 131.583C403.095 135.021 396.38 136.841 386.869 136.841V138.841ZM408.514 133.117C413.158 129.2 415.472 123.98 415.472 117.557H413.472C413.472 123.437 411.384 128.08 407.225 131.588L408.514 133.117ZM415.472 117.557C415.472 112.881 414.342 108.715 412.056 105.091L410.364 106.159C412.427 109.429 413.472 113.217 413.472 117.557H415.472ZM412.056 105.091C409.773 101.472 406.522 98.6475 402.341 96.6123L401.466 98.4105C405.346 100.3 408.299 102.885 410.364 106.159L412.056 105.091ZM402.346 96.6146C398.202 94.5701 393.297 93.5682 387.665 93.5682V95.5682C393.063 95.5682 397.651 96.5284 401.461 98.4082L402.346 96.6146ZM387.665 93.5682H358.79V95.5682H387.665V93.5682ZM357.79 94.5682V137.841H359.79V94.5682H357.79ZM358.79 72.2614H384.324V70.2614H358.79V72.2614ZM384.324 72.2614C389.16 72.2614 393.493 71.4188 397.302 69.7076L396.482 67.8833C392.973 69.46 388.927 70.2614 384.324 70.2614V72.2614ZM397.308 69.7049C401.168 67.9401 404.232 65.442 406.465 62.2041L404.819 61.0686C402.809 63.9822 400.04 66.2569 396.476 67.886L397.308 69.7049ZM406.459 62.2136C408.768 58.946 409.903 55.0516 409.903 50.5795H407.903C407.903 54.6984 406.864 58.1752 404.825 61.0591L406.459 62.2136ZM409.903 50.5795C409.903 44.4235 407.698 39.3926 403.272 35.583L401.967 37.0988C405.92 40.5013 407.903 44.9629 407.903 50.5795H409.903ZM403.276 35.5871C398.898 31.7697 392.744 29.9318 384.96 29.9318V31.9318C392.449 31.9318 398.068 33.7 401.962 37.0947L403.276 35.5871ZM384.96 29.9318H358.79V31.9318H384.96V29.9318ZM357.79 30.9318V71.2614H359.79V30.9318H357.79ZM569.111 166H570.111V165H569.111V166ZM569.111 191.693V192.693H570.111V191.693H569.111ZM462.122 191.693H461.122V192.693H462.122V191.693ZM462.122 166V165H461.122V166H462.122ZM568.111 166V191.693H570.111V166H568.111ZM569.111 190.693H462.122V192.693H569.111V190.693ZM463.122 191.693V166H461.122V191.693H463.122ZM462.122 167H569.111V165H462.122V167ZM587.19 166H586.19V167H587.19V166ZM587.19 3.0909V2.0909H586.19V3.0909H587.19ZM682.406 8.42046L682.001 9.33451L682.406 8.42046ZM700.463 23.2159L699.62 23.7542L699.622 23.7574L700.463 23.2159ZM702.69 61.6364L703.573 62.1069L703.575 62.1029L702.69 61.6364ZM692.19 73.4091L692.756 74.2334L692.759 74.232L692.19 73.4091ZM677.077 79.8523L676.858 78.8765L676.077 79.0517V79.8523H677.077ZM677.077 81.4432H676.077V82.4014L677.034 82.4423L677.077 81.4432ZM694.497 86.6932L693.984 87.5514L693.988 87.5536L694.497 86.6932ZM707.781 100.295L706.917 100.798L706.919 100.802L707.781 100.295ZM706.429 144.125L705.584 143.59L705.583 143.592L706.429 144.125ZM687.577 160.114L687.15 159.209L687.577 160.114ZM621.634 137.841H620.634V138.841H621.634V137.841ZM670.713 132.352L671.352 133.121L671.358 133.117L670.713 132.352ZM674.054 105.625L673.208 106.159L674.054 105.625ZM664.747 97.5114L664.305 98.4082L664.309 98.4105L664.747 97.5114ZM621.634 94.5682V93.5682H620.634V94.5682H621.634ZM621.634 71.2614H620.634V72.2614H621.634V71.2614ZM659.736 68.7955L660.146 69.7076L660.152 69.7049L659.736 68.7955ZM668.486 61.6364L667.669 61.0591L667.663 61.0686L668.486 61.6364ZM665.463 36.3409L664.806 37.0947L664.811 37.0988L665.463 36.3409ZM621.634 30.9318V29.9318H620.634V30.9318H621.634ZM588.19 166V3.0909H586.19V166H588.19ZM587.19 4.0909H652.418V2.0909H587.19V4.0909ZM652.418 4.0909C664.311 4.0909 674.159 5.85493 682.001 9.33451L682.812 7.50639C674.639 3.87991 664.494 2.0909 652.418 2.0909V4.0909ZM682.001 9.33451C689.86 12.8217 695.713 17.6356 699.62 23.7542L701.306 22.6777C697.153 16.175 690.968 11.1252 682.812 7.50639L682.001 9.33451ZM699.622 23.7574C703.539 29.8379 705.509 36.8583 705.509 44.8523H707.509C707.509 36.513 705.448 29.109 701.304 22.6744L699.622 23.7574ZM705.509 44.8523C705.509 51.0804 704.264 56.5101 701.806 61.1698L703.575 62.1029C706.208 57.1111 707.509 51.3514 707.509 44.8523H705.509ZM701.808 61.1658C699.338 65.7976 695.945 69.601 691.622 72.5862L692.759 74.232C697.344 71.0656 700.952 67.0206 703.573 62.1069L701.808 61.1658ZM691.624 72.5848C687.337 75.5292 682.419 77.6292 676.858 78.8765L677.296 80.828C683.083 79.5299 688.241 77.3345 692.756 74.2334L691.624 72.5848ZM676.077 79.8523V81.4432H678.077V79.8523H676.077ZM677.034 82.4423C683.07 82.7002 688.715 84.4006 693.984 87.5514L695.01 85.8349C689.461 82.5161 683.493 80.7164 677.119 80.4441L677.034 82.4423ZM693.988 87.5536C699.294 90.696 703.603 95.1029 706.917 100.798L708.646 99.7926C705.171 93.8214 700.625 89.1601 695.007 85.8327L693.988 87.5536ZM706.919 100.802C710.207 106.401 711.872 113.113 711.872 120.977H713.872C713.872 112.826 712.144 105.75 708.644 99.7891L706.919 100.802ZM711.872 120.977C711.872 129.447 709.77 136.975 705.584 143.59L707.274 144.66C711.678 137.7 713.872 129.796 713.872 120.977H711.872ZM705.583 143.592C701.457 150.142 695.331 155.353 687.15 159.209L688.003 161.018C696.474 157.026 702.916 151.578 707.275 144.658L705.583 143.592ZM687.15 159.209C678.994 163.054 668.888 165 656.793 165V167C669.091 167 679.508 165.022 688.003 161.018L687.15 159.209ZM656.793 165H587.19V167H656.793V165ZM621.634 138.841H649.713V136.841H621.634V138.841ZM649.713 138.841C659.4 138.841 666.685 137.002 671.352 133.121L670.074 131.583C665.939 135.021 659.223 136.841 649.713 136.841V138.841ZM671.358 133.117C676.002 129.2 678.315 123.98 678.315 117.557H676.315C676.315 123.437 674.228 128.08 670.068 131.588L671.358 133.117ZM678.315 117.557C678.315 112.881 677.185 108.715 674.9 105.091L673.208 106.159C675.271 109.429 676.315 113.217 676.315 117.557H678.315ZM674.9 105.091C672.616 101.472 669.365 98.6475 665.185 96.6123L664.309 98.4105C668.19 100.3 671.143 102.885 673.208 106.159L674.9 105.091ZM665.19 96.6146C661.045 94.5701 656.141 93.5682 650.509 93.5682V95.5682C655.907 95.5682 660.494 96.5284 664.305 98.4082L665.19 96.6146ZM650.509 93.5682H621.634V95.5682H650.509V93.5682ZM620.634 94.5682V137.841H622.634V94.5682H620.634ZM621.634 72.2614H647.168V70.2614H621.634V72.2614ZM647.168 72.2614C652.004 72.2614 656.337 71.4188 660.146 69.7076L659.326 67.8833C655.817 69.46 651.771 70.2614 647.168 70.2614V72.2614ZM660.152 69.7049C664.012 67.9401 667.076 65.442 669.309 62.2041L667.663 61.0686C665.653 63.9822 662.884 66.2569 659.32 67.886L660.152 69.7049ZM669.302 62.2136C671.612 58.946 672.747 55.0516 672.747 50.5795H670.747C670.747 54.6984 669.708 58.1752 667.669 61.0591L669.302 62.2136ZM672.747 50.5795C672.747 44.4235 670.541 39.3926 666.115 35.583L664.811 37.0988C668.764 40.5013 670.747 44.9629 670.747 50.5795H672.747ZM666.12 35.5871C661.741 31.7697 655.588 29.9318 647.804 29.9318V31.9318C655.293 31.9318 660.912 33.7 664.806 37.0947L666.12 35.5871ZM647.804 29.9318H621.634V31.9318H647.804V29.9318ZM620.634 30.9318V71.2614H622.634V30.9318H620.634ZM767.364 166V167H768.09L768.315 166.309L767.364 166ZM730.455 166L729.509 165.674L729.051 167H730.455V166ZM786.693 3.0909V2.0909H785.98L785.748 2.76459L786.693 3.0909ZM831.08 3.0909L832.025 2.765L831.793 2.0909H831.08V3.0909ZM887.239 166V167H888.641L888.184 165.674L887.239 166ZM850.33 166L849.378 166.309L849.603 167H850.33V166ZM809.523 40.3182L810.474 40.0094L810.249 39.3182H809.523V40.3182ZM808.25 40.3182V39.3182H807.524L807.299 40.0088L808.25 40.3182ZM765.057 101.966V100.966H764.057V101.966H765.057ZM852.239 101.966H853.239V100.966H852.239V101.966ZM852.239 128.852V129.852H853.239V128.852H852.239ZM765.057 128.852H764.057V129.852H765.057V128.852ZM767.364 165H730.455V167H767.364V165ZM731.4 166.326L787.638 3.41722L785.748 2.76459L729.509 165.674L731.4 166.326ZM786.693 4.0909H831.08V2.0909H786.693V4.0909ZM830.134 3.41681L886.293 166.326L888.184 165.674L832.025 2.765L830.134 3.41681ZM887.239 165H850.33V167H887.239V165ZM851.281 165.691L810.474 40.0094L808.572 40.627L849.378 166.309L851.281 165.691ZM809.523 39.3182H808.25V41.3182H809.523V39.3182ZM807.299 40.0088L766.413 165.691L768.315 166.309L809.201 40.6275L807.299 40.0088ZM765.057 102.966H852.239V100.966H765.057V102.966ZM851.239 101.966V128.852H853.239V101.966H851.239ZM852.239 127.852H765.057V129.852H852.239V127.852ZM766.057 128.852V101.966H764.057V128.852H766.057ZM910.847 166H909.847V167H910.847V166ZM910.847 3.0909V2.0909H909.847V3.0909H910.847ZM1006.62 9.69318L1006.17 10.5854L1006.17 10.5887L1006.62 9.69318ZM1026.59 28.2273L1025.72 28.7222L1025.72 28.729L1026.59 28.2273ZM1026.51 84.2273L1027.36 84.7435L1027.36 84.7409L1026.51 84.2273ZM1006.22 102.045L1005.8 101.139L1005.8 101.14L1006.22 102.045ZM931.21 108.25H930.21V109.25H931.21V108.25ZM931.21 80.5682V79.5682H930.21V80.5682H931.21ZM985.062 77.8636L985.445 78.7874L985.062 77.8636ZM994.767 69.75L993.911 69.2336L993.905 69.243L994.767 69.75ZM994.767 42.625L993.899 43.1212L993.904 43.1304L994.767 42.625ZM984.983 34.1932L984.572 35.1047L984.578 35.1077L984.585 35.1106L984.983 34.1932ZM945.29 31.25V30.25H944.29V31.25H945.29ZM945.29 166V167H946.29V166H945.29ZM998.824 91.8636L999.702 91.3843L999.417 90.8636H998.824V91.8636ZM1039.31 166V167H1041L1040.19 165.521L1039.31 166ZM1001.29 166L1000.41 166.471L1000.69 167H1001.29V166ZM961.676 91.8636V90.8636H960.008L960.794 92.3349L961.676 91.8636ZM911.847 166V3.0909H909.847V166H911.847ZM910.847 4.0909H975.119V2.0909H910.847V4.0909ZM975.119 4.0909C987.306 4.0909 997.643 6.27087 1006.17 10.5854L1007.07 8.80094C998.202 4.31245 987.539 2.0909 975.119 2.0909V4.0909ZM1006.17 10.5887C1014.76 14.8543 1021.26 20.8979 1025.72 28.7222L1027.45 27.7324C1022.79 19.5415 1015.98 13.229 1007.06 8.79767L1006.17 10.5887ZM1025.72 28.729C1030.23 36.5068 1032.51 45.6875 1032.51 56.3068H1034.51C1034.51 45.3958 1032.17 35.8568 1027.45 27.7256L1025.72 28.729ZM1032.51 56.3068C1032.51 66.9788 1030.21 76.1007 1025.65 83.7136L1027.36 84.7409C1032.14 76.7629 1034.51 67.2712 1034.51 56.3068H1032.51ZM1025.65 83.711C1021.09 91.2695 1014.49 97.0799 1005.8 101.139L1006.64 102.951C1015.67 98.7383 1022.58 92.6699 1027.36 84.7435L1025.65 83.711ZM1005.8 101.14C997.159 105.199 986.653 107.25 974.244 107.25V109.25C986.866 109.25 997.678 107.165 1006.65 102.951L1005.8 101.14ZM974.244 107.25H931.21V109.25H974.244V107.25ZM932.21 108.25V80.5682H930.21V108.25H932.21ZM931.21 81.5682H968.676V79.5682H931.21V81.5682ZM968.676 81.5682C975.335 81.5682 980.938 80.6565 985.445 78.7874L984.68 76.9399C980.49 78.6768 975.169 79.5682 968.676 79.5682V81.5682ZM985.445 78.7874C989.968 76.9121 993.384 74.0735 995.629 70.257L993.905 69.243C991.908 72.6386 988.854 75.2091 984.68 76.9399L985.445 78.7874ZM995.623 70.2663C997.914 66.4674 999.028 61.796 999.028 56.3068H997.028C997.028 61.5297 995.969 65.8205 993.911 69.2337L995.623 70.2663ZM999.028 56.3068C999.028 50.7652 997.914 46.0198 995.63 42.1196L993.904 43.1304C995.968 46.6545 997.028 51.0302 997.028 56.3068H999.028ZM995.635 42.1289C993.394 38.2065 989.955 35.2598 985.381 33.2758L984.585 35.1106C988.814 36.9447 991.898 39.6192 993.899 43.1211L995.635 42.1289ZM985.394 33.2817C980.876 31.2432 975.236 30.25 968.517 30.25V32.25C975.056 32.25 980.392 33.219 984.572 35.1047L985.394 33.2817ZM968.517 30.25H945.29V32.25H968.517V30.25ZM944.29 31.25V166H946.29V31.25H944.29ZM945.29 165H910.847V167H945.29V165ZM997.946 92.343L1038.43 166.479L1040.19 165.521L999.702 91.3843L997.946 92.343ZM1039.31 165H1001.29V167H1039.31V165ZM1002.17 165.529L962.558 91.3924L960.794 92.3349L1000.41 166.471L1002.17 165.529ZM961.676 92.8636H998.824V90.8636H961.676V92.8636Z" fill="#666666"/>
</svg>
