<svg width="96" height="21" viewBox="0 0 96 21" fill="none" xmlns="http://www.w3.org/2000/svg">
<path d="M12.3409 8.64205L9.01705 8.84659C8.96023 8.5625 8.83807 8.30682 8.65057 8.07955C8.46307 7.84659 8.21591 7.66193 7.90909 7.52557C7.60795 7.38352 7.24716 7.3125 6.8267 7.3125C6.2642 7.3125 5.78977 7.43182 5.40341 7.67045C5.01705 7.90341 4.82386 8.21591 4.82386 8.60795C4.82386 8.92045 4.94886 9.18466 5.19886 9.40057C5.44886 9.61648 5.87784 9.78977 6.4858 9.92045L8.85511 10.3977C10.1278 10.6591 11.0767 11.0795 11.7017 11.6591C12.3267 12.2386 12.6392 13 12.6392 13.9432C12.6392 14.8011 12.3864 15.554 11.8807 16.2017C11.3807 16.8494 10.6932 17.3551 9.81818 17.7188C8.94886 18.0767 7.94602 18.2557 6.80966 18.2557C5.0767 18.2557 3.69602 17.8949 2.66761 17.1733C1.64489 16.446 1.04545 15.4574 0.869318 14.2074L4.44034 14.0199C4.5483 14.5483 4.80966 14.9517 5.22443 15.2301C5.6392 15.5028 6.17045 15.6392 6.81818 15.6392C7.45455 15.6392 7.96591 15.517 8.35227 15.2727C8.74432 15.0227 8.94318 14.7017 8.94886 14.3097C8.94318 13.9801 8.80398 13.7102 8.53125 13.5C8.25852 13.2841 7.83807 13.1193 7.26989 13.0057L5.00284 12.554C3.72443 12.2983 2.77273 11.8551 2.14773 11.2244C1.52841 10.5937 1.21875 9.78977 1.21875 8.8125C1.21875 7.97159 1.44602 7.24716 1.90057 6.6392C2.3608 6.03125 3.00568 5.5625 3.83523 5.23295C4.67045 4.90341 5.64773 4.73864 6.76705 4.73864C8.42045 4.73864 9.72159 5.08807 10.6705 5.78693C11.625 6.4858 12.1818 7.4375 12.3409 8.64205ZM22.9203 12.4261V4.90909H26.551V18H23.0652V15.6222H22.9288C22.6334 16.3892 22.1419 17.0057 21.4544 17.4716C20.7726 17.9375 19.9402 18.1705 18.9572 18.1705C18.0822 18.1705 17.3124 17.9716 16.6476 17.5739C15.9828 17.1761 15.4629 16.6108 15.0879 15.8778C14.7186 15.1449 14.5311 14.267 14.5254 13.2443V4.90909H18.1561V12.5966C18.1618 13.3693 18.3692 13.9801 18.7783 14.429C19.1874 14.8778 19.7357 15.1023 20.4232 15.1023C20.8607 15.1023 21.2697 15.0028 21.6504 14.804C22.0311 14.5994 22.3379 14.2983 22.5709 13.9006C22.8095 13.5028 22.926 13.0114 22.9203 12.4261ZM29.1233 18V0.545454H32.754V7.10795H32.8648C33.0239 6.75568 33.254 6.39773 33.5551 6.03409C33.8619 5.66477 34.2597 5.35795 34.7483 5.11364C35.2426 4.86364 35.8563 4.73864 36.5892 4.73864C37.5438 4.73864 38.4244 4.98864 39.2313 5.48864C40.0381 5.98295 40.683 6.73011 41.1659 7.73011C41.6489 8.72443 41.8903 9.97159 41.8903 11.4716C41.8903 12.9318 41.6545 14.1648 41.183 15.1705C40.717 16.1705 40.0807 16.929 39.2739 17.446C38.4727 17.9574 37.575 18.2131 36.5807 18.2131C35.8761 18.2131 35.2767 18.0966 34.7824 17.8636C34.2938 17.6307 33.8932 17.3381 33.5807 16.9858C33.2682 16.6278 33.0295 16.267 32.8648 15.9034H32.7028V18H29.1233ZM32.6773 11.4545C32.6773 12.233 32.7852 12.9119 33.0011 13.4915C33.217 14.071 33.5295 14.5227 33.9386 14.8466C34.3477 15.1648 34.8449 15.3239 35.4301 15.3239C36.021 15.3239 36.521 15.1619 36.9301 14.8381C37.3392 14.5085 37.6489 14.054 37.8591 13.4744C38.075 12.8892 38.183 12.2159 38.183 11.4545C38.183 10.6989 38.0778 10.0341 37.8676 9.46023C37.6574 8.88636 37.3477 8.4375 36.9386 8.11364C36.5295 7.78977 36.0267 7.62784 35.4301 7.62784C34.8392 7.62784 34.3392 7.78409 33.9301 8.09659C33.5267 8.40909 33.217 8.85227 33.0011 9.42614C32.7852 10 32.6773 10.6761 32.6773 11.4545ZM53.9101 18V20.7528H42.447V18H53.9101ZM55.0186 18V0.545454H58.6493V7.10795H58.7601C58.9192 6.75568 59.1493 6.39773 59.4504 6.03409C59.7572 5.66477 60.155 5.35795 60.6436 5.11364C61.1379 4.86364 61.7516 4.73864 62.4845 4.73864C63.4391 4.73864 64.3197 4.98864 65.1266 5.48864C65.9334 5.98295 66.5783 6.73011 67.0612 7.73011C67.5442 8.72443 67.7857 9.97159 67.7857 11.4716C67.7857 12.9318 67.5499 14.1648 67.0783 15.1705C66.6124 16.1705 65.976 16.929 65.1692 17.446C64.368 17.9574 63.4703 18.2131 62.476 18.2131C61.7715 18.2131 61.172 18.0966 60.6777 17.8636C60.1891 17.6307 59.7885 17.3381 59.476 16.9858C59.1635 16.6278 58.9249 16.267 58.7601 15.9034H58.5982V18H55.0186ZM58.5726 11.4545C58.5726 12.233 58.6805 12.9119 58.8965 13.4915C59.1124 14.071 59.4249 14.5227 59.834 14.8466C60.243 15.1648 60.7402 15.3239 61.3254 15.3239C61.9163 15.3239 62.4163 15.1619 62.8254 14.8381C63.2345 14.5085 63.5442 14.054 63.7544 13.4744C63.9703 12.8892 64.0783 12.2159 64.0783 11.4545C64.0783 10.6989 63.9732 10.0341 63.7629 9.46023C63.5527 8.88636 63.243 8.4375 62.834 8.11364C62.4249 7.78977 61.922 7.62784 61.3254 7.62784C60.7345 7.62784 60.2345 7.78409 59.8254 8.09659C59.422 8.40909 59.1124 8.85227 58.8965 9.42614C58.6805 10 58.5726 10.6761 58.5726 11.4545ZM73.5412 18.2472C72.706 18.2472 71.9616 18.1023 71.3082 17.8125C70.6548 17.517 70.1378 17.0824 69.7571 16.5085C69.3821 15.929 69.1946 15.2074 69.1946 14.3438C69.1946 13.6165 69.3281 13.0057 69.5952 12.5114C69.8622 12.017 70.2259 11.6193 70.6861 11.3182C71.1463 11.017 71.669 10.7898 72.2543 10.6364C72.8452 10.483 73.4645 10.375 74.1122 10.3125C74.8736 10.233 75.4872 10.1591 75.9531 10.0909C76.419 10.017 76.7571 9.90909 76.9673 9.76705C77.1776 9.625 77.2827 9.41477 77.2827 9.13636V9.08523C77.2827 8.54545 77.1122 8.12784 76.7713 7.83239C76.4361 7.53693 75.9588 7.3892 75.3395 7.3892C74.6861 7.3892 74.1662 7.53409 73.7798 7.82386C73.3935 8.10795 73.1378 8.46591 73.0128 8.89773L69.6548 8.625C69.8253 7.82955 70.1605 7.14205 70.6605 6.5625C71.1605 5.97727 71.8054 5.52841 72.5952 5.21591C73.3906 4.89773 74.3111 4.73864 75.3565 4.73864C76.0838 4.73864 76.7798 4.82386 77.4446 4.99432C78.1151 5.16477 78.7088 5.42898 79.2259 5.78693C79.7486 6.14489 80.1605 6.60511 80.4616 7.16761C80.7628 7.72443 80.9134 8.39205 80.9134 9.17045V18H77.4702V16.1847H77.3679C77.1577 16.5938 76.8764 16.9545 76.5241 17.267C76.1719 17.5739 75.7486 17.8153 75.2543 17.9915C74.7599 18.1619 74.1889 18.2472 73.5412 18.2472ZM74.581 15.7415C75.1151 15.7415 75.5866 15.6364 75.9957 15.4261C76.4048 15.2102 76.7259 14.9205 76.9588 14.5568C77.1918 14.1932 77.3082 13.7812 77.3082 13.321V11.9318C77.1946 12.0057 77.0384 12.0739 76.8395 12.1364C76.6463 12.1932 76.4276 12.2472 76.1832 12.2983C75.9389 12.3437 75.6946 12.3864 75.4503 12.4261C75.206 12.4602 74.9844 12.4915 74.7855 12.5199C74.3594 12.5824 73.9872 12.6818 73.669 12.8182C73.3509 12.9545 73.1037 13.1392 72.9276 13.3722C72.7514 13.5994 72.6634 13.8835 72.6634 14.2244C72.6634 14.7188 72.8423 15.0966 73.2003 15.358C73.5639 15.6136 74.0241 15.7415 74.581 15.7415ZM83.3301 18V4.90909H86.85V7.19318H86.9864C87.225 6.38068 87.6256 5.76705 88.1881 5.35227C88.7506 4.93182 89.3983 4.72159 90.1312 4.72159C90.3131 4.72159 90.5091 4.73295 90.7193 4.75568C90.9295 4.77841 91.1142 4.80966 91.2733 4.84943V8.07102C91.1028 8.01989 90.867 7.97443 90.5659 7.93466C90.2648 7.89489 89.9892 7.875 89.7392 7.875C89.2051 7.875 88.7278 7.99148 88.3074 8.22443C87.8926 8.4517 87.5631 8.76989 87.3187 9.17898C87.0801 9.58807 86.9608 10.0597 86.9608 10.5938V18H83.3301ZM93.3726 18.2216C92.8101 18.2216 92.3271 18.0227 91.9237 17.625C91.526 17.2216 91.3271 16.7386 91.3271 16.1761C91.3271 15.6193 91.526 15.142 91.9237 14.7443C92.3271 14.3466 92.8101 14.1477 93.3726 14.1477C93.918 14.1477 94.3953 14.3466 94.8044 14.7443C95.2135 15.142 95.418 15.6193 95.418 16.1761C95.418 16.5511 95.3214 16.8949 95.1283 17.2074C94.9408 17.5142 94.6936 17.7614 94.3868 17.9489C94.08 18.1307 93.7419 18.2216 93.3726 18.2216Z" fill="white"/>
</svg>
