<svg width="675" height="56" viewBox="0 0 675 56" fill="none" xmlns="http://www.w3.org/2000/svg">
<path d="M270.523 12.5682V4.45454H308.75V12.5682H294.5V51H284.773V12.5682H270.523ZM315.045 51V4.45454H346.409V12.5682H324.886V23.6591H344.795V31.7727H324.886V42.8864H346.5V51H315.045ZM362.256 51H351.71L367.778 4.45454H380.46L396.506 51H385.96L374.301 15.0909H373.938L362.256 51ZM361.597 32.7045H386.506V40.3864H361.597V32.7045ZM440.989 20.75H431.034C430.852 19.4621 430.481 18.3182 429.92 17.3182C429.36 16.303 428.64 15.4394 427.761 14.7273C426.883 14.0151 425.867 13.4697 424.716 13.0909C423.58 12.7121 422.345 12.5227 421.011 12.5227C418.602 12.5227 416.504 13.1212 414.716 14.3182C412.928 15.5 411.542 17.2273 410.557 19.5C409.572 21.7576 409.08 24.5 409.08 27.7273C409.08 31.0455 409.572 33.8333 410.557 36.0909C411.557 38.3485 412.951 40.053 414.739 41.2045C416.527 42.3561 418.595 42.9318 420.943 42.9318C422.261 42.9318 423.481 42.7576 424.602 42.4091C425.739 42.0606 426.746 41.553 427.625 40.8864C428.504 40.2045 429.231 39.3788 429.807 38.4091C430.398 37.4394 430.807 36.3333 431.034 35.0909L440.989 35.1364C440.731 37.2727 440.087 39.3333 439.057 41.3182C438.042 43.2879 436.67 45.053 434.943 46.6136C433.231 48.1591 431.186 49.3864 428.807 50.2955C426.443 51.1894 423.769 51.6364 420.784 51.6364C416.633 51.6364 412.92 50.697 409.648 48.8182C406.39 46.9394 403.814 44.2197 401.92 40.6591C400.042 37.0985 399.102 32.7879 399.102 27.7273C399.102 22.6515 400.057 18.3333 401.966 14.7727C403.875 11.2121 406.466 8.5 409.739 6.63636C413.011 4.75757 416.693 3.81818 420.784 3.81818C423.481 3.81818 425.981 4.19697 428.284 4.95454C430.602 5.71212 432.655 6.81818 434.443 8.27272C436.231 9.71212 437.686 11.4773 438.807 13.5682C439.943 15.6591 440.67 18.053 440.989 20.75ZM448.045 51V4.45454H457.886V23.6591H477.864V4.45454H487.682V51H477.864V31.7727H457.886V51H448.045ZM495.795 51V4.45454H527.159V12.5682H505.636V23.6591H525.545V31.7727H505.636V42.8864H527.25V51H495.795ZM534.983 51V4.45454H553.347C556.862 4.45454 559.862 5.08333 562.347 6.34091C564.847 7.58333 566.748 9.34848 568.051 11.6364C569.369 13.9091 570.028 16.5833 570.028 19.6591C570.028 22.75 569.362 25.4091 568.028 27.6364C566.695 29.8485 564.763 31.5455 562.233 32.7273C559.718 33.9091 556.672 34.5 553.097 34.5H540.801V26.5909H551.506C553.384 26.5909 554.945 26.3333 556.188 25.8182C557.43 25.303 558.354 24.5303 558.96 23.5C559.581 22.4697 559.892 21.1894 559.892 19.6591C559.892 18.1136 559.581 16.8106 558.96 15.75C558.354 14.6894 557.422 13.8864 556.165 13.3409C554.922 12.7803 553.354 12.5 551.46 12.5H544.824V51H534.983ZM560.119 29.8182L571.688 51H560.824L549.506 29.8182H560.119ZM602.233 17.8409C602.051 16.0076 601.271 14.5833 599.892 13.5682C598.513 12.553 596.642 12.0455 594.278 12.0455C592.672 12.0455 591.316 12.2727 590.21 12.7273C589.104 13.1667 588.256 13.7803 587.665 14.5682C587.089 15.3561 586.801 16.25 586.801 17.25C586.771 18.0833 586.945 18.8106 587.324 19.4318C587.718 20.053 588.256 20.5909 588.938 21.0455C589.619 21.4848 590.407 21.8712 591.301 22.2045C592.195 22.5227 593.15 22.7955 594.165 23.0227L598.347 24.0227C600.377 24.4773 602.241 25.0833 603.938 25.8409C605.634 26.5985 607.104 27.5303 608.347 28.6364C609.589 29.7424 610.551 31.0455 611.233 32.5455C611.93 34.0455 612.286 35.7652 612.301 37.7045C612.286 40.553 611.559 43.0227 610.119 45.1136C608.695 47.1894 606.634 48.803 603.938 49.9545C601.256 51.0909 598.021 51.6591 594.233 51.6591C590.475 51.6591 587.203 51.0833 584.415 49.9318C581.642 48.7803 579.475 47.0758 577.915 44.8182C576.369 42.5455 575.559 39.7348 575.483 36.3864H585.006C585.112 37.947 585.559 39.25 586.347 40.2955C587.15 41.3258 588.218 42.1061 589.551 42.6364C590.9 43.1515 592.422 43.4091 594.119 43.4091C595.786 43.4091 597.233 43.1667 598.46 42.6818C599.703 42.197 600.665 41.5227 601.347 40.6591C602.028 39.7955 602.369 38.803 602.369 37.6818C602.369 36.6364 602.059 35.7576 601.438 35.0455C600.831 34.3333 599.938 33.7273 598.756 33.2273C597.589 32.7273 596.157 32.2727 594.46 31.8636L589.392 30.5909C585.468 29.6364 582.369 28.1439 580.097 26.1136C577.824 24.0833 576.695 21.3485 576.71 17.9091C576.695 15.0909 577.445 12.6288 578.96 10.5227C580.491 8.41667 582.589 6.77273 585.256 5.59091C587.922 4.40909 590.953 3.81818 594.347 3.81818C597.801 3.81818 600.816 4.40909 603.392 5.59091C605.983 6.77273 607.998 8.41667 609.438 10.5227C610.877 12.6288 611.619 15.0682 611.665 17.8409H602.233Z" fill="white"/>
<path d="M0 28H675" stroke="white" stroke-width="1.6"/>
</svg>
