<svg width="675" height="298" viewBox="0 0 675 298" fill="none" xmlns="http://www.w3.org/2000/svg">
<path d="M349.648 174.568V166.455H387.875V174.568H373.625V213H363.898V174.568H349.648ZM394.17 213V166.455H425.534V174.568H404.011V185.659H423.92V193.773H404.011V204.886H425.625V213H394.17ZM441.381 213H430.835L446.903 166.455H459.585L475.631 213H465.085L453.426 177.091H453.062L441.381 213ZM440.722 194.705H465.631V202.386H440.722V194.705ZM481.233 166.455H493.369L506.188 197.727H506.733L519.551 166.455H531.688V213H522.142V182.705H521.756L509.71 212.773H503.21L491.165 182.591H490.778V213H481.233V166.455Z" fill="white"/>
<path d="M0 190H675" stroke="white" stroke-width="1.6"/>
</svg>
