<svg width="202" height="25" viewBox="0 0 202 25" fill="none" xmlns="http://www.w3.org/2000/svg">
<path d="M15.2363 0.727272H18.759V16.0341C18.759 17.6629 18.3764 19.1061 17.6113 20.3636C16.8461 21.6136 15.7704 22.5985 14.384 23.3182C12.9976 24.0303 11.3726 24.3864 9.50899 24.3864C7.65293 24.3864 6.03172 24.0303 4.64536 23.3182C3.25899 22.5985 2.18324 21.6136 1.41808 20.3636C0.652933 19.1061 0.270357 17.6629 0.270357 16.0341V0.727272H3.78172V15.75C3.78172 16.803 4.01278 17.7386 4.4749 18.5568C4.9446 19.375 5.60748 20.0189 6.46354 20.4886C7.3196 20.9508 8.33475 21.1818 9.50899 21.1818C10.6908 21.1818 11.7098 20.9508 12.5658 20.4886C13.4294 20.0189 14.0885 19.375 14.5431 18.5568C15.0052 17.7386 15.2363 16.803 15.2363 15.75V0.727272ZM27.8641 24V0.727272H36.1596C37.9702 0.727272 39.4702 1.05682 40.6596 1.71591C41.849 2.375 42.7391 3.27651 43.33 4.42045C43.9209 5.55682 44.2164 6.83712 44.2164 8.26136C44.2164 9.69318 43.9171 10.9811 43.3187 12.125C42.7277 13.2614 41.8338 14.1629 40.6368 14.8295C39.4474 15.4886 37.9512 15.8182 36.1482 15.8182H30.4437V12.8409H35.83C36.974 12.8409 37.902 12.6439 38.6141 12.25C39.3262 11.8485 39.849 11.303 40.1823 10.6136C40.5156 9.92424 40.6823 9.14015 40.6823 8.26136C40.6823 7.38258 40.5156 6.60227 40.1823 5.92045C39.849 5.23864 39.3224 4.70454 38.6027 4.31818C37.8906 3.93182 36.9512 3.73864 35.7846 3.73864H31.3755V24H27.8641ZM71.6624 8.29545H68.1169C67.9806 7.53788 67.7268 6.87121 67.3556 6.29545C66.9844 5.7197 66.5298 5.23106 65.9919 4.82954C65.4541 4.42803 64.8518 4.125 64.1851 3.92045C63.526 3.71591 62.8253 3.61364 62.0829 3.61364C60.7419 3.61364 59.5412 3.95076 58.4806 4.625C57.4276 5.29924 56.5942 6.28788 55.9806 7.59091C55.3745 8.89394 55.0715 10.4848 55.0715 12.3636C55.0715 14.2576 55.3745 15.8561 55.9806 17.1591C56.5942 18.4621 57.4313 19.447 58.4919 20.1136C59.5526 20.7803 60.7457 21.1136 62.0715 21.1136C62.8063 21.1136 63.5033 21.0152 64.1624 20.8182C64.8291 20.6136 65.4313 20.3144 65.9692 19.9205C66.5071 19.5265 66.9616 19.0455 67.3329 18.4773C67.7116 17.9015 67.973 17.2424 68.1169 16.5L71.6624 16.5114C71.473 17.6553 71.1056 18.7083 70.5601 19.6705C70.0223 20.625 69.3291 21.4508 68.4806 22.1477C67.6397 22.8371 66.6776 23.3712 65.5942 23.75C64.5109 24.1288 63.3291 24.3182 62.0488 24.3182C60.0336 24.3182 58.2382 23.8409 56.6624 22.8864C55.0866 21.9242 53.8442 20.5492 52.9351 18.7614C52.0336 16.9735 51.5829 14.8409 51.5829 12.3636C51.5829 9.87879 52.0374 7.74621 52.9465 5.96591C53.8556 4.17803 55.098 2.80682 56.6738 1.85227C58.2495 0.890151 60.0412 0.40909 62.0488 0.40909C63.2836 0.40909 64.4351 0.587121 65.5033 0.943182C66.5791 1.29167 67.545 1.80682 68.401 2.48864C69.2571 3.16288 69.9654 3.98864 70.526 4.96591C71.0866 5.93561 71.4654 7.04545 71.6624 8.29545ZM100.08 12.3636C100.08 14.8485 99.6255 16.9848 98.7164 18.7727C97.8073 20.553 96.5611 21.9242 94.9777 22.8864C93.402 23.8409 91.6103 24.3182 89.6027 24.3182C87.5876 24.3182 85.7884 23.8409 84.205 22.8864C82.6293 21.9242 81.3868 20.5492 80.4777 18.7614C79.5687 16.9735 79.1141 14.8409 79.1141 12.3636C79.1141 9.87879 79.5687 7.74621 80.4777 5.96591C81.3868 4.17803 82.6293 2.80682 84.205 1.85227C85.7884 0.890151 87.5876 0.40909 89.6027 0.40909C91.6103 0.40909 93.402 0.890151 94.9777 1.85227C96.5611 2.80682 97.8073 4.17803 98.7164 5.96591C99.6255 7.74621 100.08 9.87879 100.08 12.3636ZM96.6027 12.3636C96.6027 10.4697 96.2959 8.875 95.6823 7.57954C95.0762 6.27651 94.2429 5.29167 93.1823 4.625C92.1293 3.95076 90.9361 3.61364 89.6027 3.61364C88.2618 3.61364 87.0649 3.95076 86.0118 4.625C84.9588 5.29167 84.1255 6.27651 83.5118 7.57954C82.9058 8.875 82.6027 10.4697 82.6027 12.3636C82.6027 14.2576 82.9058 15.8561 83.5118 17.1591C84.1255 18.4545 84.9588 19.4394 86.0118 20.1136C87.0649 20.7803 88.2618 21.1136 89.6027 21.1136C90.9361 21.1136 92.1293 20.7803 93.1823 20.1136C94.2429 19.4394 95.0762 18.4545 95.6823 17.1591C96.2959 15.8561 96.6027 14.2576 96.6027 12.3636ZM108.458 0.727272H112.719L120.128 18.8182H120.401L127.81 0.727272H132.071V24H128.731V7.15909H128.515L121.651 23.9659H118.878L112.015 7.14773H111.799V24H108.458V0.727272ZM144.688 0.727272V24H141.177V0.727272H144.688ZM172.586 0.727272V24H169.358L157.529 6.93182H157.313V24H153.802V0.727272H157.052L168.893 17.8182H169.108V0.727272H172.586ZM197.458 8.07955C197.238 7.39015 196.943 6.77273 196.571 6.22727C196.208 5.67424 195.772 5.20454 195.265 4.81818C194.757 4.42424 194.178 4.125 193.526 3.92045C192.882 3.71591 192.174 3.61364 191.401 3.61364C190.09 3.61364 188.909 3.95076 187.856 4.625C186.803 5.29924 185.969 6.28788 185.356 7.59091C184.75 8.88636 184.446 10.4735 184.446 12.3523C184.446 14.2386 184.753 15.8333 185.367 17.1364C185.981 18.4394 186.821 19.428 187.89 20.1023C188.958 20.7765 190.174 21.1136 191.537 21.1136C192.803 21.1136 193.905 20.8561 194.844 20.3409C195.791 19.8258 196.522 19.0985 197.037 18.1591C197.56 17.2121 197.821 16.0985 197.821 14.8182L198.731 14.9886H192.071V12.0909H201.219V14.7386C201.219 16.6932 200.803 18.3902 199.969 19.8295C199.143 21.2614 198 22.3674 196.537 23.1477C195.083 23.928 193.416 24.3182 191.537 24.3182C189.431 24.3182 187.583 23.8333 185.992 22.8636C184.409 21.8939 183.174 20.5189 182.287 18.7386C181.401 16.9508 180.958 14.8295 180.958 12.375C180.958 10.5189 181.215 8.85227 181.731 7.375C182.246 5.89773 182.969 4.64394 183.901 3.61364C184.84 2.57576 185.943 1.78409 187.208 1.23864C188.481 0.685605 189.871 0.40909 191.378 0.40909C192.636 0.40909 193.806 0.594696 194.89 0.965908C195.981 1.33712 196.95 1.86364 197.799 2.54545C198.655 3.22727 199.363 4.03788 199.924 4.97727C200.484 5.90909 200.863 6.94318 201.06 8.07955H197.458Z" fill="white"/>
</svg>
