<svg width="1304" height="717" viewBox="0 0 1304 717" fill="none" xmlns="http://www.w3.org/2000/svg">
<path d="M203.068 227V157.182H249.295V169.352H217.83V185.989H246.227V198.159H217.83V227H203.068ZM321.384 192.091C321.384 199.705 319.94 206.182 317.054 211.523C314.19 216.864 310.281 220.943 305.327 223.761C300.395 226.557 294.849 227.955 288.69 227.955C282.486 227.955 276.918 226.545 271.986 223.727C267.054 220.909 263.156 216.83 260.293 211.489C257.429 206.148 255.997 199.682 255.997 192.091C255.997 184.477 257.429 178 260.293 172.659C263.156 167.318 267.054 163.25 271.986 160.455C276.918 157.636 282.486 156.227 288.69 156.227C294.849 156.227 300.395 157.636 305.327 160.455C310.281 163.25 314.19 167.318 317.054 172.659C319.94 178 321.384 184.477 321.384 192.091ZM306.418 192.091C306.418 187.159 305.679 183 304.202 179.614C302.747 176.227 300.69 173.659 298.031 171.909C295.372 170.159 292.259 169.284 288.69 169.284C285.122 169.284 282.009 170.159 279.349 171.909C276.69 173.659 274.622 176.227 273.145 179.614C271.69 183 270.963 187.159 270.963 192.091C270.963 197.023 271.69 201.182 273.145 204.568C274.622 207.955 276.69 210.523 279.349 212.273C282.009 214.023 285.122 214.898 288.69 214.898C292.259 214.898 295.372 214.023 298.031 212.273C300.69 210.523 302.747 207.955 304.202 204.568C305.679 201.182 306.418 197.023 306.418 192.091ZM330.318 227V157.182H357.864C363.136 157.182 367.636 158.125 371.364 160.011C375.114 161.875 377.966 164.523 379.92 167.955C381.898 171.364 382.886 175.375 382.886 179.989C382.886 184.625 381.886 188.614 379.886 191.955C377.886 195.273 374.989 197.818 371.193 199.591C367.42 201.364 362.852 202.25 357.489 202.25H339.045V190.386H355.102C357.92 190.386 360.261 190 362.125 189.227C363.989 188.455 365.375 187.295 366.284 185.75C367.216 184.205 367.682 182.284 367.682 179.989C367.682 177.67 367.216 175.716 366.284 174.125C365.375 172.534 363.977 171.33 362.091 170.511C360.227 169.67 357.875 169.25 355.034 169.25H345.08V227H330.318ZM368.023 195.227L385.375 227H369.08L352.102 195.227H368.023ZM411.537 227V157.182H426.298V185.989H456.264V157.182H470.991V227H456.264V198.159H426.298V227H411.537ZM493.196 227H477.378L501.48 157.182H520.503L544.571 227H528.753L511.264 173.136H510.719L493.196 227ZM492.207 199.557H529.571V211.08H492.207V199.557ZM550.974 227V157.182H578.52C583.815 157.182 588.327 158.193 592.054 160.216C595.781 162.216 598.622 165 600.577 168.568C602.554 172.114 603.543 176.205 603.543 180.841C603.543 185.477 602.543 189.568 600.543 193.114C598.543 196.659 595.645 199.42 591.849 201.398C588.077 203.375 583.509 204.364 578.145 204.364H560.588V192.534H575.759C578.599 192.534 580.94 192.045 582.781 191.068C584.645 190.068 586.031 188.693 586.94 186.943C587.872 185.17 588.338 183.136 588.338 180.841C588.338 178.523 587.872 176.5 586.94 174.773C586.031 173.023 584.645 171.67 582.781 170.716C580.918 169.739 578.554 169.25 575.69 169.25H565.736V227H550.974ZM608.472 169.352V157.182H665.812V169.352H644.438V227H629.847V169.352H608.472ZM688.017 157.182V227H673.256V157.182H688.017ZM759.764 181.625H744.832C744.56 179.693 744.003 177.977 743.162 176.477C742.321 174.955 741.241 173.659 739.923 172.591C738.605 171.523 737.082 170.705 735.355 170.136C733.651 169.568 731.798 169.284 729.798 169.284C726.185 169.284 723.037 170.182 720.355 171.977C717.673 173.75 715.594 176.341 714.116 179.75C712.639 183.136 711.901 187.25 711.901 192.091C711.901 197.068 712.639 201.25 714.116 204.636C715.616 208.023 717.707 210.58 720.389 212.307C723.071 214.034 726.173 214.898 729.696 214.898C731.673 214.898 733.503 214.636 735.185 214.114C736.889 213.591 738.401 212.83 739.719 211.83C741.037 210.807 742.128 209.568 742.991 208.114C743.878 206.659 744.491 205 744.832 203.136L759.764 203.205C759.378 206.409 758.412 209.5 756.866 212.477C755.344 215.432 753.287 218.08 750.696 220.42C748.128 222.739 745.06 224.58 741.491 225.943C737.946 227.284 733.935 227.955 729.457 227.955C723.23 227.955 717.662 226.545 712.753 223.727C707.866 220.909 704.003 216.83 701.162 211.489C698.344 206.148 696.935 199.682 696.935 192.091C696.935 184.477 698.366 178 701.23 172.659C704.094 167.318 707.98 163.25 712.889 160.455C717.798 157.636 723.321 156.227 729.457 156.227C733.503 156.227 737.253 156.795 740.707 157.932C744.185 159.068 747.264 160.727 749.946 162.909C752.628 165.068 754.81 167.716 756.491 170.852C758.196 173.989 759.287 177.58 759.764 181.625ZM800.602 227H784.784L808.886 157.182H827.909L851.977 227H836.159L818.67 173.136H818.125L800.602 227ZM799.614 199.557H836.977V211.08H799.614V199.557ZM858.381 227V157.182H885.926C891.199 157.182 895.699 158.125 899.426 160.011C903.176 161.875 906.028 164.523 907.983 167.955C909.96 171.364 910.949 175.375 910.949 179.989C910.949 184.625 909.949 188.614 907.949 191.955C905.949 195.273 903.051 197.818 899.256 199.591C895.483 201.364 890.915 202.25 885.551 202.25H867.108V190.386H883.165C885.983 190.386 888.324 190 890.188 189.227C892.051 188.455 893.438 187.295 894.347 185.75C895.278 184.205 895.744 182.284 895.744 179.989C895.744 177.67 895.278 175.716 894.347 174.125C893.438 172.534 892.04 171.33 890.153 170.511C888.29 169.67 885.938 169.25 883.097 169.25H873.142V227H858.381ZM896.085 195.227L913.438 227H897.142L880.165 195.227H896.085ZM916.722 169.352V157.182H974.062V169.352H952.688V227H938.097V169.352H916.722ZM1013.76 227H997.94L1022.04 157.182H1041.07L1065.13 227H1049.32L1031.83 173.136H1031.28L1013.76 227ZM1012.77 199.557H1050.13V211.08H1012.77V199.557ZM1129.93 157.182V227H1117.18L1086.81 183.057H1086.3V227H1071.54V157.182H1084.49L1114.63 201.091H1115.24V157.182H1129.93ZM1164.88 227H1140.13V157.182H1165.09C1172.11 157.182 1178.15 158.58 1183.22 161.375C1188.29 164.148 1192.19 168.136 1194.91 173.341C1197.66 178.545 1199.04 184.773 1199.04 192.023C1199.04 199.295 1197.66 205.545 1194.91 210.773C1192.19 216 1188.27 220.011 1183.15 222.807C1178.06 225.602 1171.97 227 1164.88 227ZM1154.89 214.352H1164.27C1168.63 214.352 1172.3 213.58 1175.28 212.034C1178.28 210.466 1180.53 208.045 1182.03 204.773C1183.55 201.477 1184.31 197.227 1184.31 192.023C1184.31 186.864 1183.55 182.648 1182.03 179.375C1180.53 176.102 1178.29 173.693 1175.31 172.148C1172.34 170.602 1168.66 169.83 1164.3 169.83H1154.89V214.352Z" fill="#C3C3B7"/>
<path d="M240.943 273.261C240.67 270.511 239.5 268.375 237.432 266.852C235.364 265.33 232.557 264.568 229.011 264.568C226.602 264.568 224.568 264.909 222.909 265.591C221.25 266.25 219.977 267.17 219.091 268.352C218.227 269.534 217.795 270.875 217.795 272.375C217.75 273.625 218.011 274.716 218.58 275.648C219.17 276.58 219.977 277.386 221 278.068C222.023 278.727 223.205 279.307 224.545 279.807C225.886 280.284 227.318 280.693 228.841 281.034L235.114 282.534C238.159 283.216 240.955 284.125 243.5 285.261C246.045 286.398 248.25 287.795 250.114 289.455C251.977 291.114 253.42 293.068 254.443 295.318C255.489 297.568 256.023 300.148 256.045 303.057C256.023 307.33 254.932 311.034 252.773 314.17C250.636 317.284 247.545 319.705 243.5 321.432C239.477 323.136 234.625 323.989 228.943 323.989C223.307 323.989 218.398 323.125 214.216 321.398C210.057 319.67 206.807 317.114 204.466 313.727C202.148 310.318 200.932 306.102 200.818 301.08H215.102C215.261 303.42 215.932 305.375 217.114 306.943C218.318 308.489 219.92 309.659 221.92 310.455C223.943 311.227 226.227 311.614 228.773 311.614C231.273 311.614 233.443 311.25 235.284 310.523C237.148 309.795 238.591 308.784 239.614 307.489C240.636 306.193 241.148 304.705 241.148 303.023C241.148 301.455 240.682 300.136 239.75 299.068C238.841 298 237.5 297.091 235.727 296.341C233.977 295.591 231.83 294.909 229.284 294.295L221.682 292.386C215.795 290.955 211.148 288.716 207.739 285.67C204.33 282.625 202.636 278.523 202.659 273.364C202.636 269.136 203.761 265.443 206.034 262.284C208.33 259.125 211.477 256.659 215.477 254.886C219.477 253.114 224.023 252.227 229.114 252.227C234.295 252.227 238.818 253.114 242.682 254.886C246.568 256.659 249.591 259.125 251.75 262.284C253.909 265.443 255.023 269.102 255.091 273.261H240.943ZM307.099 253.182H321.861V298.523C321.861 303.614 320.645 308.068 318.213 311.886C315.804 315.705 312.429 318.682 308.088 320.818C303.747 322.932 298.69 323.989 292.918 323.989C287.122 323.989 282.054 322.932 277.713 320.818C273.372 318.682 269.997 315.705 267.588 311.886C265.179 308.068 263.974 303.614 263.974 298.523V253.182H278.736V297.261C278.736 299.92 279.315 302.284 280.474 304.352C281.656 306.42 283.315 308.045 285.452 309.227C287.588 310.409 290.077 311 292.918 311C295.781 311 298.27 310.409 300.384 309.227C302.52 308.045 304.168 306.42 305.327 304.352C306.509 302.284 307.099 299.92 307.099 297.261V253.182ZM332.006 323V253.182H359.96C365.097 253.182 369.381 253.943 372.812 255.466C376.244 256.989 378.824 259.102 380.551 261.807C382.278 264.489 383.142 267.58 383.142 271.08C383.142 273.807 382.597 276.205 381.506 278.273C380.415 280.318 378.915 282 377.006 283.318C375.119 284.614 372.96 285.534 370.528 286.08V286.761C373.188 286.875 375.676 287.625 377.994 289.011C380.335 290.398 382.233 292.341 383.688 294.841C385.142 297.318 385.869 300.273 385.869 303.705C385.869 307.409 384.949 310.716 383.108 313.625C381.29 316.511 378.597 318.795 375.028 320.477C371.46 322.159 367.063 323 361.835 323H332.006ZM346.767 310.932H358.801C362.915 310.932 365.915 310.148 367.801 308.58C369.688 306.989 370.631 304.875 370.631 302.239C370.631 300.307 370.165 298.602 369.233 297.125C368.301 295.648 366.972 294.489 365.244 293.648C363.54 292.807 361.506 292.386 359.142 292.386H346.767V310.932ZM346.767 282.398H357.71C359.733 282.398 361.528 282.045 363.097 281.341C364.688 280.614 365.938 279.591 366.847 278.273C367.778 276.955 368.244 275.375 368.244 273.534C368.244 271.011 367.347 268.977 365.551 267.432C363.778 265.886 361.256 265.114 357.983 265.114H346.767V282.398ZM393.474 323V253.182H439.702V265.352H408.236V281.989H436.634V294.159H408.236V323H393.474ZM447.631 323V253.182H475.176C480.449 253.182 484.949 254.125 488.676 256.011C492.426 257.875 495.278 260.523 497.233 263.955C499.21 267.364 500.199 271.375 500.199 275.989C500.199 280.625 499.199 284.614 497.199 287.955C495.199 291.273 492.301 293.818 488.506 295.591C484.733 297.364 480.165 298.25 474.801 298.25H456.358V286.386H472.415C475.233 286.386 477.574 286 479.438 285.227C481.301 284.455 482.688 283.295 483.597 281.75C484.528 280.205 484.994 278.284 484.994 275.989C484.994 273.67 484.528 271.716 483.597 270.125C482.688 268.534 481.29 267.33 479.403 266.511C477.54 265.67 475.188 265.25 472.347 265.25H462.392V323H447.631ZM485.335 291.227L502.688 323H486.392L469.415 291.227H485.335ZM508.631 323V253.182H555.676V265.352H523.392V281.989H553.256V294.159H523.392V310.83H555.812V323H508.631ZM591.764 298.727H604.31L610.616 306.841L616.821 314.068L628.514 328.727H614.741L606.696 318.841L602.571 312.977L591.764 298.727ZM629.571 288.091C629.571 295.705 628.128 302.182 625.241 307.523C622.378 312.864 618.469 316.943 613.514 319.761C608.582 322.557 603.037 323.955 596.878 323.955C590.673 323.955 585.105 322.545 580.173 319.727C575.241 316.909 571.344 312.83 568.48 307.489C565.616 302.148 564.185 295.682 564.185 288.091C564.185 280.477 565.616 274 568.48 268.659C571.344 263.318 575.241 259.25 580.173 256.455C585.105 253.636 590.673 252.227 596.878 252.227C603.037 252.227 608.582 253.636 613.514 256.455C618.469 259.25 622.378 263.318 625.241 268.659C628.128 274 629.571 280.477 629.571 288.091ZM614.605 288.091C614.605 283.159 613.866 279 612.389 275.614C610.935 272.227 608.878 269.659 606.219 267.909C603.56 266.159 600.446 265.284 596.878 265.284C593.31 265.284 590.196 266.159 587.537 267.909C584.878 269.659 582.81 272.227 581.332 275.614C579.878 279 579.151 283.159 579.151 288.091C579.151 293.023 579.878 297.182 581.332 300.568C582.81 303.955 584.878 306.523 587.537 308.273C590.196 310.023 593.31 310.898 596.878 310.898C600.446 310.898 603.56 310.023 606.219 308.273C608.878 306.523 610.935 303.955 612.389 300.568C613.866 297.182 614.605 293.023 614.605 288.091ZM681.631 253.182H696.392V298.523C696.392 303.614 695.176 308.068 692.744 311.886C690.335 315.705 686.96 318.682 682.619 320.818C678.278 322.932 673.222 323.989 667.449 323.989C661.653 323.989 656.585 322.932 652.244 320.818C647.903 318.682 644.528 315.705 642.119 311.886C639.71 308.068 638.506 303.614 638.506 298.523V253.182H653.267V297.261C653.267 299.92 653.847 302.284 655.006 304.352C656.188 306.42 657.847 308.045 659.983 309.227C662.119 310.409 664.608 311 667.449 311C670.313 311 672.801 310.409 674.915 309.227C677.051 308.045 678.699 306.42 679.858 304.352C681.04 302.284 681.631 299.92 681.631 297.261V253.182ZM706.537 323V253.182H753.582V265.352H721.298V281.989H751.162V294.159H721.298V310.83H753.719V323H706.537ZM821.716 253.182V323H808.966L778.591 279.057H778.08V323H763.318V253.182H776.273L806.409 297.091H807.023V253.182H821.716ZM893.514 277.625H878.582C878.31 275.693 877.753 273.977 876.912 272.477C876.071 270.955 874.991 269.659 873.673 268.591C872.355 267.523 870.832 266.705 869.105 266.136C867.401 265.568 865.548 265.284 863.548 265.284C859.935 265.284 856.787 266.182 854.105 267.977C851.423 269.75 849.344 272.341 847.866 275.75C846.389 279.136 845.651 283.25 845.651 288.091C845.651 293.068 846.389 297.25 847.866 300.636C849.366 304.023 851.457 306.58 854.139 308.307C856.821 310.034 859.923 310.898 863.446 310.898C865.423 310.898 867.253 310.636 868.935 310.114C870.639 309.591 872.151 308.83 873.469 307.83C874.787 306.807 875.878 305.568 876.741 304.114C877.628 302.659 878.241 301 878.582 299.136L893.514 299.205C893.128 302.409 892.162 305.5 890.616 308.477C889.094 311.432 887.037 314.08 884.446 316.42C881.878 318.739 878.81 320.58 875.241 321.943C871.696 323.284 867.685 323.955 863.207 323.955C856.98 323.955 851.412 322.545 846.503 319.727C841.616 316.909 837.753 312.83 834.912 307.489C832.094 302.148 830.685 295.682 830.685 288.091C830.685 280.477 832.116 274 834.98 268.659C837.844 263.318 841.73 259.25 846.639 256.455C851.548 253.636 857.071 252.227 863.207 252.227C867.253 252.227 871.003 252.795 874.457 253.932C877.935 255.068 881.014 256.727 883.696 258.909C886.378 261.068 888.56 263.716 890.241 266.852C891.946 269.989 893.037 273.58 893.514 277.625ZM916.861 253.182V323H902.099V253.182H916.861ZM927.006 323V253.182H974.051V265.352H941.767V281.989H971.631V294.159H941.767V310.83H974.188V323H927.006ZM1021.66 273.261C1021.39 270.511 1020.22 268.375 1018.15 266.852C1016.08 265.33 1013.28 264.568 1009.73 264.568C1007.32 264.568 1005.29 264.909 1003.63 265.591C1001.97 266.25 1000.7 267.17 999.81 268.352C998.946 269.534 998.514 270.875 998.514 272.375C998.469 273.625 998.73 274.716 999.298 275.648C999.889 276.58 1000.7 277.386 1001.72 278.068C1002.74 278.727 1003.92 279.307 1005.26 279.807C1006.61 280.284 1008.04 280.693 1009.56 281.034L1015.83 282.534C1018.88 283.216 1021.67 284.125 1024.22 285.261C1026.76 286.398 1028.97 287.795 1030.83 289.455C1032.7 291.114 1034.14 293.068 1035.16 295.318C1036.21 297.568 1036.74 300.148 1036.76 303.057C1036.74 307.33 1035.65 311.034 1033.49 314.17C1031.36 317.284 1028.26 319.705 1024.22 321.432C1020.2 323.136 1015.34 323.989 1009.66 323.989C1004.03 323.989 999.116 323.125 994.935 321.398C990.776 319.67 987.526 317.114 985.185 313.727C982.866 310.318 981.651 306.102 981.537 301.08H995.821C995.98 303.42 996.651 305.375 997.832 306.943C999.037 308.489 1000.64 309.659 1002.64 310.455C1004.66 311.227 1006.95 311.614 1009.49 311.614C1011.99 311.614 1014.16 311.25 1016 310.523C1017.87 309.795 1019.31 308.784 1020.33 307.489C1021.36 306.193 1021.87 304.705 1021.87 303.023C1021.87 301.455 1021.4 300.136 1020.47 299.068C1019.56 298 1018.22 297.091 1016.45 296.341C1014.7 295.591 1012.55 294.909 1010 294.295L1002.4 292.386C996.514 290.955 991.866 288.716 988.457 285.67C985.048 282.625 983.355 278.523 983.378 273.364C983.355 269.136 984.48 265.443 986.753 262.284C989.048 259.125 992.196 256.659 996.196 254.886C1000.2 253.114 1004.74 252.227 1009.83 252.227C1015.01 252.227 1019.54 253.114 1023.4 254.886C1027.29 256.659 1030.31 259.125 1032.47 262.284C1034.63 265.443 1035.74 269.102 1035.81 273.261H1021.66Z" fill="white"/>
<path d="M65.1023 131H49.2841L73.3864 61.1819H92.4091L116.477 131H100.659L83.1705 77.1365H82.625L65.1023 131ZM64.1136 103.557H101.477V115.08H64.1136V103.557ZM143.099 131V61.1819H170.645C175.94 61.1819 180.452 62.1933 184.179 64.216C187.906 66.216 190.747 69.0001 192.702 72.5683C194.679 76.1137 195.668 80.2046 195.668 84.841C195.668 89.4774 194.668 93.5683 192.668 97.1137C190.668 100.659 187.77 103.421 183.974 105.398C180.202 107.375 175.634 108.364 170.27 108.364H152.713V96.5342H167.884C170.724 96.5342 173.065 96.0455 174.906 95.0683C176.77 94.0683 178.156 92.6933 179.065 90.9433C179.997 89.1705 180.463 87.1365 180.463 84.841C180.463 82.5228 179.997 80.5001 179.065 78.7728C178.156 77.0228 176.77 75.6705 174.906 74.716C173.043 73.7387 170.679 73.2501 167.815 73.2501H157.861V131H143.099ZM203.256 131V61.1819H218.017V118.83H247.949V131H203.256ZM269.54 131H253.722L277.824 61.1819H296.847L320.915 131H305.097L287.608 77.1365H287.062L269.54 131ZM268.551 103.557H305.915V115.08H268.551V103.557ZM316.102 61.1819H332.636L348.557 91.2501H349.239L365.159 61.1819H381.693L356.227 106.318V131H341.568V106.318L316.102 61.1819ZM429.832 83.7501C429.355 82.091 428.685 80.6251 427.821 79.3524C426.957 78.0569 425.901 76.966 424.651 76.0796C423.423 75.1705 422.014 74.4774 420.423 74.0001C418.855 73.5228 417.116 73.2842 415.207 73.2842C411.639 73.2842 408.503 74.1705 405.798 75.9433C403.116 77.716 401.026 80.2955 399.526 83.6819C398.026 87.0455 397.276 91.1592 397.276 96.0228C397.276 100.886 398.014 105.023 399.491 108.432C400.969 111.841 403.06 114.443 405.764 116.239C408.469 118.011 411.662 118.898 415.344 118.898C418.685 118.898 421.537 118.307 423.901 117.125C426.287 115.921 428.105 114.227 429.355 112.046C430.628 109.864 431.264 107.284 431.264 104.307L434.264 104.75H416.264V93.6365H445.48V102.432C445.48 108.568 444.185 113.841 441.594 118.25C439.003 122.636 435.435 126.023 430.889 128.409C426.344 130.773 421.139 131.955 415.276 131.955C408.73 131.955 402.98 130.511 398.026 127.625C393.071 124.716 389.207 120.591 386.435 115.25C383.685 109.886 382.31 103.523 382.31 96.1592C382.31 90.5001 383.128 85.4546 384.764 81.0228C386.423 76.5683 388.741 72.7955 391.719 69.7046C394.696 66.6137 398.162 64.2615 402.116 62.6478C406.071 61.0342 410.355 60.2274 414.969 60.2274C418.923 60.2274 422.605 60.8069 426.014 61.966C429.423 63.1024 432.446 64.716 435.082 66.8069C437.741 68.8978 439.912 71.3865 441.594 74.2728C443.276 77.1365 444.355 80.2955 444.832 83.7501H429.832ZM454.568 131V61.1819H482.114C487.386 61.1819 491.886 62.1251 495.614 64.0115C499.364 65.8751 502.216 68.5228 504.17 71.9546C506.148 75.3637 507.136 79.3751 507.136 83.9887C507.136 88.6251 506.136 92.6137 504.136 95.9546C502.136 99.2728 499.239 101.818 495.443 103.591C491.67 105.364 487.102 106.25 481.739 106.25H463.295V94.3865H479.352C482.17 94.3865 484.511 94.0001 486.375 93.2274C488.239 92.4546 489.625 91.2955 490.534 89.7501C491.466 88.2046 491.932 86.2842 491.932 83.9887C491.932 81.6705 491.466 79.716 490.534 78.1251C489.625 76.5342 488.227 75.3296 486.341 74.5115C484.477 73.6705 482.125 73.2501 479.284 73.2501H469.33V131H454.568ZM492.273 99.2274L509.625 131H493.33L476.352 99.2274H492.273ZM579.727 96.091C579.727 103.705 578.284 110.182 575.398 115.523C572.534 120.864 568.625 124.943 563.67 127.761C558.739 130.557 553.193 131.955 547.034 131.955C540.83 131.955 535.261 130.546 530.33 127.727C525.398 124.909 521.5 120.83 518.636 115.489C515.773 110.148 514.341 103.682 514.341 96.091C514.341 88.4774 515.773 82.0001 518.636 76.6592C521.5 71.3183 525.398 67.2501 530.33 64.4546C535.261 61.6365 540.83 60.2274 547.034 60.2274C553.193 60.2274 558.739 61.6365 563.67 64.4546C568.625 67.2501 572.534 71.3183 575.398 76.6592C578.284 82.0001 579.727 88.4774 579.727 96.091ZM564.761 96.091C564.761 91.1592 564.023 87.0001 562.545 83.6137C561.091 80.2274 559.034 77.6592 556.375 75.9092C553.716 74.1592 550.602 73.2842 547.034 73.2842C543.466 73.2842 540.352 74.1592 537.693 75.9092C535.034 77.6592 532.966 80.2274 531.489 83.6137C530.034 87.0001 529.307 91.1592 529.307 96.091C529.307 101.023 530.034 105.182 531.489 108.568C532.966 111.955 535.034 114.523 537.693 116.273C540.352 118.023 543.466 118.898 547.034 118.898C550.602 118.898 553.716 118.023 556.375 116.273C559.034 114.523 561.091 111.955 562.545 108.568C564.023 105.182 564.761 101.023 564.761 96.091ZM631.787 61.1819H646.548V106.523C646.548 111.614 645.332 116.068 642.901 119.886C640.491 123.705 637.116 126.682 632.776 128.818C628.435 130.932 623.378 131.989 617.605 131.989C611.81 131.989 606.741 130.932 602.401 128.818C598.06 126.682 594.685 123.705 592.276 119.886C589.866 116.068 588.662 111.614 588.662 106.523V61.1819H603.423V105.261C603.423 107.921 604.003 110.284 605.162 112.352C606.344 114.421 608.003 116.046 610.139 117.227C612.276 118.409 614.764 119 617.605 119C620.469 119 622.957 118.409 625.071 117.227C627.207 116.046 628.855 114.421 630.014 112.352C631.196 110.284 631.787 107.921 631.787 105.261V61.1819ZM715.091 61.1819V131H702.341L671.966 87.0569H671.455V131H656.693V61.1819H669.648L699.784 105.091H700.398V61.1819H715.091ZM750.037 131H725.287V61.1819H750.241C757.264 61.1819 763.31 62.5796 768.378 65.3751C773.446 68.1478 777.344 72.1365 780.071 77.341C782.821 82.5455 784.196 88.7728 784.196 96.0228C784.196 103.296 782.821 109.546 780.071 114.773C777.344 120 773.423 124.011 768.31 126.807C763.219 129.602 757.128 131 750.037 131ZM740.048 118.352H749.423C753.787 118.352 757.457 117.58 760.435 116.034C763.435 114.466 765.685 112.046 767.185 108.773C768.707 105.477 769.469 101.227 769.469 96.0228C769.469 90.8637 768.707 86.6478 767.185 83.3751C765.685 80.1024 763.446 77.6933 760.469 76.1478C757.491 74.6024 753.821 73.8296 749.457 73.8296H740.048V118.352Z" fill="white"/>
<path d="M47 192H817" stroke="#979797" stroke-width="1.6"/>
</svg>
